<svg 
 xmlns="http://www.w3.org/2000/svg"
 xmlns:xlink="http://www.w3.org/1999/xlink"
 width="76px" height="77px">
<defs>
<linearGradient id="PSgrad_0" x1="67.917%" x2="0%" y1="73.398%" y2="0%">
  <stop offset="0%" stop-color="rgb(84,223,91)" stop-opacity="1" />
  <stop offset="100%" stop-color="rgb(185,248,144)" stop-opacity="1" />
</linearGradient>

</defs>
<path fill-rule="evenodd"  fill="url(#PSgrad_0)"
 d="M35.729,0.999 L35.729,0.999 C54.681,0.999 70.000,16.318 70.000,35.270 L70.000,62.998 C70.000,67.423 66.424,70.999 62.000,70.999 L29.647,70.999 C13.252,70.999 -0.000,57.747 -0.000,41.352 L-0.000,36.728 C-0.000,16.970 15.971,0.999 35.729,0.999 Z"/>
<path fill-rule="evenodd"  opacity="0.149" fill="rgb(255, 255, 255)"
 d="M59.748,6.990 L72.706,20.885 C75.723,24.121 75.546,29.175 72.311,32.193 L30.623,71.066 C27.388,74.083 22.334,73.907 19.317,70.671 L6.359,56.776 C3.342,53.540 3.518,48.486 6.754,45.469 L48.441,6.595 C51.676,3.578 56.730,3.754 59.748,6.990 Z"/>
<path fill-rule="evenodd"  fill-opacity="0.039" fill="rgb(0, 0, 0)"
 d="M4.155,15.547 L18.051,2.589 C21.287,-0.429 26.341,-0.252 29.358,2.984 L73.688,50.522 C76.705,53.757 76.528,58.812 73.293,61.828 L59.397,74.786 C56.162,77.804 51.108,77.627 48.090,74.391 L3.761,26.854 C0.743,23.618 0.920,18.563 4.155,15.547 Z"/>
</svg>