<?xml version="1.0" encoding="UTF-8"?>
<svg width="70px" height="70px" viewBox="0 0 70 70" version="1.1" xmlns="http://www.w3.org/2000/svg" xmlns:xlink="http://www.w3.org/1999/xlink">
    <!-- Generator: Sketch 53 (72520) - https://sketchapp.com -->
    <title>Icon Bg 4</title>
    <desc>Created with Sketch.</desc>
    <defs>
        <linearGradient x1="100%" y1="100%" x2="21.6238839%" y2="15.3000646%" id="linearGradient-1">
            <stop stop-color="#58FFE6" offset="0%"></stop>
            <stop stop-color="#88C7F8" offset="100%"></stop>
        </linearGradient>
        <path d="M35,-1.8189894e-11 L35,-1.8189894e-11 C54.3299662,-1.81934449e-11 70,15.6700338 70,35 L70,62 C70,66.418278 66.418278,70 62,70 L35,70 C15.6700338,70 2.36723813e-15,54.3299662 0,35 L0,35 C-2.36723813e-15,15.6700338 15.6700338,-1.81863432e-11 35,-1.8189894e-11 Z" id="path-2"></path>
    </defs>
    <g id="Main-Files" stroke="none" stroke-width="1" fill="none" fill-rule="evenodd">
        <g id="04_index-Saas" transform="translate(-813.000000, -4747.000000)">
            <g id="Pricing" transform="translate(278.000000, 4743.000000)">
                <g id="Heading" transform="translate(274.000000, 0.000000)">
                    <g id="Rectangle-49" transform="translate(256.000000, 0.000000)">
                        <g id="Icon-Bg-4" transform="translate(5.000000, 4.000000)">
                            <g id="Group">
                                <mask id="mask-3" fill="white">
                                    <use xlink:href="#path-2"></use>
                                </mask>
                                <use id="Mask" fill="url(#linearGradient-1)" xlink:href="#path-2"></use>
                                <polygon id="Path-3" fill="#FFFFFF" opacity="0.126348586" mask="url(#mask-3)" points="75 19.261194 29.7096774 75 3 55.4626866 48.2903226 -2"></polygon>
                                <polygon id="Path-3" fill="#FFFFFF" opacity="0.120907738" mask="url(#mask-3)" transform="translate(40.250000, 38.250000) rotate(-90.000000) translate(-40.250000, -38.250000) " points="80.5 13.5 25.5 79.5 4.88498131e-12 59.5 51.7903226 -3"></polygon>
                            </g>
                        </g>
                    </g>
                </g>
            </g>
        </g>
    </g>
</svg>