<?xml version="1.0" encoding="UTF-8"?>
<svg width="70px" height="70px" viewBox="0 0 70 70" version="1.1" xmlns="http://www.w3.org/2000/svg" xmlns:xlink="http://www.w3.org/1999/xlink">
    <!-- Generator: Sketch 53 (72520) - https://sketchapp.com -->
    <title>Ico Bg 5</title>
    <desc>Created with Sketch.</desc>
    <defs>
        <linearGradient x1="100%" y1="100%" x2="21.6238839%" y2="15.3000646%" id="linearGradient-1">
            <stop stop-color="#FF99CA" offset="0%"></stop>
            <stop stop-color="#FF38A8" offset="100%"></stop>
        </linearGradient>
        <path d="M35,0.811488661 L35,0.811488661 C54.3299662,0.811488661 70,16.4815224 70,35.8114887 L70,62.8114887 C70,67.2297667 66.418278,70.8114887 62,70.8114887 L35,70.8114887 C15.6700338,70.8114887 2.36723813e-15,55.1414549 0,35.8114887 L0,35.8114887 C-2.36723813e-15,16.4815224 15.6700338,0.811488661 35,0.811488661 Z" id="path-2"></path>
    </defs>
    <g id="Main-Files" stroke="none" stroke-width="1" fill="none" fill-rule="evenodd">
        <g id="04_index-Saas" transform="translate(-815.000000, -6201.000000)">
            <g id="Testtimonials" transform="translate(0.000000, 6084.000000)">
                <g id="Heading" transform="translate(513.000000, 116.000000)">
                    <g id="Rectangle-49" transform="translate(302.000000, 0.000000)">
                        <g id="Ico-Bg-5" transform="translate(0.000000, 0.188511)">
                            <g id="Group">
                                <mask id="mask-3" fill="white">
                                    <use xlink:href="#path-2"></use>
                                </mask>
                                <use id="Mask" fill="url(#linearGradient-1)" xlink:href="#path-2"></use>
                                <rect id="Rectangle-49" fill="#FFFFFF" opacity="0.150000006" mask="url(#mask-3)" transform="translate(39.532351, 38.642856) rotate(47.000000) translate(-39.532351, -38.642856) " x="22.0323509" y="2.14285628" width="35" height="73" rx="8"></rect>
                                <rect id="Rectangle-50" fill-opacity="0.0427423007" fill="#000000" mask="url(#mask-3)" transform="translate(38.724478, 38.500000) rotate(-43.000000) translate(-38.724478, -38.500000) " x="21.2244779" y="-2" width="35" height="81" rx="8"></rect>
                            </g>
                        </g>
                    </g>
                </g>
            </g>
        </g>
    </g>
</svg>