<svg xmlns="http://www.w3.org/2000/svg" xmlns:xlink="http://www.w3.org/1999/xlink" width="112.406" height="148.75" viewBox="0 0 112.406 148.75">
  <defs>
    <style>
      .cls-1, .cls-10, .cls-2, .cls-3, .cls-4, .cls-5, .cls-7, .cls-9 {
        fill-rule: evenodd;
      }

      .cls-1 {
        fill: url(#linear-gradient);
      }

      .cls-10, .cls-2 {
        fill: #fff;
      }

      .cls-2 {
        stroke: #f8f8f8;
        stroke-width: 1px;
      }

      .cls-3 {
        fill: url(#linear-gradient-2);
      }

      .cls-4 {
        fill: #fafafa;
      }

      .cls-5 {
        fill: url(#linear-gradient-3);
      }

      .cls-6 {
        fill: #69f0ae;
      }

      .cls-7 {
        fill: url(#linear-gradient-4);
      }

      .cls-8 {
        fill: #e0e0e0;
      }

      .cls-9 {
        fill: url(#linear-gradient-5);
      }
    </style>
    <linearGradient id="linear-gradient" x1="848.969" y1="1608.5" x2="848.969" y2="1459.75" gradientUnits="userSpaceOnUse">
      <stop offset="NaN" stop-color="gray"/>
      <stop offset="NaN" stop-color="gray" stop-opacity="0.251"/>
      <stop offset="Infinity" stop-color="#NaNNaNNaN" stop-opacity="0.102"/>
    </linearGradient>
    <linearGradient id="linear-gradient-2" x1="894.969" y1="1478.5" x2="894.969" y2="1461.78" xlink:href="#linear-gradient"/>
    <linearGradient id="linear-gradient-3" x1="813.985" y1="1505.5" x2="813.985" y2="1487.78" xlink:href="#linear-gradient"/>
    <linearGradient id="linear-gradient-4" x1="813.985" y1="1540.5" x2="813.985" y2="1522.78" xlink:href="#linear-gradient"/>
    <linearGradient id="linear-gradient-5" x1="813.985" y1="1574.5" x2="813.985" y2="1556.78" xlink:href="#linear-gradient"/>
  </defs>
  <path id="Path" class="cls-1" d="M904.85,1608.51H793.106V1459.76h94.009l17.735,18.22v130.53h0Z" transform="translate(-793.094 -1459.75)"/>
  <path id="Path-2" data-name="Path" class="cls-2" d="M905,1606.64H795v-146h93.065L905,1477.15v129.49h0Z" transform="translate(-793.094 -1459.75)"/>
  <path id="Path-3" data-name="Path" class="cls-3" d="M886.1,1478.51v-16.74h1.46l16.286,16.74H886.1Z" transform="translate(-793.094 -1459.75)"/>
  <path id="Path-4" data-name="Path" class="cls-4" d="M887,1477.64v-17l17,17H887Z" transform="translate(-793.094 -1459.75)"/>
  <path id="Oval" class="cls-5" d="M805.11,1496.64a8.87,8.87,0,1,1,8.869,8.87A8.869,8.869,0,0,1,805.11,1496.64Z" transform="translate(-793.094 -1459.75)"/>
  <circle id="Oval-2" data-name="Oval" class="cls-6" cx="20.906" cy="36.91" r="8"/>
  <path id="Oval-3" data-name="Oval" class="cls-7" d="M805.11,1531.64a8.87,8.87,0,1,1,8.869,8.87A8.869,8.869,0,0,1,805.11,1531.64Z" transform="translate(-793.094 -1459.75)"/>
  <circle id="Oval-4" data-name="Oval" class="cls-8" cx="20.906" cy="71.91" r="8"/>
  <path id="Oval-5" data-name="Oval" class="cls-9" d="M805.11,1565.64a8.87,8.87,0,1,1,8.869,8.87A8.869,8.869,0,0,1,805.11,1565.64Z" transform="translate(-793.094 -1459.75)"/>
  <circle id="Oval-6" data-name="Oval" class="cls-8" cx="20.906" cy="105.91" r="8"/>
  <rect id="Rectangle" class="cls-8" x="39.906" y="33.91" width="21" height="2"/>
  <rect id="Rectangle-2" data-name="Rectangle" class="cls-8" x="39.906" y="35.91" width="36" height="2"/>
  <rect id="Rectangle-3" data-name="Rectangle" class="cls-8" x="40.906" y="37.91" width="33" height="2"/>
  <rect id="Rectangle-4" data-name="Rectangle" class="cls-8" x="39.906" y="67.91" width="21" height="2"/>
  <rect id="Rectangle-5" data-name="Rectangle" class="cls-8" x="39.906" y="70.91" width="36" height="2"/>
  <rect id="Rectangle-6" data-name="Rectangle" class="cls-8" x="40.906" y="72.91" width="33" height="2"/>
  <rect id="Rectangle-7" data-name="Rectangle" class="cls-8" x="39.906" y="102.91" width="21" height="2"/>
  <rect id="Rectangle-8" data-name="Rectangle" class="cls-8" x="39.906" y="105.91" width="36" height="2"/>
  <rect id="Rectangle-9" data-name="Rectangle" class="cls-8" x="40.906" y="107.91" width="33" height="2"/>
  <path id="Path-5" data-name="Path" class="cls-10" d="M811.125,1496.84l2.7,2.52,3.825-5.72,1.35,1.15-5.175,6.85L810,1497.3l1.125-.46h0Z" transform="translate(-793.094 -1459.75)"/>
  <path id="Path-6" data-name="Path" class="cls-10" d="M811.125,1530.84l2.7,2.52,3.825-5.72,1.35,1.15-5.175,6.85L810,1531.3l1.125-.46h0Z" transform="translate(-793.094 -1459.75)"/>
  <path id="Path-7" data-name="Path" class="cls-10" d="M811.125,1564.84l2.7,2.52,3.825-5.72,1.35,1.15-5.175,6.85L810,1565.3l1.125-.46h0Z" transform="translate(-793.094 -1459.75)"/>
</svg>
