<svg xmlns="http://www.w3.org/2000/svg" xmlns:xlink="http://www.w3.org/1999/xlink" width="36.75" height="38.87" viewBox="0 0 36.75 38.87">
  <defs>
    <style>
      .cls-1, .cls-2, .cls-3 {
        fill-rule: evenodd;
      }

      .cls-1 {
        fill: url(#linear-gradient);
      }

      .cls-2 {
        fill: #6c63ff;
      }

      .cls-3 {
        fill: #fff;
      }
    </style>
    <linearGradient id="linear-gradient" x1="943.594" y1="1513.53" x2="943.594" y2="1474.66" gradientUnits="userSpaceOnUse">
      <stop offset="NaN" stop-color="gray"/>
      <stop offset="NaN" stop-color="gray" stop-opacity="0.251"/>
      <stop offset="Infinity" stop-color="#NaNNaNNaN" stop-opacity="0.102"/>
    </linearGradient>
  </defs>
  <path id="Rectangle" class="cls-1" d="M943.6,1474.64h0a18.364,18.364,0,0,1,18.376,18.38v2.12a18.364,18.364,0,0,1-18.376,18.38h0a18.364,18.364,0,0,1-18.375-18.38v-2.12A18.364,18.364,0,0,1,943.6,1474.64Z" transform="translate(-925.219 -1474.66)"/>
  <path id="Rectangle-2" data-name="Rectangle" class="cls-2" d="M943.5,1475.64h0a16.488,16.488,0,0,1,16.5,16.5v4a16.482,16.482,0,0,1-16.5,16.5h0a16.481,16.481,0,0,1-16.5-16.5v-4A16.487,16.487,0,0,1,943.5,1475.64Z" transform="translate(-925.219 -1474.66)"/>
  <path id="Path" class="cls-3" d="M945,1500.27a8.006,8.006,0,0,1,5.749,7.75v3.62h-15.5v-3.62a8.006,8.006,0,0,1,5.749-7.75v-1.32a8.277,8.277,0,0,1-5.936-9.06,7.968,7.968,0,0,1,15.872,0,8.277,8.277,0,0,1-5.936,9.06v1.32h0Z" transform="translate(-925.219 -1474.66)"/>
  <path id="Oval" class="cls-3" d="M935,1489.64a8.514,8.514,0,1,1,8.5,9A8.761,8.761,0,0,1,935,1489.64Z" transform="translate(-925.219 -1474.66)"/>
  <path id="Path-2" data-name="Path" class="cls-3" d="M947,1496.28c1.459,8.3,9,4.49,9,4.49-3.649-.9-3.184-9.13-3.184-9.13Z" transform="translate(-925.219 -1474.66)"/>
  <path id="Path-3" data-name="Path" class="cls-3" d="M941,1496.28c-1.46,8.3-9,4.49-9,4.49,3.649-.9,3.184-9.13,3.184-9.13Z" transform="translate(-925.219 -1474.66)"/>
</svg>
