<svg xmlns="http://www.w3.org/2000/svg" xmlns:xlink="http://www.w3.org/1999/xlink" width="36.75" height="39" viewBox="0 0 36.75 39">
  <defs>
    <style>
      .cls-1, .cls-2, .cls-3, .cls-4 {
        fill-rule: evenodd;
      }

      .cls-1 {
        fill: url(#linear-gradient);
      }

      .cls-2 {
        fill: #6c63ff;
      }

      .cls-3, .cls-4 {
        fill: #fff;
      }

      .cls-3 {
        stroke: #fff;
        stroke-width: 1px;
      }
    </style>
    <linearGradient id="linear-gradient" x1="758.594" y1="1567.53" x2="758.594" y2="1528.66" gradientUnits="userSpaceOnUse">
      <stop offset="NaN" stop-color="gray"/>
      <stop offset="NaN" stop-color="gray" stop-opacity="0.251"/>
      <stop offset="Infinity" stop-color="#NaNNaNNaN" stop-opacity="0.102"/>
    </linearGradient>
  </defs>
  <path id="Rectangle" class="cls-1" d="M758.6,1528.64h0a18.364,18.364,0,0,1,18.376,18.38v2.12a18.364,18.364,0,0,1-18.376,18.38h0a18.364,18.364,0,0,1-18.375-18.38v-2.12A18.364,18.364,0,0,1,758.6,1528.64Z" transform="translate(-740.219 -1528.66)"/>
  <path id="Rectangle-2" data-name="Rectangle" class="cls-2" d="M758.5,1529.64h0a16.488,16.488,0,0,1,16.5,16.5v4a16.482,16.482,0,0,1-16.5,16.5h0a16.481,16.481,0,0,1-16.5-16.5v-4A16.487,16.487,0,0,1,758.5,1529.64Z" transform="translate(-740.219 -1528.66)"/>
  <path id="Path" class="cls-3" d="M765.009,1546.64c0.734-.05.426-1.27,0.713-1.96a4.853,4.853,0,0,0,.239-2.23c-0.058-.75-1.2-0.84-1.673-1.43,0.208-.63.309-1.68-0.64-1.23a3.518,3.518,0,0,0,1.427-2.33,10.526,10.526,0,0,0,.025-2.82,7.431,7.431,0,0,1-4.779,3.31,30.549,30.549,0,0,1-3.581.28,5.756,5.756,0,0,0-3.343,1.17,4.339,4.339,0,0,0-1.386,2.92,6.292,6.292,0,0,0,.668,3.21" transform="translate(-740.219 -1528.66)"/>
  <path id="Path-2" data-name="Path" class="cls-4" d="M761,1556.27a8.006,8.006,0,0,1,5.749,7.75v3.62h-15.5v-3.62a8.008,8.008,0,0,1,5.75-7.75v-1.32a8.277,8.277,0,0,1-5.936-9.06,7.968,7.968,0,0,1,15.872,0,8.277,8.277,0,0,1-5.936,9.06v1.32h0Z" transform="translate(-740.219 -1528.66)"/>
</svg>
