<?xml version="1.0" encoding="utf-8" ?>
<svg xmlns="http://www.w3.org/2000/svg" xmlns:xlink="http://www.w3.org/1999/xlink" width="20" height="19">
	<defs>
		<clipPath id="clip_0">
			<rect x="-801" y="-4436" width="1700" height="9600" clip-rule="evenodd"/>
		</clipPath>
		<linearGradient id="gradient_0" gradientUnits="userSpaceOnUse" x1="8.9534416" y1="0" x2="0" y2="16.881813">
			<stop offset="0" stop-color="rgb(255,247,242)"/>
			<stop offset="1" stop-color="rgb(255,151,86)"/>
		</linearGradient>
	</defs>
	<g clip-path="url(#clip_0)">
		<path fill="none" stroke="url(#gradient_0)" stroke-width="3" stroke-miterlimit="4" transform="translate(0.612305 1.25049)" d="M2.18862 16.6749L16.5868 11.1508Q16.7303 11.0957 16.8604 11.0332Q16.9905 10.9707 17.106 10.9012Q17.2216 10.8318 17.3217 10.756Q17.4217 10.6801 17.5055 10.5986Q17.5893 10.517 17.656 10.4304Q17.7228 10.3438 17.7721 10.2528Q17.8214 10.1617 17.8527 10.0671Q17.884 9.97246 17.8972 9.87497Q17.9104 9.77747 17.9052 9.67791Q17.9001 9.57835 17.8767 9.47753Q17.8534 9.37672 17.8119 9.27548Q17.7705 9.17423 17.7113 9.07339Q17.6522 8.97254 17.5758 8.87291Q17.4994 8.77328 17.4064 8.67569Q17.3134 8.57809 17.2046 8.48332Q17.0957 8.38856 16.9719 8.29739L6.42045 0.528271Q6.29663 0.437103 6.17143 0.360929Q6.04622 0.284756 5.92064 0.224198Q5.79507 0.16364 5.67015 0.119192Q5.54523 0.0747434 5.42198 0.0467675Q5.29874 0.0187917 5.17818 0.0075162Q5.05761 -0.00375926 4.94071 0.00175768Q4.82381 0.00727462 4.71153 0.029539Q4.59925 0.0518033 4.4925 0.0906335Q4.38575 0.129464 4.2854 0.184543Q4.18505 0.239622 4.09193 0.310501Q3.9988 0.38138 3.91366 0.467481Q3.82852 0.553582 3.75205 0.654203Q3.67558 0.754823 3.60841 0.869142Q3.54125 0.983462 3.48392 1.11055Q3.4266 1.23763 3.3796 1.37645Q3.33259 1.51526 3.29629 1.66468L0.0960763 14.8343Q0.0597691 14.9838 0.0370766 15.1259Q0.0143842 15.268 0.0054916 15.4016Q-0.00340096 15.5352 0.00157888 15.6593Q0.00655873 15.7833 0.0253704 15.8968Q0.044182 16.0103 0.076672 16.1123Q0.109162 16.2142 0.155065 16.3039Q0.200969 16.3935 0.259911 16.4701Q0.318853 16.5467 0.390354 16.6096Q0.461855 16.6725 0.54533 16.7212Q0.628806 16.7698 0.723576 16.8039Q0.818346 16.838 0.923637 16.8572Q1.02893 16.8764 1.14388 16.8806Q1.25884 16.8848 1.38251 16.8739Q1.50619 16.863 1.63759 16.8371Q1.76898 16.8112 1.90702 16.7706Q2.04506 16.73 2.18862 16.6749Z"/>
	</g>

</svg>