<svg 
 xmlns="http://www.w3.org/2000/svg"
 xmlns:xlink="http://www.w3.org/1999/xlink"
 width="671px" height="425px">
<defs>
<linearGradient id="PSgrad_0" x1="2.855%" x2="0%" y1="99.959%" y2="0%">
  <stop offset="0%" stop-color="rgb(255,255,255)" stop-opacity="1" />
  <stop offset="100%" stop-color="rgb(246,250,254)" stop-opacity="1" />
</linearGradient>

</defs>
<path fill-rule="evenodd"  fill="url(#PSgrad_0)"
 d="M670.470,338.159 C676.439,277.083 631.179,216.993 573.292,201.422 C555.545,196.647 536.558,195.619 520.178,187.235 C474.490,163.847 457.927,103.688 428.852,64.818 C393.514,17.573 344.047,-3.433 285.877,0.453 C235.261,3.838 182.244,25.503 150.887,67.093 C127.995,97.459 125.984,138.419 99.523,166.859 C53.308,216.541 -18.185,269.044 4.249,346.667 C12.305,374.539 28.445,398.712 42.641,423.623 C42.641,423.623 42.759,423.836 42.973,424.224 L615.031,424.224 C622.249,424.224 632.413,426.970 638.439,422.127 C644.197,417.496 666.598,377.793 670.470,338.159 "/>
</svg>