<svg id="Layer_1" data-name="Layer 1" xmlns="http://www.w3.org/2000/svg" viewBox="0 0 73.5 24.7"><title>logo10</title><path d="M14,19.4l-4-7.5H7.6v7.5H4.4V.3h7.3a6,6,0,0,1,4.4,1.6,5.7,5.7,0,0,1,1.6,4.2,6.1,6.1,0,0,1-1.1,3.5,5.5,5.5,0,0,1-3.2,1.9l4.3,7.9ZM7.6,9h3.5a3.6,3.6,0,0,0,2.4-.8,2.6,2.6,0,0,0,.9-2.1,2.9,2.9,0,0,0-.9-2.2,3.6,3.6,0,0,0-2.4-.8H7.6Z" transform="translate(-4.4 -0.3)"/><path d="M26.2,5.9a6.6,6.6,0,0,1,4.9,1.9,6.9,6.9,0,0,1,2,5,6.9,6.9,0,0,1-2,5,6.3,6.3,0,0,1-4.9,2,6.4,6.4,0,0,1-4.9-2,7.2,7.2,0,0,1-1.9-5,7.2,7.2,0,0,1,1.9-5A6.7,6.7,0,0,1,26.2,5.9Zm-2.6,10a3.6,3.6,0,0,0,5.2,0,4.3,4.3,0,0,0,1.1-3.1,4.1,4.1,0,0,0-1.1-3,3.6,3.6,0,0,0-5.2,0,4.1,4.1,0,0,0-1.1,3A4.5,4.5,0,0,0,23.6,15.9Z" transform="translate(-4.4 -0.3)"/><path d="M35.1,20.1l2.9-.7a3.1,3.1,0,0,0,1.1,2,2.9,2.9,0,0,0,2.2.8c2.5,0,3.7-1.3,3.7-3.9V16.9a3.8,3.8,0,0,1-1.4,1.4,6,6,0,0,1-2.4.5A5.7,5.7,0,0,1,36.9,17a6.1,6.1,0,0,1-1.7-4.6,6,6,0,0,1,1.7-4.5A5.4,5.4,0,0,1,41.2,6c2,0,3.3.7,3.9,1.9V6.3h3V18.2A7.1,7.1,0,0,1,46.5,23a6.3,6.3,0,0,1-5.1,2,6.9,6.9,0,0,1-4.3-1.4A5.5,5.5,0,0,1,35.1,20.1Zm6.6-4a3,3,0,0,0,2.5-1,3.7,3.7,0,0,0,.9-2.7,4,4,0,0,0-.9-2.7,3.7,3.7,0,0,0-2.5-1,3.3,3.3,0,0,0-2.4,1,3.6,3.6,0,0,0-1,2.7,3.3,3.3,0,0,0,1,2.7A3,3,0,0,0,41.7,16.1Z" transform="translate(-4.4 -0.3)"/><path d="M51,15.9a3.4,3.4,0,0,1,1.1-2.7A5.5,5.5,0,0,1,55,11.9l3.4-.5c.6-.1,1-.4,1-1A1.9,1.9,0,0,0,58.7,9a2.4,2.4,0,0,0-1.8-.6,2.4,2.4,0,0,0-1.9.7,2.1,2.1,0,0,0-.8,1.7l-2.9-.6A4.6,4.6,0,0,1,53,7.1a6,6,0,0,1,3.8-1.2,6,6,0,0,1,4.3,1.3,5,5,0,0,1,1.3,3.6v6.5a10.6,10.6,0,0,0,.2,2.1H59.7a5.4,5.4,0,0,1-.2-1.7,4.3,4.3,0,0,1-4,2.1,4.4,4.4,0,0,1-3.2-1.2A3.4,3.4,0,0,1,51,15.9Zm5.1,1.5a3.4,3.4,0,0,0,2.3-.8,3.5,3.5,0,0,0,1-2.6v-.6l-3.5.5c-1.1.2-1.7.8-1.7,1.8a1.6,1.6,0,0,0,.5,1.2A2,2,0,0,0,56.1,17.4Z" transform="translate(-4.4 -0.3)"/><path d="M69.3,11.8v7.6H66.2V6.3h3.1V8a4.1,4.1,0,0,1,1.6-1.6,5.9,5.9,0,0,1,2.2-.5,4.6,4.6,0,0,1,3.6,1.4,6,6,0,0,1,1.2,3.8v8.3H74.8V11.6a3.1,3.1,0,0,0-.7-2.1,2.5,2.5,0,0,0-2-.8,2.3,2.3,0,0,0-2,.9A3.3,3.3,0,0,0,69.3,11.8Z" transform="translate(-4.4 -0.3)"/></svg>