<?xml version="1.0" encoding="UTF-8"?>
<svg width="15px" height="15px" viewBox="0 0 15 15" version="1.1" xmlns="http://www.w3.org/2000/svg" xmlns:xlink="http://www.w3.org/1999/xlink">
    <!-- Generator: sketchtool 53 (72520) - https://sketchapp.com -->
    <title>EDA6777C-232E-4ED1-A45B-E8882EE3ED3D</title>
    <desc>Created with sketchtool.</desc>
    <g id="Page-1" stroke="none" stroke-width="1" fill="none" fill-rule="evenodd">
        <g id="Drodown-Menu-with-Icon" transform="translate(-259.000000, -209.000000)" fill="#B2B2B2" fill-rule="nonzero">
            <g id="flaticon1552746158-svg" transform="translate(259.000000, 209.000000)">
                <path d="M7.5,0 C3.35768555,0 0,3.35768555 0,7.5 C0,11.6423145 3.35768555,15 7.5,15 C11.6423145,15 15,11.6423145 15,7.5 C15,3.35768555 11.6423145,0 7.5,0 Z M7.5,13.828125 C4.0049707,13.828125 1.171875,10.9950293 1.171875,7.5 C1.171875,4.0049707 4.0049707,1.171875 7.5,1.171875 C10.9950293,1.171875 13.828125,4.0049707 13.828125,7.5 C13.828125,10.9950293 10.9950293,13.828125 7.5,13.828125 Z" id="Shape"></path>
                <g id="Group" transform="translate(4.218750, 4.687500)">
                    <path d="M2.78548828,0.746835937 L1.91162109,0 C0.826728516,0.796289063 0,2.21510742 0,3.73353516 C0,4.95254883 0.68390625,5.625 1.46393555,5.625 C2.17209961,5.625 2.73834961,5.02807617 2.73834961,4.27962891 C2.73834961,3.55819336 2.24349609,3.01163086 1.58203125,3.01163086 C1.46393555,3.01163086 1.29914062,3.06108398 1.27441406,3.06108398 C1.36962891,2.265 2.0297168,1.26984375 2.78548828,0.746835937 Z" id="Path"></path>
                    <path d="M5.35951172,3.01163086 C5.26479492,3.01163086 5.098125,3.06108398 5.05189453,3.06108398 C5.14573242,2.26505859 5.80719727,1.26984375 6.5625,0.746894531 L5.68910156,0 C4.60423828,0.796289063 3.77797852,2.21510742 3.77797852,3.73353516 C3.77797852,4.95254883 4.46141602,5.625 5.24144531,5.625 C5.94870117,5.625 6.51495117,5.02807617 6.51495117,4.27962891 C6.51489258,3.55819336 6.02097656,3.01163086 5.35951172,3.01163086 Z" id="Path"></path>
                </g>
            </g>
        </g>
    </g>
</svg>