<?xml version="1.0" encoding="UTF-8"?>
<svg width="19px" height="10px" viewBox="0 0 19 10" version="1.1" xmlns="http://www.w3.org/2000/svg" xmlns:xlink="http://www.w3.org/1999/xlink">
    <!-- Generator: sketchtool 53 (72520) - https://sketchapp.com -->
    <title>98ECA56D-8B36-427C-B082-26694CD5D2A6</title>
    <desc>Created with sketchtool.</desc>
    <g id="Page-1" stroke="none" stroke-width="1" fill="none" fill-rule="evenodd">
        <g id="Drodown-Menu-with-Icon" transform="translate(-776.000000, -332.000000)" fill="#B2B2B2" fill-rule="nonzero">
            <g id="flaticon1552747793-svg" transform="translate(776.000000, 332.000000)">
                <path d="M14.0285034,9.5 L12.9801636,8.50159017 L16.9069443,4.76689998 L12.9776993,0.993581256 L14.0309677,0 L19,4.77172856 L14.0285034,9.5 Z M6.01983643,8.50159017 L2.09305573,4.76689998 L6.02244566,0.993581256 L4.9690323,0 L0,4.77172856 L4.97149658,9.5 L6.01983643,8.50159017 Z M10.2416077,4.76648613 C10.2416077,5.15553069 9.90892791,5.47214678 9.5,5.47214678 C9.09107209,5.47214678 8.75853728,5.15553069 8.75853728,4.76648613 C8.75853728,4.37730355 9.09107209,4.06068746 9.5,4.06068746 C9.90892791,4.06068746 10.2416077,4.37730355 10.2416077,4.76648613 Z M13.2077484,4.76648613 C13.2077484,5.15553069 12.8750687,5.47214678 12.4661408,5.47214678 C12.0572128,5.47214678 11.724678,5.15553069 11.724678,4.76648613 C11.724678,4.37730355 12.0572128,4.06068746 12.4661408,4.06068746 C12.8750687,4.06068746 13.2077484,4.37730355 13.2077484,4.76648613 L13.2077484,4.76648613 Z M7.27546694,4.76648613 C7.27546694,5.15553069 6.94278718,5.47214678 6.53385923,5.47214678 C6.12493133,5.47214678 5.79239655,5.15553069 5.79239655,4.76648613 C5.79239655,4.37730355 6.12493133,4.06068746 6.53385923,4.06068746 C6.94278718,4.06068746 7.27546694,4.37730355 7.27546694,4.76648613 Z" id="Shape"></path>
            </g>
        </g>
    </g>
</svg>