<?xml version="1.0" encoding="UTF-8"?>
<svg width="11px" height="13px" viewBox="0 0 11 13" version="1.1" xmlns="http://www.w3.org/2000/svg" xmlns:xlink="http://www.w3.org/1999/xlink">
    <!-- Generator: sketchtool 53 (72520) - https://sketchapp.com -->
    <title>6478F537-B638-480B-8AD8-BA216ADDF628</title>
    <desc>Created with sketchtool.</desc>
    <g id="Page-1" stroke="none" stroke-width="1" fill="none" fill-rule="evenodd">
        <g id="Drodown-Menu-with-Icon" transform="translate(-437.000000, -371.000000)" fill="#B2B2B2" fill-rule="nonzero">
            <g id="flaticon1552746599-svg" transform="translate(437.000000, 371.000000)">
                <path d="M10.2813446,6.49888289 C9.81257535,5.94741554 9.11737074,5.56414476 8.19537498,5.34879465 C8.84148894,5.04942902 9.23210714,4.84726755 9.3675032,4.74228264 C9.69562249,4.49542326 9.94301857,4.2196482 10.1094178,3.91509541 C10.2761181,3.61043225 10.3593587,3.2743426 10.3593587,2.90677127 C10.3593587,2.56543927 10.304768,2.24510425 10.1953128,1.94573863 C10.0859397,1.64631782 9.9166946,1.3732467 9.68755017,1.1264425 C9.45317925,0.879693486 9.18753151,0.680015232 8.89066168,0.527711244 C8.61458834,0.391217073 8.36456533,0.288825751 8.14059266,0.220564869 C7.60418015,0.0787455763 7.10676106,0.0078359298 6.64847219,0.0078359298 L6.0703299,0.0078359298 C5.96618329,0.0078359298 5.86055904,0.0065115473 5.75381287,0.0038627823 C5.64714879,0.00137956511 5.59116246,0 5.58596334,0 C5.55999509,0 5.52346443,0.00137956511 5.47645342,0.0038903736 C5.42957924,0.0065391386 5.39302121,0.00786352111 5.3670256,0.00786352111 L5.01540082,0.0157822248 L2.04672989,0.118173547 L0.0155152726,0.165465039 L0.0467647283,0.819240943 C0.48420238,0.877072312 0.781209028,0.911313118 0.937401579,0.92174263 C1.20302195,0.937497264 1.38272,0.976980417 1.47649573,1.03991618 C1.53385025,1.08199291 1.56509971,1.11347459 1.57029883,1.13447157 C1.62234477,1.24999635 1.65091257,1.53620093 1.65622115,1.99314048 C1.67701764,2.77041506 1.70052314,3.83124544 1.72649138,5.17563164 L1.74211611,9.09072704 C1.74211611,9.76282357 1.71872006,10.2724073 1.67184588,10.6189541 C1.65102203,10.7450187 1.59626707,10.8789193 1.50774519,11.0207386 C1.26814779,11.1204536 0.947854549,11.2019307 0.546810747,11.2649216 C0.427094137,11.2805935 0.249968282,11.3121304 0.0156247278,11.3595598 L0,12.1 C1.24475174,12.0578957 1.95306362,12.0290904 2.12515453,12.0133081 C3.2396546,11.9449369 4.01580133,11.9161592 4.45326634,11.9266163 L5.99226099,11.9579876 C6.59664516,11.978957 7.11223382,11.9500413 7.53924586,11.8713785 C8.21628092,11.7453414 8.74481265,11.5876571 9.12519678,11.3986015 C9.51053377,11.2095735 9.87507426,10.9259349 10.2187635,10.5478789 C10.4794584,10.2591083 10.6641093,9.95187917 10.7734824,9.62613626 C10.924558,9.17987454 10.9999999,8.75717579 10.9999999,8.35795724 C11.0001368,7.67537602 10.7606214,7.0555926 10.2813446,6.49888289 Z M4.1641952,0.913989474 C4.57043812,0.845728593 4.90898301,0.811598152 5.17980251,0.811598152 C6.07038463,0.811598152 6.73461343,1.00857246 7.17202371,1.4024107 C7.61446894,1.79619377 7.83595151,2.28729136 7.83595151,2.87542755 C7.83595151,3.7105059 7.60426224,4.29866969 7.14074689,4.64000169 C6.67723154,4.98130609 5.98968879,5.15204107 5.07825546,5.15204107 C4.73451144,5.15204107 4.45066678,5.13369286 4.22674884,5.09694124 C4.22146762,4.91834274 4.21886806,4.71618127 4.21886806,4.49031887 L4.22674884,3.71834183 C4.23189323,2.89391372 4.2162685,2.16133706 4.17984729,1.52052907 C4.16939432,1.34725569 4.1641952,1.14520459 4.1641952,0.913989474 Z M8.07051397,10.0123041 C7.87779075,10.3903601 7.55998762,10.6871322 7.11743294,10.9025375 C6.67465935,11.1179152 6.11208705,11.2254385 5.42988024,11.2254385 C5.09653447,11.2254385 4.73193925,11.1416161 4.33612193,10.9735299 C4.27362302,10.8213087 4.2423462,10.7055632 4.24223674,10.6268176 L4.21886806,8.49985931 L4.22674884,7.13706971 L4.22674884,6.00268092 C4.36739875,5.95017467 4.63044693,5.92396293 5.01583864,5.92396293 C5.88565164,5.92396293 6.52881031,6.00800604 6.94550621,6.17600948 C7.3777721,6.34420605 7.74502161,6.67502577 8.04711793,7.16868934 C8.26063763,7.51540165 8.3673838,7.98798547 8.3673838,8.58671673 C8.36727435,9.16950021 8.26827213,9.6447328 8.07051397,10.0123041 Z" id="Shape"></path>
            </g>
        </g>
    </g>
</svg>