<?xml version="1.0" encoding="UTF-8"?>
<svg width="12px" height="12px" viewBox="0 0 12 12" version="1.1" xmlns="http://www.w3.org/2000/svg" xmlns:xlink="http://www.w3.org/1999/xlink">
    <!-- Generator: sketchtool 53 (72520) - https://sketchapp.com -->
    <title>12C54BEB-37B8-4CD2-8FC7-17F41CDC59AD</title>
    <desc>Created with sketchtool.</desc>
    <g id="Page-1" stroke="none" stroke-width="1" fill="none" fill-rule="evenodd">
        <g id="Drodown-Menu-with-Icon" transform="translate(-779.000000, -370.000000)" fill="#B2B2B2" fill-rule="nonzero">
            <g id="flaticon1552747840-svg" transform="translate(779.000000, 370.000000)">
                <path d="M11.2797821,0.720180896 C10.7996567,0.240060299 10.2214704,0 9.54540231,0 L2.45450814,0 C1.77844003,0 1.20028359,0.240060299 0.720098509,0.720180896 C0.240062687,1.20036119 0,1.77839248 0,2.45457327 L0,9.54542673 C0,10.2214583 0.240062687,10.7995791 0.720098509,11.2797893 C1.20028359,11.7599397 1.77844003,12 2.45450814,12 L9.54540231,12 C10.2214704,12 10.7994776,11.7599397 11.2798119,11.2797893 C11.7599672,10.7995791 12,10.2214881 12,9.54542673 L12,2.45457327 C11.9998806,1.77851189 11.7598179,1.20036119 11.2797821,0.720180896 Z M10.9089715,9.54542673 C10.9089715,9.92032318 10.775537,10.2413688 10.5085188,10.5085336 C10.2415005,10.7755492 9.92051145,10.908863 9.54537245,10.908863 L2.45450814,10.908863 C2.07948855,10.908863 1.75846963,10.7755492 1.49139168,10.5085336 C1.22437344,10.2413986 1.09084939,9.92032318 1.09084939,9.54542673 L1.09084939,2.45457327 C1.09084939,2.07958726 1.22437344,1.75857154 1.49139168,1.4914664 C1.75846963,1.22442096 2.07948855,1.09092809 2.45450814,1.09092809 L9.54540231,1.09092809 C9.92051145,1.09092809 10.2415005,1.22445081 10.5085486,1.4914664 C10.7755669,1.75854169 10.9090014,2.07955741 10.9090014,2.45457327 L10.9090014,9.54542673 L10.9089715,9.54542673 Z" id="Shape"></path>
            </g>
        </g>
    </g>
</svg>