<?xml version="1.0" encoding="UTF-8"?>
<svg width="13px" height="13px" viewBox="0 0 13 13" version="1.1" xmlns="http://www.w3.org/2000/svg" xmlns:xlink="http://www.w3.org/1999/xlink">
    <!-- Generator: sketchtool 53 (72520) - https://sketchapp.com -->
    <title>F689DDF4-ABAE-43D6-A7E8-CCD18666B995</title>
    <desc>Created with sketchtool.</desc>
    <g id="Page-1" stroke="none" stroke-width="1" fill="none" fill-rule="evenodd">
        <g id="Drodown-Menu-with-Icon" transform="translate(-779.000000, -210.000000)" fill="#B2B2B2" fill-rule="nonzero">
            <g id="flaticon1552747573-svg" transform="translate(779.000000, 210.000000)">
                <polygon id="Path" points="0.735849057 0.735849057 2.6 0.735849057 2.6 0 0 0 0 2.6 0.735849057 2.6"></polygon>
                <polygon id="Path" points="10.4 0 10.4 0.735849057 12.2641509 0.735849057 12.2641509 2.6 13 2.6 13 0"></polygon>
                <rect id="Rectangle" x="5.2" y="0" width="2.6" height="1"></rect>
                <rect id="Rectangle" x="5.2" y="12.1333333" width="2.6" height="1"></rect>
                <polygon id="Path" points="12.2641509 12.2641509 10.4 12.2641509 10.4 13 13 13 13 10.4 12.2641509 10.4"></polygon>
                <rect id="Rectangle" x="12.1333333" y="5.2" width="1" height="2.6"></rect>
                <rect id="Rectangle" x="0" y="5.2" width="1" height="2.6"></rect>
                <path d="M0.87663749,9.99693346 L0,13 L3.00306654,12.1233364 L8.66666667,6.45973623 L6.54028992,4.33333333 L0.87663749,9.99693346 Z M2.59037435,11.4265816 L1.15413651,11.8458635 L1.57339223,10.4096256 L5.25192777,6.7310901 L6.2689099,7.74807223 L2.59037435,11.4265816 Z M6.82362028,7.19336184 L5.80666431,6.17637972 L6.54028992,5.44278026 L7.55727204,6.45976238 L6.82362028,7.19336184 Z" id="Shape"></path>
            </g>
        </g>
    </g>
</svg>