<?xml version="1.0" encoding="UTF-8"?>
<svg width="14px" height="14px" viewBox="0 0 14 14" version="1.1" xmlns="http://www.w3.org/2000/svg" xmlns:xlink="http://www.w3.org/1999/xlink">
    <!-- Generator: sketchtool 53 (72520) - https://sketchapp.com -->
    <title>61B6E657-99A6-41C9-A5AB-D9B16280C354</title>
    <desc>Created with sketchtool.</desc>
    <g id="Page-1" stroke="none" stroke-width="1" fill="none" fill-rule="evenodd">
        <g id="Drodown-Menu-with-Icon" transform="translate(-261.000000, -289.000000)" fill="#B2B2B2" fill-rule="nonzero">
            <g id="flaticon1552746253-svg" transform="translate(261.000000, 289.000000)">
                <path d="M11.9497656,9.05023438 C11.1873398,8.28783594 10.2798555,7.72343359 9.28973828,7.38177344 C10.3501836,6.65139453 11.046875,5.42904688 11.046875,4.046875 C11.046875,1.81543359 9.23144141,0 7,0 C4.76855859,0 2.953125,1.81543359 2.953125,4.046875 C2.953125,5.42904688 3.64981641,6.65139453 4.71028906,7.38177344 C3.72017187,7.72343359 2.8126875,8.28783594 2.05026172,9.05023438 C0.728136719,10.3723867 0,12.1302344 0,14 L1.09375,14 C1.09375,10.7432773 3.74327734,8.09375 7,8.09375 C10.2567227,8.09375 12.90625,10.7432773 12.90625,14 L14,14 C14,12.1302344 13.2718633,10.3723867 11.9497656,9.05023438 Z M7,7 C5.37165234,7 4.046875,5.67525 4.046875,4.046875 C4.046875,2.4185 5.37165234,1.09375 7,1.09375 C8.62834766,1.09375 9.953125,2.4185 9.953125,4.046875 C9.953125,5.67525 8.62834766,7 7,7 Z" id="Shape"></path>
            </g>
        </g>
    </g>
</svg>