<?xml version="1.0" encoding="UTF-8"?>
<svg width="8px" height="14px" viewBox="0 0 8 14" version="1.1" xmlns="http://www.w3.org/2000/svg" xmlns:xlink="http://www.w3.org/1999/xlink">
    <!-- Generator: sketchtool 53 (72520) - https://sketchapp.com -->
    <title>91E23393-127A-49A3-9624-A1D65C23A48D</title>
    <desc>Created with sketchtool.</desc>
    <g id="Page-1" stroke="none" stroke-width="1" fill="none" fill-rule="evenodd">
        <g id="Drodown-Menu-with-Icon" transform="translate(-438.000000, -289.000000)" fill="#B2B2B2" fill-rule="nonzero">
            <g id="flaticon1552746502-svg" transform="translate(438.000000, 289.000000)">
                <path d="M0.900321543,13.8551724 L4,10.9224138 L7.09967846,13.8551724 C7.20257235,13.9517241 7.33118971,14 7.47266881,14 C7.53697749,14 7.60128617,13.987931 7.67845659,13.9637931 C7.87138264,13.8913793 8,13.7103448 8,13.5051724 L8,0.494827586 C8,0.217241379 7.76848875,0 7.47266881,0 L0.52733119,0 C0.231511254,0 0,0.217241379 0,0.494827586 L0,13.5051724 C0,13.7103448 0.128617363,13.8793103 0.321543408,13.9637931 C0.52733119,14.0362069 0.758842444,14 0.900321543,13.8551724 Z M1.05466238,0.989655172 L6.93247588,0.989655172 L6.93247588,12.3103448 L4.36012862,9.87241379 C4.25723473,9.77586207 4.12861736,9.72758621 3.98713826,9.72758621 C3.84565916,9.72758621 3.7170418,9.77586207 3.61414791,9.87241379 L1.04180064,12.3103448 L1.04180064,0.989655172 L1.05466238,0.989655172 Z" id="Shape"></path>
            </g>
        </g>
    </g>
</svg>