<?xml version="1.0" encoding="UTF-8"?>
<svg width="15px" height="13px" viewBox="0 0 15 13" version="1.1" xmlns="http://www.w3.org/2000/svg" xmlns:xlink="http://www.w3.org/1999/xlink">
    <!-- Generator: sketchtool 53 (72520) - https://sketchapp.com -->
    <title>8CE8B698-BB74-41A4-A806-B978F994D1EC</title>
    <desc>Created with sketchtool.</desc>
    <g id="Page-1" stroke="none" stroke-width="1" fill="none" fill-rule="evenodd">
        <g id="Drodown-Menu-with-Icon" transform="translate(-434.000000, -249.000000)" fill="#B2B2B2" fill-rule="nonzero">
            <g id="flaticon1552746457-svg" transform="translate(434.000000, 249.000000)">
                <path d="M14.8067482,10.8825573 L8.65399147,0.65332878 C8.41158901,0.250347248 7.96941108,0 7.49998704,0 C7.03056299,0 6.58838506,0.250347248 6.34595331,0.65335815 L0.193225903,10.8825573 C-0.057291789,11.2990782 -0.0647039018,11.8209189 0.17386066,12.2444298 C0.412483815,12.6679408 0.862073863,12.9310345 1.34723033,12.9310345 L13.6527437,12.9310345 C14.1379002,12.9310345 14.5875196,12.6679408 14.8261427,12.2444005 C15.0647073,11.8208602 15.0572952,11.2990195 14.8067482,10.8825573 Z M13.9757712,11.7630019 C13.9100876,11.8795702 13.7863083,11.9520252 13.6527437,11.9520252 L1.34723033,11.9520252 C1.21366582,11.9520252 1.08988647,11.8795995 1.02423214,11.7630312 C0.958548516,11.6464336 0.960599299,11.502757 1.02953488,11.3881271 L7.18232088,1.15889864 C7.24905919,1.04796932 7.37078776,0.979038656 7.50001633,0.979038656 C7.62921561,0.979038656 7.75094418,1.04796932 7.81768249,1.15889864 L13.9704099,11.3881271 C14.0394041,11.5027864 14.0414549,11.6464336 13.9757712,11.7630019 Z" id="Shape"></path>
                <path d="M7.76218485,4.13793103 C7.46967004,4.13793103 7.24137931,4.3371849 7.24137931,4.69041831 C7.24137931,5.76815799 7.34124497,7.31685603 7.34124497,8.394625 C7.34126804,8.6753785 7.53391718,8.79310345 7.76220792,8.79310345 C7.93342597,8.79310345 8.17599641,8.6753785 8.17599641,8.394625 C8.17599641,7.31688532 8.27586207,5.76818728 8.27586207,4.69041831 C8.27586207,4.33721419 8.04044302,4.13793103 7.76218485,4.13793103 Z" id="Path"></path>
                <path d="M7.50506649,9.31034483 C7.05885439,9.31034483 6.72413793,9.66299163 6.72413793,10.0862069 C6.72413793,10.4993223 7.0588216,10.862069 7.50506649,10.862069 C7.92087963,10.862069 8.27586207,10.4993223 8.27586207,10.0862069 C8.27586207,9.66299163 7.92084684,9.31034483 7.50506649,9.31034483 Z" id="Path"></path>
            </g>
        </g>
    </g>
</svg>