<?xml version="1.0" encoding="UTF-8"?>
<svg width="16px" height="14px" viewBox="0 0 16 14" version="1.1" xmlns="http://www.w3.org/2000/svg" xmlns:xlink="http://www.w3.org/1999/xlink">
    <!-- Generator: sketchtool 53 (72520) - https://sketchapp.com -->
    <title>7F2694D4-B04A-401E-8109-F59420D676DD</title>
    <desc>Created with sketchtool.</desc>
    <g id="Page-1" stroke="none" stroke-width="1" fill="none" fill-rule="evenodd">
        <g id="Drodown-Menu-with-Icon" transform="translate(-605.000000, -330.000000)" fill="#B2B2B2" fill-rule="nonzero">
            <g id="flaticon1552747618-svg" transform="translate(605.000000, 330.000000)">
                <path d="M3.125,5.98930481 C1.40185547,5.98930481 0,4.64592246 0,2.99465241 C0,1.34338235 1.40185547,0 3.125,0 C4.84814453,0 6.25,1.34338235 6.25,2.99465241 C6.25,4.64592246 4.84814453,5.98930481 3.125,5.98930481 Z M3.125,1.19786096 C2.09106444,1.19786096 1.25,2.00384357 1.25,2.99465241 C1.25,3.98546124 2.09106444,4.79144385 3.125,4.79144385 C4.15893556,4.79144385 5,3.98546124 5,2.99465241 C5,2.00384357 4.15893556,1.19786096 3.125,1.19786096 Z M16,2.39572193 L7.5,2.39572193 L7.5,3.59358289 L16,3.59358289 L16,2.39572193 Z M3.125,2.39572193 C2.7803955,2.39572193 2.5,2.66442178 2.5,2.99465241 C2.5,3.32488303 2.7803955,3.59358289 3.125,3.59358289 C3.4696045,3.59358289 3.75,3.32488303 3.75,2.99465241 C3.75,2.66442178 3.4696045,2.39572193 3.125,2.39572193 Z M3.125,13.1764706 C1.40185547,13.1764706 0,11.8330882 0,10.1818182 C0,8.53054813 1.40185547,7.18716578 3.125,7.18716578 C4.84814453,7.18716578 6.25,8.53054813 6.25,10.1818182 C6.25,11.8330882 4.84814453,13.1764706 3.125,13.1764706 Z M3.125,8.38502674 C2.09106444,8.38502674 1.25,9.19100934 1.25,10.1818182 C1.25,11.172627 2.09106444,11.9786096 3.125,11.9786096 C4.15893556,11.9786096 5,11.172627 5,10.1818182 C5,9.19100934 4.15893556,8.38502674 3.125,8.38502674 Z M16,9.5828877 L7.5,9.5828877 L7.5,10.7807487 L16,10.7807487 L16,9.5828877 Z" id="Shape"></path>
            </g>
        </g>
    </g>
</svg>