<?xml version="1.0" encoding="UTF-8"?>
<svg width="16px" height="16px" viewBox="0 0 16 16" version="1.1" xmlns="http://www.w3.org/2000/svg" xmlns:xlink="http://www.w3.org/1999/xlink">
    <!-- Generator: sketchtool 53 (72520) - https://sketchapp.com -->
    <title>F59E77AE-4EB0-46A5-9EDB-359970F7D75A</title>
    <desc>Created with sketchtool.</desc>
    <g id="Page-1" stroke="none" stroke-width="1" fill="none" fill-rule="evenodd">
        <g id="Drodown-Menu-with-Icon" transform="translate(-259.000000, -249.000000)" fill="#B2B2B2">
            <path d="M265.904032,264.89081 L265.855979,264.89081 C265.581331,264.871563 265.344753,264.690087 265.255001,264.429805 C265.165248,264.169524 265.239688,263.880799 265.4441,263.69636 L272.741229,256.399231 C272.882225,256.258148 272.954886,256.062714 272.940304,255.863788 L272.549018,250.770213 L267.455444,250.378928 C267.256517,250.364345 267.061084,250.437006 266.920001,250.578003 L260.570194,256.927809 C260.304035,257.195557 260.304035,257.627978 260.570194,257.895726 L264.407537,261.733068 C264.640782,262.005431 264.6251,262.41143 264.371541,262.664989 C264.117981,262.918548 263.711982,262.93423 263.43962,262.700985 L259.602278,258.863642 C258.799241,258.059606 258.799241,256.757065 259.602278,255.953028 L265.952084,249.603222 C266.376943,249.178344 266.966171,248.960205 267.565278,249.005997 L273.249213,249.445335 C273.586621,249.471402 273.854694,249.739475 273.880761,250.076883 L274.320099,255.760818 C274.365891,256.359925 274.147752,256.949153 273.722874,257.374012 L266.405151,264.691735 C266.272256,264.823666 266.091232,264.89558 265.904032,264.89081 L265.904032,264.89081 Z M270.757343,255.465638 C271.451668,254.770448 271.558191,253.681588 271.011762,252.865015 C270.465334,252.048443 269.418158,251.731608 268.510696,252.10829 C267.603235,252.484972 267.088256,253.450248 267.280726,254.413748 C267.473195,255.377247 268.319501,256.070592 269.302036,256.069727 C269.855167,256.074749 270.387064,255.857043 270.777937,255.465638 L270.757343,255.465638 Z M269.789427,253.52294 C270.021865,253.753491 270.059149,254.116098 269.878492,254.389125 C269.697834,254.662152 269.349513,254.76961 269.046435,254.645818 C268.743357,254.522025 268.569873,254.201436 268.632022,253.880004 C268.694171,253.558572 268.974657,253.325758 269.302036,253.323865 C269.484501,253.32281 269.659878,253.394443 269.789427,253.52294 L269.789427,253.52294 Z" id="Price"></path>
        </g>
    </g>
</svg>