<?xml version="1.0" encoding="UTF-8"?>
<svg width="14px" height="11px" viewBox="0 0 14 11" version="1.1" xmlns="http://www.w3.org/2000/svg" xmlns:xlink="http://www.w3.org/1999/xlink">
    <!-- Generator: sketchtool 53 (72520) - https://sketchapp.com -->
    <title>B0C99F10-5787-4A64-A6A4-9223C6D733DF</title>
    <desc>Created with sketchtool.</desc>
    <g id="Page-1" stroke="none" stroke-width="1" fill="none" fill-rule="evenodd">
        <g id="Drodown-Menu-with-Icon" transform="translate(-261.000000, -331.000000)" fill="#A4A4A4" fill-rule="nonzero">
            <g id="flaticon1552746297-svg" transform="translate(261.000000, 331.000000)">
                <path d="M13.4344766,5 L0.565523438,5 C0.253203125,5 0,5.22384199 0,5.5 C0,5.77615801 0.253203125,6 0.565523438,6 L13.4344766,6 C13.7468242,6 14,5.77615801 14,5.5 C14,5.22386616 13.7468242,5 13.4344766,5 Z" id="Path"></path>
                <path d="M13.4344766,0 L0.565523438,0 C0.253203125,0 0,0.223866164 0,0.5 C0,0.776133836 0.253203125,1 0.565523438,1 L13.4344766,1 C13.7468242,1 14,0.776133836 14,0.5 C14,0.223866164 13.7468242,0 13.4344766,0 Z" id="Path"></path>
                <path d="M13.4344766,10 L0.565523438,10 C0.253203125,10 0,10.223842 0,10.5 C0,10.776158 0.253203125,11 0.565523438,11 L13.4344766,11 C13.7468242,11 14,10.776158 14,10.5 C14,10.223842 13.7468242,10 13.4344766,10 Z" id="Path"></path>
            </g>
        </g>
    </g>
</svg>