<?xml version="1.0" encoding="UTF-8"?>
<svg width="13px" height="13px" viewBox="0 0 13 13" version="1.1" xmlns="http://www.w3.org/2000/svg" xmlns:xlink="http://www.w3.org/1999/xlink">
    <!-- Generator: sketchtool 53 (72520) - https://sketchapp.com -->
    <title>4B7654C1-9390-4E39-A349-EE1AB77D81A8</title>
    <desc>Created with sketchtool.</desc>
    <g id="Page-1" stroke="none" stroke-width="1" fill="none" fill-rule="evenodd">
        <g id="Drodown-Menu-with-Icon" transform="translate(-436.000000, -330.000000)" fill="#B2B2B2" fill-rule="nonzero">
            <g id="flaticon1552746522-svg" transform="translate(436.000000, 330.000000)">
                <path d="M0.473777778,6.06666667 L5.59288889,6.06666667 C5.85866667,6.06666667 6.06666667,5.85866667 6.06666667,5.59288889 L6.06666667,0.473777778 C6.06666667,0.208 5.85866667,0 5.59288889,0 L0.473777778,0 C0.208,0 0,0.208 0,0.473777778 L0,5.59288889 C0,5.84711111 0.219555556,6.06666667 0.473777778,6.06666667 Z M0.947555556,0.947555556 L5.11911111,0.947555556 L5.11911111,5.11911111 L0.947555556,5.11911111 L0.947555556,0.947555556 Z" id="Shape"></path>
                <path d="M13,0.473777778 C13,0.208 12.792,0 12.5262222,0 L7.40711111,0 C7.14133333,0 6.93333333,0.208 6.93333333,0.473777778 L6.93333333,5.59288889 C6.93333333,5.85866667 7.14133333,6.06666667 7.40711111,6.06666667 L12.5262222,6.06666667 C12.792,6.06666667 13,5.85866667 13,5.59288889 L13,0.473777778 Z M12.0524444,5.11911111 L7.88088889,5.11911111 L7.88088889,0.947555556 L12.0524444,0.947555556 L12.0524444,5.11911111 L12.0524444,5.11911111 Z" id="Shape"></path>
                <path d="M0.473777778,13 L5.59288889,13 C5.85866667,13 6.06666667,12.792 6.06666667,12.5262222 L6.06666667,7.40711111 C6.06666667,7.14133333 5.85866667,6.93333333 5.59288889,6.93333333 L0.473777778,6.93333333 C0.208,6.93333333 0,7.14133333 0,7.40711111 L0,12.5262222 C0,12.7804444 0.219555556,13 0.473777778,13 Z M0.947555556,7.88088889 L5.11911111,7.88088889 L5.11911111,12.0524444 L0.947555556,12.0524444 L0.947555556,7.88088889 L0.947555556,7.88088889 Z" id="Shape"></path>
                <path d="M12.5262222,6.93333333 L7.40711111,6.93333333 C7.14133333,6.93333333 6.93333333,7.14133333 6.93333333,7.40711111 L6.93333333,12.5262222 C6.93333333,12.792 7.14133333,13 7.40711111,13 L12.5262222,13 C12.792,13 13,12.792 13,12.5262222 L13,7.40711111 C13,7.15288889 12.7804444,6.93333333 12.5262222,6.93333333 Z M12.0524444,12.0524444 L7.88088889,12.0524444 L7.88088889,7.88088889 L12.0524444,7.88088889 L12.0524444,12.0524444 L12.0524444,12.0524444 Z" id="Shape"></path>
            </g>
        </g>
    </g>
</svg>