<?xml version="1.0" encoding="UTF-8"?>
<svg width="17px" height="15px" viewBox="0 0 17 15" version="1.1" xmlns="http://www.w3.org/2000/svg" xmlns:xlink="http://www.w3.org/1999/xlink">
    <!-- Generator: sketchtool 53 (72520) - https://sketchapp.com -->
    <title>4DCCF5F1-3B43-489A-892C-6328CE16D368</title>
    <desc>Created with sketchtool.</desc>
    <g id="Page-1" stroke="none" stroke-width="1" fill="none" fill-rule="evenodd">
        <g id="Drodown-Menu-with-Icon" transform="translate(-261.000000, -370.000000)" fill="#B2B2B2" fill-rule="nonzero">
            <g id="flaticon1552746352-svg" transform="translate(261.000000, 370.000000)">
                <path d="M7.28613031,14.7333333 C3.2685478,14.7333333 0,11.428797 0,7.3667569 C0,3.30471677 3.2685478,0 7.28613031,0 C10.7215864,0 13.6661356,2.40697447 14.3998184,5.76655929 C14.9687349,5.87701728 15.6742128,5.85174915 16.2249212,5.31191256 C16.3663024,5.17329855 16.5796238,5.14171332 16.7542082,5.2337617 C16.9287925,5.32581004 17.0255458,5.52055552 16.9941278,5.71710583 C16.6892299,7.63044838 15.2595303,8.75343845 14.3187741,9.29688478 C13.9160519,10.7974536 13.0367037,12.1516475 11.8271089,13.1277211 C10.5252237,14.1781554 8.95503544,14.7333333 7.28613031,14.7333333 Z M7.28613031,0.924093379 C3.77248607,0.924093379 0.913979498,3.81423151 0.913979498,7.3667569 C0.913979498,10.9192823 3.77248607,13.8094204 7.28613031,13.8094204 C10.2424612,13.8094204 12.7898221,11.7827321 13.4808406,8.88068176 C13.5115445,8.7523555 13.595088,8.64316088 13.7104065,8.58107336 C14.3021725,8.26251384 15.2218644,7.63676544 15.7425828,6.62982852 C15.1865191,6.79064244 14.556016,6.78107664 13.8869545,6.59318965 C13.717547,6.54572161 13.5900897,6.40403929 13.5593857,6.22896693 C13.0176029,3.15509303 10.3795582,0.924093379 7.28613031,0.924093379 Z" id="Shape"></path>
                <path d="M9.75892264,6.8 L3.84107736,6.8 C3.59745101,6.8 3.4,6.54632815 3.4,6.23333333 C3.4,5.92033851 3.59745101,5.66666667 3.84107736,5.66666667 L9.75892264,5.66666667 C10.0023767,5.66666667 10.2,5.92033851 10.2,6.23333333 C10.2,6.54632815 10.0023767,6.8 9.75892264,6.8 Z" id="Path"></path>
                <path d="M7.51743119,10.0666667 L3.81590214,10.0666667 C3.58618117,10.0666667 3.4,9.81299482 3.4,9.5 C3.4,9.18700518 3.58618117,8.93333333 3.81590214,8.93333333 L7.51743119,8.93333333 C7.74715216,8.93333333 7.93333333,9.18700518 7.93333333,9.5 C7.93333333,9.81299482 7.74715216,10.0666667 7.51743119,10.0666667 Z" id="Path"></path>
            </g>
        </g>
    </g>
</svg>