<?xml version="1.0" encoding="UTF-8"?>
<svg width="15px" height="15px" viewBox="0 0 15 15" version="1.1" xmlns="http://www.w3.org/2000/svg" xmlns:xlink="http://www.w3.org/1999/xlink">
    <!-- Generator: sketchtool 53 (72520) - https://sketchapp.com -->
    <title>07570231-6157-4333-B7F3-E9F5A1E66CCF</title>
    <desc>Created with sketchtool.</desc>
    <g id="Page-1" stroke="none" stroke-width="1" fill="none" fill-rule="evenodd">
        <g id="Drodown-Menu-with-Icon" transform="translate(-777.000000, -288.000000)" fill="#B2B2B2" fill-rule="nonzero">
            <g id="flaticon1552747765-svg" transform="translate(777.000000, 288.000000)">
                <path d="M7.5,0 C3.35768555,0 0,3.35768555 0,7.5 C0,11.6423145 3.35768555,15 7.5,15 C11.6423145,15 15,11.6423145 15,7.5 C15,3.35768555 11.6423145,0 7.5,0 Z M7.5,13.828125 C4.0049707,13.828125 1.171875,10.9950293 1.171875,7.5 C1.171875,4.0049707 4.0049707,1.171875 7.5,1.171875 C10.9950293,1.171875 13.828125,4.0049707 13.828125,7.5 C13.828125,10.9950293 10.9950293,13.828125 7.5,13.828125 Z" id="Shape"></path>
                <path d="M8.40596544,5.67348633 C8.40596544,5.5444043 8.37666911,5.41576172 8.30937545,5.28711914 C8.24621257,5.15709961 8.15876304,5.04175781 8.05484897,4.93737305 C7.9509349,4.83392578 7.82229474,4.75060547 7.67261981,4.6865332 C7.52294488,4.62152344 7.36451035,4.58856445 7.19564633,4.58856445 C6.89445081,4.58856445 6.65316627,4.66227539 6.46736897,4.80829102 C6.28245056,4.95477539 6.13412327,5.14611328 6.02517023,5.38324219 C5.91712538,5.62037109 5.83931434,5.88495117 5.79446167,6.17791992 C5.75004844,6.46998047 5.72488289,6.75744141 5.71571314,7.04217773 L5.75280229,7.04217773 C6.1720913,6.61280273 6.62574491,6.39673828 7.11739585,6.39673828 C7.43051497,6.39673828 7.72576335,6.45670898 8.00589481,6.57708984 C8.28239353,6.69793945 8.52224255,6.86639648 8.72224857,7.08199219 C8.92644396,7.29530273 9.08432186,7.55487305 9.2019759,7.85516602 C9.31828231,8.15683594 9.375,8.48276367 9.375,8.83432617 C9.375,9.16303711 9.32097758,9.47610352 9.21706351,9.76866211 C9.11361818,10.0616309 8.96347451,10.3143164 8.77029454,10.5331348 C8.57708527,10.7528613 8.34271467,10.9277344 8.06302265,11.0586621 C7.78699267,11.185459 7.47434228,11.25 7.1273566,11.25 C6.7565823,11.25 6.420114,11.1749414 6.11754155,11.0174414 C5.81725421,10.8631348 5.56044262,10.6420898 5.35126685,10.3550684 C5.1411536,10.0643848 4.97911563,9.71373047 4.86236977,9.30175781 C4.74518447,8.89022461 4.6875,8.42103516 4.6875,7.89503906 C4.6875,7.14477539 4.74518447,6.50660156 4.86236977,5.9765625 C4.97955507,5.44831055 5.14710076,5.0202832 5.36497753,4.69207031 C5.58379179,4.36567383 5.84561305,4.12719727 6.15231628,3.97658203 C6.4599277,3.82643555 6.80140568,3.75 7.18222861,3.75 C7.48069958,3.75 7.75901467,3.80402344 8.01304311,3.91113281 C8.26756959,4.02008789 8.48635455,4.16334961 8.66670273,4.34373047 C8.84661147,4.52545898 8.99490947,4.73144531 9.10477069,4.9630957 C9.21006169,5.19609375 9.27272653,5.43366211 9.29103673,5.67354492 L8.40596544,5.67348633 L8.40596544,5.67348633 Z M7.123343,10.4136328 C7.55774892,10.4136328 7.88229361,10.2621094 8.09012175,9.96776367 C8.30205137,9.66837891 8.40596544,9.30172852 8.40596544,8.86227539 C8.40596544,8.64849609 8.37942296,8.44388672 8.32859384,8.24885742 C8.27504016,8.05614258 8.19309833,7.88402344 8.08370585,7.73387695 C7.97797541,7.58323242 7.84291935,7.46288086 7.68454341,7.37179687 C7.52660692,7.28024414 7.34397363,7.23629883 7.13386038,7.23629883 C6.8761406,7.23629883 6.6568869,7.28756836 6.48110895,7.39010742 C6.30257714,7.49355469 6.15884937,7.62495117 6.04898814,7.78514648 C5.94188078,7.94308594 5.86313225,8.11790039 5.81918777,8.30654297 C5.77615146,8.49650391 5.75280229,8.68054687 5.75280229,8.86227539 C5.75280229,9.32964844 5.87684293,9.70365234 6.12770737,9.98838867 C6.37857181,10.2689941 6.70906366,10.4136328 7.123343,10.4136328 Z" id="Shape"></path>
            </g>
        </g>
    </g>
</svg>