<?xml version="1.0" encoding="UTF-8"?>
<svg width="15px" height="15px" viewBox="0 0 15 15" version="1.1" xmlns="http://www.w3.org/2000/svg" xmlns:xlink="http://www.w3.org/1999/xlink">
    <!-- Generator: sketchtool 53 (72520) - https://sketchapp.com -->
    <title>5077D522-DA09-4F0A-9845-749DAF5FD9C4</title>
    <desc>Created with sketchtool.</desc>
    <g id="Page-1" stroke="none" stroke-width="1" fill="none" fill-rule="evenodd">
        <g id="Drodown-Menu-with-Icon" transform="translate(-777.000000, -250.000000)" fill="#B2B2B2">
            <path d="M784.75296,264.291102 L784.514764,264.291102 C783.864029,264.203625 783.347194,263.700609 783.242117,263.052483 L782.643224,258.880649 C782.586474,258.482162 782.702887,258.078432 782.963087,257.771336 L784.821016,255.579932 C785.063448,255.292397 785.493071,255.255833 785.780606,255.498265 C786.068141,255.740697 786.104705,256.17032 785.862273,256.457855 L784.004344,258.649259 L784.589626,262.834704 C784.60212,262.892856 784.652674,262.934984 784.712127,262.936788 C784.795513,262.95251 784.878321,262.906823 784.909489,262.827898 L790.524111,251.59185 C790.5546,251.5337 790.545559,251.462702 790.501468,251.41405 C790.457377,251.365398 790.387609,251.349433 790.326748,251.37407 L778.485001,255.858962 C778.405109,255.883655 778.351965,255.959176 778.355695,256.042713 C778.354369,256.108423 778.400186,256.165694 778.464584,256.178825 L780.941823,256.750496 C781.178885,256.805202 781.368754,256.982225 781.439908,257.21488 C781.511062,257.447535 781.45269,257.700477 781.286782,257.878426 C781.120874,258.056375 780.872633,258.132295 780.635571,258.077588 L778.117498,257.492306 C777.477288,257.321817 777.024035,256.752487 777.00138,256.090352 C776.973139,255.422982 777.380756,254.81431 778.008609,254.586314 L789.850356,250.101423 C790.43653,249.875722 791.101169,250.034441 791.522112,250.500647 C791.943055,250.966852 792.033306,251.644195 791.749119,252.204354 L786.154914,263.447208 C785.889681,263.975551 785.344,264.304019 784.75296,264.291102 Z" id="Subscribe"></path>
        </g>
    </g>
</svg>