<?xml version="1.0" encoding="UTF-8"?>
<svg width="14px" height="14px" viewBox="0 0 14 14" version="1.1" xmlns="http://www.w3.org/2000/svg" xmlns:xlink="http://www.w3.org/1999/xlink">
    <!-- Generator: sketchtool 53 (72520) - https://sketchapp.com -->
    <title>A7EB585F-E864-4E14-8699-F87F44EDA4D1</title>
    <desc>Created with sketchtool.</desc>
    <g id="Page-1" stroke="none" stroke-width="1" fill="none" fill-rule="evenodd">
        <g id="Drodown-Menu-with-Icon" transform="translate(-605.000000, -210.000000)" fill="#B2B2B2" fill-rule="nonzero">
            <g id="flaticon1552746712-svg" transform="translate(605.000000, 210.000000)">
                <path d="M10.8207452,7.42280408 L10.8207452,1.12753128 L1.15937858,1.12753128 L1.15937858,12.872501 L5.60359132,12.872501 C5.92242291,12.872501 6.18326403,13.126177 6.18326403,13.4362505 C6.18326403,13.746324 5.92242291,14 5.60359132,14 L0.579672714,14 C0.260841116,14 0,13.746324 0,13.4362505 L0,0.563749516 C-2.94487671e-17,0.253675996 0.260874273,0 0.579672714,0 L11.4003848,0 C11.7192164,0 11.9800575,0.253675996 11.9800575,0.563749516 L11.9800575,7.42280408 C11.9800575,7.7328776 11.7192164,7.98655359 11.4003848,7.98655359 C11.0815532,7.98655359 10.8207452,7.7328776 10.8207452,7.42280408 Z M13.8061111,8.79462789 C13.564567,8.58790146 13.1974597,8.60670063 12.9848943,8.8416097 L9.80629309,12.2805366 L8.21216826,10.7865665 C7.98030581,10.5704566 7.61316539,10.5798401 7.39095144,10.8053657 C7.16873748,11.0308913 7.17838599,11.3879144 7.4102816,11.6040242 L9.43915267,13.5019992 C9.54541882,13.6053463 9.69034529,13.6617438 9.84492026,13.6617438 C9.85456876,13.6617438 9.85456876,13.6617438 9.86425042,13.6617438 C10.0188254,13.6523604 10.1734004,13.5865794 10.270018,13.4738166 L13.8447382,9.60266993 C14.0669522,9.3583774 14.047622,9.00135431 13.8061111,8.79462789 Z M8.69522333,3.28859796 L3.47810259,3.28859796 C3.159271,3.28859796 2.89842988,3.54227396 2.89842988,3.85234748 C2.89842988,4.162421 3.159271,4.41609699 3.47810259,4.41609699 L8.69522333,4.41609699 C9.01405493,4.41609699 9.27489604,4.162421 9.27489604,3.85234748 C9.27489604,3.54227396 9.01405493,3.28859796 8.69522333,3.28859796 Z M9.2749292,6.95301819 C9.2749292,6.64294467 9.01408808,6.38926867 8.69525649,6.38926867 L3.47810259,6.38926867 C3.159271,6.38926867 2.89842988,6.64294467 2.89842988,6.95301819 C2.89842988,7.26309171 3.159271,7.5167677 3.47810259,7.5167677 L8.69522333,7.5167677 C9.01405493,7.5167677 9.2749292,7.26309171 9.2749292,6.95301819 Z M3.47810259,9.39597575 C3.159271,9.39597575 2.89842988,9.64965175 2.89842988,9.95972527 C2.89842988,10.2697988 3.159271,10.5234748 3.47810259,10.5234748 L5.0239186,10.5234748 C5.3427502,10.5234748 5.60359132,10.2697988 5.60359132,9.95972527 C5.60359132,9.64965175 5.3427502,9.39597575 5.0239186,9.39597575 L3.47810259,9.39597575 Z" id="Shape"></path>
            </g>
        </g>
    </g>
</svg>