<svg id="Icon" xmlns="http://www.w3.org/2000/svg" width="37" height="49" viewBox="0 0 37 49">
  <defs>
    <style>
      .cls-1 {
        fill: #ff7c7c;
        fill-rule: evenodd;
      }
    </style>
  </defs>
  <path id="Document" class="cls-1" d="M1020.83,4497a6.146,6.146,0,0,0,6.17-6.13v-28.93a6.061,6.061,0,0,0-1.81-4.32l-7.87-7.82a6.185,6.185,0,0,0-4.36-1.8H996.166a6.143,6.143,0,0,0-6.166,6.12v40.84a2.056,2.056,0,0,0,4.111,0v-40.84a2.052,2.052,0,0,1,2.055-2.04h16.794a2.049,2.049,0,0,1,1.46.6l7.87,7.81a2.043,2.043,0,0,1,.6,1.45v28.93a2.055,2.055,0,0,1-2.06,2.05h-20.55a2.04,2.04,0,1,0,0,4.08h20.55Z" transform="translate(-990 -4448)"/>
</svg>
