<svg id="Bg_Icon" data-name="Bg Icon" xmlns="http://www.w3.org/2000/svg" width="215" height="179" viewBox="0 0 215 179">
  <defs>
    <style>
      .cls-1 {
        fill: #f2f6ff;
        fill-rule: evenodd;
      }
    </style>
  </defs>
  <path id="Path" class="cls-1" d="M1306.38,8008.67a48.326,48.326,0,0,1,4.7,37.89c-6.17,21.45-26.47,36.44-49.35,36.44a1.77,1.77,0,0,1-.23-0.01c-18.55-.7-32.96-7.74-42.84-20.93-17.66-23.58-15.56-61.03-8.39-85.94,12.21-42.47,41.15-72.12,70.37-72.12a41.191,41.191,0,0,1,5.44.36,5.821,5.821,0,0,1,4.05,2.48,5.483,5.483,0,0,1,.73,4.6l-5.32,18.5a5.725,5.725,0,0,1-4.71,4.05c-24.35,3.52-36.57,34.76-41.66,52.87a51.989,51.989,0,0,1,20.24-4.03,59.958,59.958,0,0,1,16.14,2.29A51.145,51.145,0,0,1,1306.38,8008.67Z" transform="translate(-1205 -7904)"/>
  <path id="Path-2" data-name="Path" class="cls-1" d="M1418.09,8046.56c-6.18,21.45-26.48,36.44-49.36,36.44a1.77,1.77,0,0,1-.23-0.01c-18.55-.7-32.96-7.74-42.84-20.93-17.66-23.58-15.56-61.03-8.39-85.94,12.21-42.47,41.15-72.12,70.37-72.12a41.078,41.078,0,0,1,5.44.36,5.821,5.821,0,0,1,4.05,2.48,5.483,5.483,0,0,1,.73,4.6l-5.32,18.5a5.725,5.725,0,0,1-4.71,4.05c-24.35,3.52-36.57,34.76-41.66,52.87a51.989,51.989,0,0,1,20.24-4.03,59.958,59.958,0,0,1,16.14,2.29,51.173,51.173,0,0,1,30.83,23.55A48.372,48.372,0,0,1,1418.09,8046.56Z" transform="translate(-1205 -7904)"/>
</svg>
