<svg id="Icon" xmlns="http://www.w3.org/2000/svg" width="65" height="52.63" viewBox="0 0 65 52.63">
  <defs>
    <style>
      .cls-1, .cls-2 {
        fill: #e1a34c;
      }

      .cls-2 {
        fill-rule: evenodd;
      }
    </style>
  </defs>
  <circle id="Oval" class="cls-1" cx="35.61" cy="38.705" r="1.547"/>
  <circle id="Oval-2" data-name="Oval" class="cls-1" cx="10.828" cy="46.955" r="1.547"/>
  <path id="Shape" class="cls-2" d="M414,4207.38v35.08a4.32,4.32,0,0,1-4.411,4.39H391.946v4.38a1.382,1.382,0,0,0,1.471,1.46h1.47a1.465,1.465,0,1,1,0,2.93H374.3a1.465,1.465,0,1,1,0-2.93h1.47a1.382,1.382,0,0,0,1.47-1.46v-4.38H374.3a1.46,1.46,0,1,1,0-2.92h35.286a1.39,1.39,0,0,0,1.47-1.47v-35.08a1.387,1.387,0,0,0-1.47-1.46H359.6a1.387,1.387,0,0,0-1.47,1.46V4222a1.471,1.471,0,0,1-2.941,0v-14.62A4.319,4.319,0,0,1,359.6,4203h49.988A4.319,4.319,0,0,1,414,4207.38Zm-24.7,45.31a4.224,4.224,0,0,1-.294-1.46v-4.38h-8.822v4.38a4.224,4.224,0,0,1-.294,1.46h9.41Z" transform="translate(-349 -4203)"/>
  <path id="Shape-2" data-name="Shape" class="cls-2" d="M406.778,4237.56a1.425,1.425,0,0,1-1.462,1.55H373.16a1.547,1.547,0,0,1,0-3.09h32.156A1.416,1.416,0,0,1,406.778,4237.56Z" transform="translate(-349 -4203)"/>
  <path id="Shape-3" data-name="Shape" class="cls-2" d="M368.6,4230.19v20.94a4.277,4.277,0,0,1-4.2,4.49H353.2a4.277,4.277,0,0,1-4.2-4.49v-20.94a4.271,4.271,0,0,1,4.2-4.49h11.2A4.271,4.271,0,0,1,368.6,4230.19Zm-2.8,0a1.372,1.372,0,0,0-1.4-1.5H353.2a1.372,1.372,0,0,0-1.4,1.5v20.94a1.372,1.372,0,0,0,1.4,1.5h11.2a1.372,1.372,0,0,0,1.4-1.5v-20.94Z" transform="translate(-349 -4203)"/>
</svg>
