<svg id="Icon" xmlns="http://www.w3.org/2000/svg" width="75" height="75" viewBox="0 0 75 75">
  <defs>
    <style>
      .cls-1 {
        fill: #ff5b5b;
        fill-rule: evenodd;
      }
    </style>
  </defs>
  <path id="Shape" class="cls-1" d="M980,1961.02a9.106,9.106,0,1,1-9.105-8.99,9.452,9.452,0,0,1,1.856.19,30.418,30.418,0,0,0-14.132-32.84,1.28,1.28,0,0,1-.426-1.77,1.315,1.315,0,0,1,1.79-.42,32.957,32.957,0,0,1,15.229,35.92A8.982,8.982,0,0,1,980,1961.02Zm-2.6,0a6.5,6.5,0,1,0-6.5,6.41A6.469,6.469,0,0,0,977.4,1961.02Z" transform="translate(-905 -1904)"/>
  <path id="Shape-2" data-name="Shape" class="cls-1" d="M955.9,1974.79a1.291,1.291,0,0,1-.7,1.68,33.572,33.572,0,0,1-36.818-7.6,8.932,8.932,0,0,1-4.359,1.13,9.032,9.032,0,1,1,6.424-2.69,30.985,30.985,0,0,0,33.767,6.78A1.291,1.291,0,0,1,955.9,1974.79Zm-41.876-7.36a6.43,6.43,0,1,0-6.447-6.43A6.449,6.449,0,0,0,914.026,1967.43Z" transform="translate(-905 -1904)"/>
  <path id="Shape-3" data-name="Shape" class="cls-1" d="M909,1942.63a33.3,33.3,0,0,1,24.717-29.69,9.014,9.014,0,1,1,.375,2.56,30.728,30.728,0,0,0-22.487,27.31,1.3,1.3,0,0,1-1.3,1.19h-0.092A1.294,1.294,0,0,1,909,1942.63Zm27.327-29.66a6.53,6.53,0,1,0,6.529-6.41A6.481,6.481,0,0,0,936.33,1912.97Z" transform="translate(-905 -1904)"/>
</svg>
