<svg id="flaticon1545571889-svg" xmlns="http://www.w3.org/2000/svg" width="28" height="28" viewBox="0 0 28 28">
  <defs>
    <style>
      .cls-1 {
        fill: #fff;
        fill-rule: evenodd;
      }
    </style>
  </defs>
  <path id="Shape" class="cls-1" d="M178,2061a14,14,0,1,1-14-14A14.015,14.015,0,0,1,178,2061Zm-2.979,0A11.021,11.021,0,1,0,164,2072.02,11.031,11.031,0,0,0,175.021,2061Z" transform="translate(-150 -2047)"/>
  <path id="Path" class="cls-1" d="M172.4,2061.51a1.179,1.179,0,0,1-1.192,1.17h-7.7a1.179,1.179,0,0,1-1.192-1.17v-8.86a1.192,1.192,0,0,1,2.384,0v7.69h6.5A1.179,1.179,0,0,1,172.4,2061.51Z" transform="translate(-150 -2047)"/>
</svg>
