<svg id="Icon" xmlns="http://www.w3.org/2000/svg" width="79" height="79" viewBox="0 0 79 79">
  <defs>
    <style>
      .cls-1 {
        fill: #44e7d0;
        fill-rule: evenodd;
      }
    </style>
  </defs>
  <path id="Shape" class="cls-1" d="M347,1935.5a39.5,39.5,0,1,1-39.5-39.5A39.545,39.545,0,0,1,347,1935.5Zm-6.342,0a33.158,33.158,0,1,0-33.159,33.16A33.2,33.2,0,0,0,340.658,1935.5Z" transform="translate(-268 -1896)"/>
  <path id="Path" class="cls-1" d="M333.794,1927.28l-11.621,30.67a3.161,3.161,0,0,1-2.91,2.05H319.21a3.174,3.174,0,0,1-2.923-1.95l-7.255-17.37-6.545,17.27a3.161,3.161,0,0,1-2.909,2.05h-0.054a3.173,3.173,0,0,1-2.923-1.95l-14.355-34.36a3.17,3.17,0,1,1,5.847-2.45l11.288,27.02,6.1-16.09-3.544-8.48a3.17,3.17,0,1,1,5.847-2.45l11.287,27.02,8.225-21.71-3.708-5.63a3.169,3.169,0,1,1,5.291-3.49l4.6,6.98A3.171,3.171,0,0,1,333.794,1927.28Z" transform="translate(-268 -1896)"/>
</svg>
