<svg id="Icon_Star" data-name="Icon/Star" xmlns="http://www.w3.org/2000/svg" width="31" height="34" viewBox="0 0 31 34">
  <defs>
    <style>
      .cls-1 {
        fill: none;
        stroke: #fff;
        stroke-width: 3px;
        fill-rule: evenodd;
      }
    </style>
  </defs>
  <path id="Search_settings" class="cls-1" d="M868.265,1481.42a2.578,2.578,0,0,1,.4,3.08l-0.638,1.14a2.553,2.553,0,0,1-2.819,1.28l-1.48-.36a2.537,2.537,0,0,0-2.054.39,11.546,11.546,0,0,1-1.8,1.07,2.529,2.529,0,0,0-1.276,1.56l-0.472,1.59a2.551,2.551,0,0,1-2.4,1.83h-1.276a2.56,2.56,0,0,1-2.552-1.88l-0.382-1.39a2.554,2.554,0,0,0-1.429-1.66q-0.4-.18-0.829-0.42c-0.29-.17-0.566-0.34-0.83-0.53a2.561,2.561,0,0,0-2.079-.4l-1.544.39a2.549,2.549,0,0,1-2.819-1.21l-0.625-1.08a2.579,2.579,0,0,1,.382-3.08l1.034-1.06a2.492,2.492,0,0,0,.74-1.96,11.548,11.548,0,0,1,0-2.12,2.584,2.584,0,0,0-.766-1.99l-1.02-1.05a2.564,2.564,0,0,1-.4-3.06l0.638-1.14a2.554,2.554,0,0,1,2.819-1.28l1.48,0.36a2.542,2.542,0,0,0,2.054-.4,12.324,12.324,0,0,1,1.8-1.06,2.556,2.556,0,0,0,1.276-1.56l0.472-1.59a2.551,2.551,0,0,1,2.4-1.83h1.276a2.559,2.559,0,0,1,2.552,1.88l0.382,1.39a2.554,2.554,0,0,0,1.429,1.66c0.281,0.13.561,0.27,0.829,0.42a8.352,8.352,0,0,1,.83.53,2.519,2.519,0,0,0,2.079.39l1.544-.38a2.557,2.557,0,0,1,2.819,1.2l0.625,1.08a2.564,2.564,0,0,1-.382,3.07l-1.034,1.06a2.5,2.5,0,0,0-.74,1.96,11.657,11.657,0,0,1,0,2.13,2.559,2.559,0,0,0,.766,1.98l1.02,1.05h0Z" transform="translate(-839.5 -1460.5)"/>
</svg>
