<svg id="Icon" xmlns="http://www.w3.org/2000/svg" width="38" height="45" viewBox="0 0 38 45">
  <defs>
    <style>
      .cls-1 {
        fill: #fff;
        fill-rule: evenodd;
      }
    </style>
  </defs>
  <path id="Oval" class="cls-1" d="M637,2975a1.563,1.563,0,1,1,1.5,2A1.8,1.8,0,0,1,637,2975Z" transform="translate(-610 -2945)"/>
  <path id="Shape" class="cls-1" d="M644.607,2975.06v-6.51a3.46,3.46,0,0,0-3.393-3.51H616.786a3.461,3.461,0,0,0-3.394,3.51v14.42a3.455,3.455,0,0,0,3.394,3.51h24.428a3.454,3.454,0,0,0,3.393-3.51,1.7,1.7,0,1,1,3.393,0,6.917,6.917,0,0,1-6.786,7.03H616.786a6.917,6.917,0,0,1-6.786-7.03v-14.42a6.923,6.923,0,0,1,6.786-7.03h2.032v-6.2a10.179,10.179,0,1,1,20.357,0v6.2h2.039a6.923,6.923,0,0,1,6.786,7.03v6.51A1.7,1.7,0,1,1,644.607,2975.06Zm-8.825-19.74a6.786,6.786,0,1,0-13.571,0v6.2h13.571v-6.2Z" transform="translate(-610 -2945)"/>
  <path id="Oval-2" data-name="Oval" class="cls-1" d="M624,2975a1.563,1.563,0,1,1,1.5,2A1.8,1.8,0,0,1,624,2975Z" transform="translate(-610 -2945)"/>
  <path id="Oval-3" data-name="Oval" class="cls-1" d="M618,2975a1.563,1.563,0,1,1,1.5,2A1.8,1.8,0,0,1,618,2975Z" transform="translate(-610 -2945)"/>
  <path id="Oval-4" data-name="Oval" class="cls-1" d="M631,2975a1.563,1.563,0,1,1,1.5,2A1.8,1.8,0,0,1,631,2975Z" transform="translate(-610 -2945)"/>
</svg>
