<svg id="Search_Statistic" data-name="Search Statistic" xmlns="http://www.w3.org/2000/svg" width="55" height="50.34" viewBox="0 0 55 50.34">
  <metadata><?xpacket begin="﻿" id="W5M0MpCehiHzreSzNTczkc9d"?>
<x:xmpmeta xmlns:x="adobe:ns:meta/" x:xmptk="Adobe XMP Core 5.6-c142 79.160924, 2017/07/13-01:06:39        ">
   <rdf:RDF xmlns:rdf="http://www.w3.org/1999/02/22-rdf-syntax-ns#">
      <rdf:Description rdf:about=""/>
   </rdf:RDF>
</x:xmpmeta>
                                                                                                    
                                                                                                    
                                                                                                    
                                                                                                    
                                                                                                    
                                                                                                    
                                                                                                    
                                                                                                    
                                                                                                    
                                                                                                    
                                                                                                    
                                                                                                    
                                                                                                    
                                                                                                    
                                                                                                    
                                                                                                    
                                                                                                    
                                                                                                    
                                                                                                    
                                                                                                    
                           
<?xpacket end="w"?></metadata>
<defs>
    <style>
      .cls-1 {
        fill: #b3cffc;
      }

      .cls-1, .cls-2 {
        fill-rule: evenodd;
      }

      .cls-2 {
        fill: #10e3ff;
      }
    </style>
  </defs>
  <path id="Path" class="cls-1" d="M357.5,3500.44a2.516,2.516,0,1,0,2.818-4.17,25.325,25.325,0,0,0-19.608-3.66,2.516,2.516,0,1,0,1.1,4.91A20.318,20.318,0,0,1,357.5,3500.44Zm3.029,30.97a20.194,20.194,0,0,1-34.372-16.32,2.525,2.525,0,0,0-5.023-.52,25.248,25.248,0,0,0,50.186,5.56,2.524,2.524,0,0,0-5.014-.59A20.03,20.03,0,0,1,360.53,3531.41Z" transform="translate(-321 -3492)"/>
  <path id="Path-2" data-name="Path" class="cls-2" d="M371.028,3505.98a2.486,2.486,0,1,0-2.486,2.49A2.483,2.483,0,0,0,371.028,3505.98Zm-9.943,0a7.458,7.458,0,1,1,7.457,7.46A7.45,7.45,0,0,1,361.085,3505.98Z" transform="translate(-321 -3492)"/>
  <path id="Path-3" data-name="Path" class="cls-2" d="M351.452,3517.17a2.486,2.486,0,1,0-2.486,2.48A2.491,2.491,0,0,0,351.452,3517.17Zm-9.944,0a7.458,7.458,0,1,1,7.458,7.46A7.459,7.459,0,0,1,341.508,3517.17Z" transform="translate(-321 -3492)"/>
  <path id="Path-4" data-name="Path" class="cls-2" d="M330.943,3502.25a2.486,2.486,0,1,0-2.485,2.49A2.482,2.482,0,0,0,330.943,3502.25Zm-9.943,0a7.458,7.458,0,1,1,7.458,7.46A7.457,7.457,0,0,1,321,3502.25Z" transform="translate(-321 -3492)"/>
  <path id="Path-5" data-name="Path" class="cls-2" d="M363.881,3511.96l-2.2-4.67-9.9,5.21,2.2,4.67ZM344.159,3517l2.739-4.33-14.77-10.42-2.738,4.34Z" transform="translate(-321 -3492)"/>
</svg>
