<svg id="Icon_Outline_Color_respos" data-name="Icon/Outline/Color/respos" xmlns="http://www.w3.org/2000/svg" width="59" height="48" viewBox="0 0 59 48">
  <metadata><?xpacket begin="﻿" id="W5M0MpCehiHzreSzNTczkc9d"?>
<x:xmpmeta xmlns:x="adobe:ns:meta/" x:xmptk="Adobe XMP Core 5.6-c142 79.160924, 2017/07/13-01:06:39        ">
   <rdf:RDF xmlns:rdf="http://www.w3.org/1999/02/22-rdf-syntax-ns#">
      <rdf:Description rdf:about=""/>
   </rdf:RDF>
</x:xmpmeta>
                                                                                                    
                                                                                                    
                                                                                                    
                                                                                                    
                                                                                                    
                                                                                                    
                                                                                                    
                                                                                                    
                                                                                                    
                                                                                                    
                                                                                                    
                                                                                                    
                                                                                                    
                                                                                                    
                                                                                                    
                                                                                                    
                                                                                                    
                                                                                                    
                                                                                                    
                                                                                                    
                           
<?xpacket end="w"?></metadata>
<defs>
    <style>
      .cls-1, .cls-3 {
        fill: #b3cffc;
      }

      .cls-2, .cls-4 {
        fill: #10e3ff;
      }

      .cls-3, .cls-4 {
        fill-rule: evenodd;
      }
    </style>
  </defs>
  <circle id="Oval" class="cls-1" cx="32.5" cy="35.5" r="1.5"/>
  <circle id="Oval-2" data-name="Oval" class="cls-2" cx="9.5" cy="42.5" r="1.5"/>
  <path id="Shape" class="cls-3" d="M970,3146v32a3.915,3.915,0,0,1-3.975,4h-15.9v4a1.253,1.253,0,0,0,1.325,1.33h1.325a1.335,1.335,0,0,1,0,2.67h-18.55a1.335,1.335,0,0,1,0-2.67h1.325a1.253,1.253,0,0,0,1.325-1.33v-4h-2.65a1.335,1.335,0,0,1,0-2.67h31.8a1.253,1.253,0,0,0,1.325-1.33v-32a1.253,1.253,0,0,0-1.325-1.33h-45.05a1.253,1.253,0,0,0-1.325,1.33v13.33a1.325,1.325,0,1,1-2.65,0V3146a3.914,3.914,0,0,1,3.975-4h45.05A3.915,3.915,0,0,1,970,3146Zm-22.26,41.33a3.951,3.951,0,0,1-.265-1.33v-4h-7.95v4a3.975,3.975,0,0,1-.265,1.33h8.48Z" transform="translate(-911 -3142)"/>
  <path id="Shape-2" data-name="Shape" class="cls-3" d="M964,3173.5a1.345,1.345,0,0,1-1.333,1.5H933.333a1.51,1.51,0,0,1,0-3h29.334A1.345,1.345,0,0,1,964,3173.5Z" transform="translate(-911 -3142)"/>
  <path id="Shape-3" data-name="Shape" class="cls-4" d="M929,3167.05v18.9a3.89,3.89,0,0,1-3.857,4.05H914.857a3.889,3.889,0,0,1-3.857-4.05v-18.9a3.883,3.883,0,0,1,3.857-4.05h10.286A3.884,3.884,0,0,1,929,3167.05Zm-2.572,0a1.246,1.246,0,0,0-1.285-1.35H914.857a1.247,1.247,0,0,0-1.286,1.35v18.9a1.247,1.247,0,0,0,1.286,1.35h10.286a1.246,1.246,0,0,0,1.285-1.35v-18.9Z" transform="translate(-911 -3142)"/>
</svg>
