<svg id="flaticon1537476708-svg" xmlns="http://www.w3.org/2000/svg" width="59" height="55" viewBox="0 0 59 55">
  <metadata><?xpacket begin="﻿" id="W5M0MpCehiHzreSzNTczkc9d"?>
<x:xmpmeta xmlns:x="adobe:ns:meta/" x:xmptk="Adobe XMP Core 5.6-c142 79.160924, 2017/07/13-01:06:39        ">
   <rdf:RDF xmlns:rdf="http://www.w3.org/1999/02/22-rdf-syntax-ns#">
      <rdf:Description rdf:about=""/>
   </rdf:RDF>
</x:xmpmeta>
                                                                                                    
                                                                                                    
                                                                                                    
                                                                                                    
                                                                                                    
                                                                                                    
                                                                                                    
                                                                                                    
                                                                                                    
                                                                                                    
                                                                                                    
                                                                                                    
                                                                                                    
                                                                                                    
                                                                                                    
                                                                                                    
                                                                                                    
                                                                                                    
                                                                                                    
                                                                                                    
                           
<?xpacket end="w"?></metadata>
<defs>
    <style>
      .cls-1 {
        fill: #b3cffc;
        fill-rule: evenodd;
      }

      .cls-2 {
        fill: none;
        stroke: #10e3ff;
        stroke-width: 4px;
      }
    </style>
  </defs>
  <path id="Shape" class="cls-1" d="M916,3531.5v-29.99a7.474,7.474,0,0,1,7.436-7.5h32.717a8.93,8.93,0,1,1,10.41,8.86V3530a8.974,8.974,0,0,1-8.923,9h-34.2A7.48,7.48,0,0,1,916,3531.5Zm47.588-1.5v-0.67l-13.918-8.77-1.824,1.5a10.378,10.378,0,0,1-13.129,0l-1.825-1.5-13.918,8.77v2.17a4.478,4.478,0,0,0,4.462,4.5h34.2a5.977,5.977,0,0,0,5.949-6h0Zm-44.614-4.2v-16.64l11.478,9.4Zm33.136-7.23,11.479-9.41v16.64Zm-33.136-13.28,17.626,14.44a7.422,7.422,0,0,0,9.369,0l17.62-14.44v-2.42a8.959,8.959,0,0,1-6.916-5.86H923.436a4.478,4.478,0,0,0-4.462,4.5v3.78Zm40.153-11.28a5.949,5.949,0,1,0,5.948-6A5.977,5.977,0,0,0,959.127,3494.01Z" transform="translate(-916 -3484)"/>
  <circle id="Oval_14" data-name="Oval 14" class="cls-2" cx="49" cy="10" r="8"/>
</svg>
