<svg xmlns="http://www.w3.org/2000/svg" xmlns:xlink="http://www.w3.org/1999/xlink" width="86.079" height="80.348" viewBox="0 0 85 79.34">
  <defs>
    <style>
      .cls-1 {
        filter: url(#filter);
      }

      .cls-2 {
        fill: #ff3664;
        fill-rule: evenodd;
      }
    </style>
    <filter id="filter" filterUnits="userSpaceOnUse">
      <feFlood result="flood" flood-color="#ff3a46"/>
      <feComposite result="composite" operator="in" in2="SourceGraphic"/>
      <feBlend result="blend" in2="SourceGraphic"/>
    </filter>
  </defs>
  <g id="flaticon1553622892-svg" class="cls-1">
    <path id="Path" class="cls-2" d="M1185.69,3832h46.62a1.426,1.426,0,0,0,0-2.83h-46.62A1.426,1.426,0,0,0,1185.69,3832Z" transform="translate(-1158 -3764)"/>
    <path id="Path-2" data-name="Path" class="cls-2" d="M1185.69,3790.44h4.12a1.426,1.426,0,0,0,0-2.83h-4.12A1.426,1.426,0,0,0,1185.69,3790.44Z" transform="translate(-1158 -3764)"/>
    <path id="Path-3" data-name="Path" class="cls-2" d="M1185.69,3800.83h4.12a1.426,1.426,0,0,0,0-2.83h-4.12A1.426,1.426,0,0,0,1185.69,3800.83Z" transform="translate(-1158 -3764)"/>
    <path id="Path-4" data-name="Path" class="cls-2" d="M1185.69,3811.22h4.12a1.426,1.426,0,0,0,0-2.83h-4.12A1.426,1.426,0,0,0,1185.69,3811.22Z" transform="translate(-1158 -3764)"/>
    <path id="Path-5" data-name="Path" class="cls-2" d="M1185.69,3821.61h4.12a1.426,1.426,0,0,0,0-2.83h-4.12A1.426,1.426,0,0,0,1185.69,3821.61Z" transform="translate(-1158 -3764)"/>
    <path id="Shape" class="cls-2" d="M1200.45,3821.61H1227a2.367,2.367,0,0,0,2.38-2.35v-19.52h1.59a1.649,1.649,0,0,0,1.57-1.13,1.6,1.6,0,0,0-.64-1.81l-17.24-11.74a1.676,1.676,0,0,0-1.87,0l-17.25,11.74a1.594,1.594,0,0,0-.63,1.81,1.627,1.627,0,0,0,1.56,1.13h1.59v19.52A2.369,2.369,0,0,0,1200.45,3821.61Zm16.37-2.49h-6.19v-10.54h6.19v10.54Zm10.03,0h-7.49v-10.74a2.322,2.322,0,0,0-2.34-2.3h-6.6a2.313,2.313,0,0,0-2.33,2.3v10.74h-7.49v-19.38h26.25v19.38Zm-13.13-31.66,14.38,9.79h-28.76Z" transform="translate(-1158 -3764)"/>
    <path id="Path-6" data-name="Path" class="cls-2" d="M1241.75,3784.14a1.248,1.248,0,0,0,1.25-1.24v-4.53a4.488,4.488,0,0,0-4.49-4.48H1177.7v-0.06a9.85,9.85,0,0,0-19.7,0v38.79a1.245,1.245,0,0,0,2.49,0v-38.79a7.36,7.36,0,0,1,14.72,0v53.14c-0.17-.2-0.35-0.38-0.53-0.56a9.81,9.81,0,0,0-6.26-2.73h-0.14c-0.13-.01-0.25-0.01-0.37-0.01h-0.21a1.77,1.77,0,0,0-.23.01h-0.09c-0.07,0-.13.01-0.2,0.01l-0.31.03c-0.07.01-.14,0.01-0.21,0.02-0.1.01-.19,0.03-0.29,0.04a1.7,1.7,0,0,0-.22.04,1.843,1.843,0,0,0-.25.05,2.381,2.381,0,0,0-.26.05c-0.06.01-.11,0.03-0.17,0.04a9.965,9.965,0,0,0-4.98,3.01v-9.32a1.245,1.245,0,0,0-2.49,0v15.9a9.83,9.83,0,0,0,9.85,9.78h70.66a4.488,4.488,0,0,0,4.49-4.48v-50.79a1.245,1.245,0,0,0-2.49,0v50.79a2,2,0,0,1-2,2h-70.66a7.343,7.343,0,0,1-7.35-7.54v-0.13c0-.07.01-0.14,0.01-0.21a0.86,0.86,0,0,0,.01-0.16c0.01-.06.02-0.13,0.03-0.2a0.772,0.772,0,0,1,.02-0.15l0.03-.21a0.675,0.675,0,0,0,.02-0.14c0.02-.08.03-0.15,0.05-0.22l0.03-.12,0.06-.24a0.235,0.235,0,0,0,.02-0.08l0.09-.27a0.227,0.227,0,0,1,.01-0.04,7.4,7.4,0,0,1,4.29-4.48c0.01-.01.02-0.01,0.03-0.02l0.27-.09c0.02-.01.05-0.02,0.07-0.03a2.172,2.172,0,0,1,.24-0.07,0.564,0.564,0,0,1,.12-0.04c0.07-.02.14-0.03,0.2-0.05s0.11-.03.16-0.04a1.163,1.163,0,0,0,.18-0.04l0.19-.03a0.875,0.875,0,0,1,.16-0.02,1.517,1.517,0,0,1,.21-0.03c0.05-.01.1-0.01,0.15-0.02,0.07,0,.14-0.01.21-0.01a0.808,0.808,0,0,1,.16-0.01,1.275,1.275,0,0,1,.2-0.01h0.39a0.757,0.757,0,0,0,.15.01,2.452,2.452,0,0,1,.27.02,0.277,0.277,0,0,1,.09.01c0.12,0.01.23,0.02,0.35,0.04h0a7.366,7.366,0,0,1,6.2,6.51,6.45,6.45,0,0,1,.04.76,0.037,0.037,0,0,0,.01.03,0.57,0.57,0,0,0,.01.13v0.05c0.01,0.05.02,0.09,0.03,0.13a0.037,0.037,0,0,1,.01.03c0.02,0.05.03,0.1,0.05,0.14,0.01,0.02.02,0.03,0.03,0.05a1.091,1.091,0,0,1,.06.11c0.01,0.01.01,0.02,0.02,0.03a1.063,1.063,0,0,0,.09.11,0.151,0.151,0,0,0,.04.04l0.09,0.09,0.03,0.03c0.04,0.03.08,0.05,0.12,0.08a0.147,0.147,0,0,0,.04.02,0.611,0.611,0,0,0,.14.07v0.01H1176c0.04,0.02.09,0.03,0.14,0.05a0.076,0.076,0,0,1,.04.01,0.777,0.777,0,0,0,.16.02,0.031,0.031,0,0,1,.02.01h0.19c0.05-.01.1-0.01,0.15-0.02h0c0.06-.02.11-0.03,0.16-0.05a0.037,0.037,0,0,0,.03-0.01l0.15-.06,0.01-.01a0.913,0.913,0,0,0,.13-0.08l0.03-.03a0.642,0.642,0,0,0,.13-0.1h0a0.01,0.01,0,0,1,.01-0.01c0.02-.03.05-0.05,0.07-0.08,0.01-.01.01-0.02,0.02-0.03a0.3,0.3,0,0,0,.05-0.07c0.01-.01.01-0.02,0.02-0.03s0.03-.05.05-0.07c0-.01,0-0.02.01-0.02,0.01-.03.03-0.06,0.04-0.09v-0.02a0.3,0.3,0,0,0,.04-0.1v-0.01c0.01-.04.02-0.07,0.03-0.11v-0.03c0.01-.03.01-0.06,0.02-0.09v-57.25h60.81a2.006,2.006,0,0,1,2,2v4.53A1.246,1.246,0,0,0,1241.75,3784.14Z" transform="translate(-1158 -3764)"/>
  </g>
</svg>
