<?xml version="1.0" encoding="utf-8"?>
<!-- Generator: Adobe Illustrator 22.0.0, SVG Export Plug-In . SVG Version: 6.00 Build 0)  -->
<svg version="1.1" id="Capa_1" xmlns="http://www.w3.org/2000/svg" xmlns:xlink="http://www.w3.org/1999/xlink" x="0px" y="0px"
	 viewBox="0 0 17.3 32" style="enable-background:new 0 0 17.3 32;" xml:space="preserve">
<style type="text/css">
	.st0{fill:#FFFFFF;}
</style>
<g>
	<g>
		<path class="st0" d="M16.7,19.7c-0.2-0.5-0.3-1-0.6-1.3c-0.2-0.4-0.5-0.8-0.9-1.1c-0.4-0.4-0.8-0.7-1.1-0.9
			c-0.3-0.2-0.8-0.5-1.3-0.7c-0.6-0.3-1-0.5-1.3-0.6c-0.3-0.1-0.8-0.3-1.4-0.6c-0.5-0.2-1-0.4-1.2-0.5c-0.3-0.1-0.6-0.3-1.1-0.5
			c-0.4-0.2-0.8-0.4-1-0.5c-0.2-0.2-0.4-0.4-0.7-0.6c-0.2-0.2-0.4-0.5-0.5-0.7c-0.1-0.3-0.1-0.5-0.1-0.8c0-0.8,0.4-1.4,1.1-1.9
			c0.7-0.5,1.6-0.8,2.7-0.8c0.5,0,1,0.1,1.5,0.2c0.5,0.1,0.9,0.3,1.3,0.5c0.4,0.2,0.7,0.4,1,0.6c0.3,0.2,0.5,0.4,0.7,0.5
			C13.9,9.9,13.9,10,14,10c0.2,0.1,0.3,0.2,0.5,0.1c0.2,0,0.3-0.1,0.4-0.3l1.4-2.6c0.1-0.2,0.1-0.5-0.1-0.7
			c-0.1-0.1-0.2-0.2-0.3-0.2c-0.1-0.1-0.3-0.3-0.7-0.5c-0.4-0.2-0.7-0.5-1.1-0.7c-0.4-0.2-0.9-0.4-1.5-0.6c-0.6-0.2-1.3-0.3-1.9-0.4
			V1.1c0-0.2-0.1-0.3-0.2-0.4c-0.1-0.1-0.2-0.2-0.4-0.2H7.7c-0.2,0-0.3,0.1-0.4,0.2S7.2,1,7.2,1.1v3.2C5.3,4.7,3.8,5.4,2.7,6.7
			C1.6,7.9,1,9.3,1,10.9c0,0.5,0,0.9,0.1,1.4c0.1,0.4,0.2,0.8,0.4,1.2c0.1,0.3,0.4,0.7,0.6,1c0.3,0.3,0.5,0.6,0.8,0.9
			c0.2,0.2,0.6,0.5,0.9,0.7c0.4,0.3,0.7,0.5,1,0.6c0.3,0.2,0.6,0.3,1.1,0.5c0.5,0.2,0.8,0.4,1.1,0.5c0.3,0.1,0.6,0.3,1.1,0.4
			c0.6,0.2,1.1,0.4,1.4,0.6c0.3,0.1,0.7,0.3,1.2,0.6c0.5,0.2,0.8,0.5,1,0.7c0.2,0.2,0.4,0.4,0.6,0.7c0.2,0.3,0.3,0.6,0.3,0.9
			c0,0.9-0.4,1.6-1.1,2.1c-0.7,0.5-1.6,0.8-2.5,0.8c-0.4,0-0.9,0-1.3-0.1c-1.5-0.3-2.9-1-4.3-2.2l0,0c-0.1-0.1-0.2-0.2-0.4-0.2
			c-0.2,0-0.3,0.1-0.4,0.2l-1.8,2.4c-0.2,0.2-0.2,0.5,0,0.7c0.1,0.1,0.2,0.2,0.3,0.3c0.1,0.1,0.4,0.4,0.8,0.7
			c0.4,0.3,0.8,0.6,1.3,0.8c0.5,0.3,1.1,0.5,1.8,0.8c0.7,0.3,1.5,0.4,2.2,0.5v3.1c0,0.2,0.1,0.3,0.2,0.4C7.4,31.9,7.6,32,7.7,32h2.4
			c0.2,0,0.3-0.1,0.4-0.2s0.2-0.2,0.2-0.4v-3.1c1.9-0.3,3.4-1.1,4.5-2.4c1.2-1.3,1.7-2.8,1.7-4.6C16.9,20.8,16.9,20.2,16.7,19.7z"/>
	</g>
</g>
</svg>
