<svg xmlns="http://www.w3.org/2000/svg" width="17.13" height="18.594" viewBox="0 0 17.13 18.594">
  <defs>
    <style>
      .cls-1 {
        fill: #c5c5c5;
        fill-rule: evenodd;
      }
    </style>
  </defs>
  <path id="Settings" class="cls-1" d="M1532.94,200.593a2.33,2.33,0,0,0,2.24-1.7l0.37-1.293a5.411,5.411,0,0,0,.49-0.255,4.521,4.521,0,0,0,.49-0.317l1.31,0.333a2.333,2.333,0,0,0,2.59-1.084l0.37-.643a2.321,2.321,0,0,0-.36-2.794l-0.94-.968a5.335,5.335,0,0,0,0-1.13l0.96-.983a2.311,2.311,0,0,0,.36-2.787l-0.37-.642a2.328,2.328,0,0,0-2.59-1.091l-1.3.325a6.621,6.621,0,0,0-1-.558l-0.36-1.308a2.321,2.321,0,0,0-2.23-1.695h-0.77a2.321,2.321,0,0,0-2.24,1.7L1529.59,185a5.074,5.074,0,0,0-.98.572l-1.31-.332a2.325,2.325,0,0,0-2.59,1.083l-0.37.643a2.321,2.321,0,0,0,.36,2.794l0.91,0.975a7.118,7.118,0,0,0,0,1.131l-0.94.959a2.325,2.325,0,0,0-.36,2.787l0.37,0.643a2.328,2.328,0,0,0,2.59,1.091,0.777,0.777,0,0,0,.55-0.543,0.794,0.794,0,0,0-.19-0.751,0.783,0.783,0,0,0-.75-0.208,0.78,0.78,0,0,1-.87-0.363l-0.37-.643a0.77,0.77,0,0,1,.12-0.929l0.94-.96a1.565,1.565,0,0,0,.44-1.215,4.265,4.265,0,0,1,0-.875,1.548,1.548,0,0,0-.44-1.223l-0.94-.952a0.77,0.77,0,0,1-.12-0.929l0.37-.642a0.783,0.783,0,0,1,.86-0.364l1.31,0.333a1.568,1.568,0,0,0,1.29-.248c0.11-.077.23-0.155,0.35-0.224s0.25-.132.37-0.194a1.541,1.541,0,0,0,.86-1l0.36-1.285a0.761,0.761,0,0,1,.77-0.565h0.78a0.777,0.777,0,0,1,.77.565l0.36,1.308a1.57,1.57,0,0,0,.84.983,5.079,5.079,0,0,1,.77.433,1.553,1.553,0,0,0,1.27.24l1.31-.333a0.781,0.781,0,0,1,.87.364l0.37,0.643a0.771,0.771,0,0,1-.12.929l-0.94.959a1.56,1.56,0,0,0-.43,1.216,6.388,6.388,0,0,1,0,.875,1.507,1.507,0,0,0,.43,1.223l0.94,0.952a0.77,0.77,0,0,1,.12.929l-0.37.642a0.777,0.777,0,0,1-.86.364l-1.31-.333a1.539,1.539,0,0,0-1.28.248c-0.12.077-.24,0.154-0.36,0.224s-0.25.139-.37,0.194a1.541,1.541,0,0,0-.86,1l-0.36,1.293a0.763,0.763,0,0,1-.77.565h-0.77a0.783,0.783,0,0,1-.78-0.565,0.774,0.774,0,1,0-1.49.418,2.321,2.321,0,0,0,2.23,1.695h0.77Zm3.47-9.289a3.87,3.87,0,1,1-3.87-3.87,3.869,3.869,0,0,1,3.87,3.87h0Zm-3.87-2.322a2.323,2.323,0,1,0,2.32,2.322A2.322,2.322,0,0,0,1532.54,188.982Z" transform="translate(-1524 -182)"/>
</svg>
