<svg id="Icon_File" data-name="Icon/File" xmlns="http://www.w3.org/2000/svg" width="22" height="29.03" viewBox="0 0 22 29.03">
  <defs>
    <style>
      .cls-1 {
        fill: #fff;
        fill-rule: evenodd;
      }
    </style>
  </defs>
  <g id="flaticon1545571988-svg">
    <path id="Shape" class="cls-1" d="M736,2051.88v21.73a1.439,1.439,0,0,1-1.446,1.43H715.446a1.439,1.439,0,0,1-1.446-1.43v-26.18a1.439,1.439,0,0,1,1.446-1.43h14.609a0.7,0.7,0,0,1,.485.2h0l5.259,5.2a0.685,0.685,0,0,1,.2.48h0Zm-5.259-.75a0.071,0.071,0,0,0,.073.07h2.84l-2.913-2.88v2.81Zm3.885,22.48v-21.05h-3.812a1.438,1.438,0,0,1-1.446-1.43v-3.77H715.446a0.07,0.07,0,0,0-.072.07v26.18a0.07,0.07,0,0,0,.072.07h19.108a0.07,0.07,0,0,0,.072-0.07h0Z" transform="translate(-714 -2046)"/>
    <path id="Path" class="cls-1" d="M731.6,2055.68a0.794,0.794,0,0,1-.67.88H719.07a0.913,0.913,0,0,1,0-1.76h11.86A0.794,0.794,0,0,1,731.6,2055.68Z" transform="translate(-714 -2046)"/>
    <path id="Path-2" data-name="Path" class="cls-1" d="M731.6,2060.08a0.794,0.794,0,0,1-.67.88H719.07a0.913,0.913,0,0,1,0-1.76h11.86A0.794,0.794,0,0,1,731.6,2060.08Z" transform="translate(-714 -2046)"/>
    <path id="Path-3" data-name="Path" class="cls-1" d="M731.6,2064.48a0.794,0.794,0,0,1-.67.88H719.07a0.913,0.913,0,0,1,0-1.76h11.86A0.794,0.794,0,0,1,731.6,2064.48Z" transform="translate(-714 -2046)"/>
    <path id="Path-4" data-name="Path" class="cls-1" d="M725.44,2068a0.789,0.789,0,0,1-.649.88h-5.742a0.921,0.921,0,0,1,0-1.76h5.742A0.789,0.789,0,0,1,725.44,2068Z" transform="translate(-714 -2046)"/>
  </g>
</svg>
