<?xml version="1.0" encoding="utf-8" ?>
<svg xmlns="http://www.w3.org/2000/svg" xmlns:xlink="http://www.w3.org/1999/xlink" width="31" height="17">
	<defs>
		<clipPath id="clip_0">
			<rect x="-1716" y="-59" width="1800" height="10960" clip-rule="evenodd"/>
		</clipPath>
	</defs>
	<g clip-path="url(#clip_0)">
		<path fill="rgb(65,65,65)" stroke="none" d="M1.5 0L29.5 0Q29.5769 0 29.6526 0.00699093Q29.7283 0.0139819 29.8022 0.0279067Q29.876 0.0418316 29.9475 0.0625768Q30.019 0.0833219 30.0875 0.110718Q30.156 0.138115 30.2209 0.171939Q30.2859 0.205763 30.3467 0.245739Q30.4076 0.285714 30.4639 0.331516Q30.5202 0.377318 30.5714 0.428571Q30.6227 0.479825 30.6685 0.536113Q30.7143 0.592401 30.7543 0.653265Q30.7942 0.714128 30.8281 0.779069Q30.8619 0.844011 30.8893 0.912502Q30.9167 0.980993 30.9374 1.05247Q30.9582 1.12396 30.9721 1.19784Q30.986 1.27173 30.993 1.34743Q31 1.42312 31 1.5L31 1.5Q31 1.57688 30.993 1.65257Q30.986 1.72827 30.9721 1.80216Q30.9582 1.87604 30.9374 1.94753Q30.9167 2.01901 30.8893 2.0875Q30.8619 2.15599 30.8281 2.22093Q30.7942 2.28587 30.7543 2.34674Q30.7143 2.4076 30.6685 2.46389Q30.6227 2.52017 30.5714 2.57143Q30.5202 2.62268 30.4639 2.66848Q30.4076 2.71429 30.3467 2.75426Q30.2859 2.79424 30.2209 2.82806Q30.156 2.86189 30.0875 2.88928Q30.019 2.91668 29.9475 2.93742Q29.876 2.95817 29.8022 2.97209Q29.7283 2.98602 29.6526 2.99301Q29.5769 3 29.5 3L1.5 3Q1.42312 3 1.34743 2.99301Q1.27173 2.98602 1.19784 2.97209Q1.12396 2.95817 1.05247 2.93742Q0.980993 2.91668 0.912502 2.88928Q0.844011 2.86189 0.779069 2.82806Q0.714128 2.79424 0.653264 2.75426Q0.592401 2.71429 0.536113 2.66848Q0.479825 2.62268 0.428571 2.57143Q0.377318 2.52017 0.331516 2.46389Q0.285714 2.4076 0.245739 2.34674Q0.205763 2.28587 0.171939 2.22093Q0.138115 2.15599 0.110718 2.0875Q0.0833219 2.01901 0.0625768 1.94753Q0.0418316 1.87604 0.0279067 1.80216Q0.0139819 1.72827 0.00699093 1.65257Q0 1.57688 0 1.5L0 1.5Q0 1.42312 0.00699093 1.34743Q0.0139819 1.27173 0.0279067 1.19784Q0.0418316 1.12396 0.0625768 1.05247Q0.0833219 0.980993 0.110718 0.912502Q0.138115 0.844011 0.171939 0.779069Q0.205763 0.714128 0.245739 0.653264Q0.285714 0.592401 0.331516 0.536113Q0.377318 0.479825 0.428571 0.428571Q0.479825 0.377318 0.536113 0.331516Q0.592401 0.285714 0.653265 0.245739Q0.714128 0.205763 0.779069 0.171939Q0.844011 0.138115 0.912502 0.110718Q0.980993 0.0833219 1.05247 0.0625768Q1.12396 0.0418316 1.19784 0.0279067Q1.27173 0.0139819 1.34743 0.00699093Q1.42312 0 1.5 0Z"/>
	</g>
	<defs>
		<clipPath id="clip_1">
			<rect x="-1716" y="-59" width="1800" height="10960" clip-rule="evenodd"/>
		</clipPath>
	</defs>
	<g clip-path="url(#clip_1)">
		<path fill="rgb(65,65,65)" stroke="none" transform="translate(0 7)" d="M1.5 0L23.5 0Q23.5769 0 23.6526 0.00699093Q23.7283 0.0139819 23.8022 0.0279067Q23.876 0.0418316 23.9475 0.0625768Q24.019 0.0833219 24.0875 0.110718Q24.156 0.138115 24.2209 0.171939Q24.2859 0.205763 24.3467 0.245739Q24.4076 0.285714 24.4639 0.331516Q24.5202 0.377318 24.5714 0.428571Q24.6227 0.479825 24.6685 0.536113Q24.7143 0.592401 24.7543 0.653265Q24.7942 0.714128 24.8281 0.779069Q24.8619 0.844011 24.8893 0.912502Q24.9167 0.980993 24.9374 1.05247Q24.9582 1.12396 24.9721 1.19784Q24.986 1.27173 24.993 1.34743Q25 1.42312 25 1.5L25 1.5Q25 1.57688 24.993 1.65257Q24.986 1.72827 24.9721 1.80216Q24.9582 1.87604 24.9374 1.94753Q24.9167 2.01901 24.8893 2.0875Q24.8619 2.15599 24.8281 2.22093Q24.7942 2.28587 24.7543 2.34674Q24.7143 2.4076 24.6685 2.46389Q24.6227 2.52017 24.5714 2.57143Q24.5202 2.62268 24.4639 2.66848Q24.4076 2.71429 24.3467 2.75426Q24.2859 2.79424 24.2209 2.82806Q24.156 2.86189 24.0875 2.88928Q24.019 2.91668 23.9475 2.93742Q23.876 2.95817 23.8022 2.97209Q23.7283 2.98602 23.6526 2.99301Q23.5769 3 23.5 3L1.5 3Q1.42312 3 1.34743 2.99301Q1.27173 2.98602 1.19784 2.97209Q1.12396 2.95817 1.05247 2.93742Q0.980993 2.91668 0.912502 2.88928Q0.844011 2.86189 0.779069 2.82806Q0.714128 2.79424 0.653264 2.75426Q0.592401 2.71429 0.536113 2.66848Q0.479825 2.62268 0.428571 2.57143Q0.377318 2.52017 0.331516 2.46389Q0.285714 2.4076 0.245739 2.34674Q0.205763 2.28587 0.171939 2.22093Q0.138115 2.15599 0.110718 2.0875Q0.0833219 2.01901 0.0625768 1.94753Q0.0418316 1.87604 0.0279067 1.80216Q0.0139819 1.72827 0.00699093 1.65257Q0 1.57688 0 1.5L0 1.5Q0 1.42312 0.00699093 1.34743Q0.0139819 1.27173 0.0279067 1.19784Q0.0418316 1.12396 0.0625768 1.05247Q0.0833219 0.980993 0.110718 0.912502Q0.138115 0.844011 0.171939 0.779069Q0.205763 0.714128 0.245739 0.653264Q0.285714 0.592401 0.331516 0.536113Q0.377318 0.479825 0.428571 0.428571Q0.479825 0.377318 0.536113 0.331516Q0.592401 0.285714 0.653265 0.245739Q0.714128 0.205763 0.779069 0.171939Q0.844011 0.138115 0.912502 0.110718Q0.980993 0.0833219 1.05247 0.0625768Q1.12396 0.0418316 1.19784 0.0279067Q1.27173 0.0139819 1.34743 0.00699093Q1.42312 0 1.5 0Z"/>
	</g>
	<defs>
		<clipPath id="clip_2">
			<rect x="-1716" y="-59" width="1800" height="10960" clip-rule="evenodd"/>
		</clipPath>
	</defs>
	<g clip-path="url(#clip_2)">
		<path fill="rgb(65,65,65)" stroke="none" transform="translate(0 14)" d="M1.5 0L13.5 0Q13.5769 0 13.6526 0.00699093Q13.7283 0.0139819 13.8022 0.0279067Q13.876 0.0418316 13.9475 0.0625768Q14.019 0.0833219 14.0875 0.110718Q14.156 0.138115 14.2209 0.171939Q14.2859 0.205763 14.3467 0.245739Q14.4076 0.285714 14.4639 0.331516Q14.5202 0.377318 14.5714 0.428571Q14.6227 0.479825 14.6685 0.536113Q14.7143 0.592401 14.7543 0.653265Q14.7942 0.714128 14.8281 0.779069Q14.8619 0.844011 14.8893 0.912502Q14.9167 0.980993 14.9374 1.05247Q14.9582 1.12396 14.9721 1.19784Q14.986 1.27173 14.993 1.34743Q15 1.42312 15 1.5L15 1.5Q15 1.57688 14.993 1.65257Q14.986 1.72827 14.9721 1.80216Q14.9582 1.87604 14.9374 1.94753Q14.9167 2.01901 14.8893 2.0875Q14.8619 2.15599 14.8281 2.22093Q14.7942 2.28587 14.7543 2.34674Q14.7143 2.4076 14.6685 2.46389Q14.6227 2.52017 14.5714 2.57143Q14.5202 2.62268 14.4639 2.66848Q14.4076 2.71429 14.3467 2.75426Q14.2859 2.79424 14.2209 2.82806Q14.156 2.86189 14.0875 2.88928Q14.019 2.91668 13.9475 2.93742Q13.876 2.95817 13.8022 2.97209Q13.7283 2.98602 13.6526 2.99301Q13.5769 3 13.5 3L1.5 3Q1.42312 3 1.34743 2.99301Q1.27173 2.98602 1.19784 2.97209Q1.12396 2.95817 1.05247 2.93742Q0.980993 2.91668 0.912502 2.88928Q0.844011 2.86189 0.779069 2.82806Q0.714128 2.79424 0.653264 2.75426Q0.592401 2.71429 0.536113 2.66848Q0.479825 2.62268 0.428571 2.57143Q0.377318 2.52017 0.331516 2.46389Q0.285714 2.4076 0.245739 2.34674Q0.205763 2.28587 0.171939 2.22093Q0.138115 2.15599 0.110718 2.0875Q0.0833219 2.01901 0.0625768 1.94753Q0.0418316 1.87604 0.0279067 1.80216Q0.0139819 1.72827 0.00699093 1.65257Q0 1.57688 0 1.5L0 1.5Q0 1.42312 0.00699093 1.34743Q0.0139819 1.27173 0.0279067 1.19784Q0.0418316 1.12396 0.0625768 1.05247Q0.0833219 0.980993 0.110718 0.912502Q0.138115 0.844011 0.171939 0.779069Q0.205763 0.714128 0.245739 0.653264Q0.285714 0.592401 0.331516 0.536113Q0.377318 0.479825 0.428571 0.428571Q0.479825 0.377318 0.536113 0.331516Q0.592401 0.285714 0.653265 0.245739Q0.714128 0.205763 0.779069 0.171939Q0.844011 0.138115 0.912502 0.110718Q0.980993 0.0833219 1.05247 0.0625768Q1.12396 0.0418316 1.19784 0.0279067Q1.27173 0.0139819 1.34743 0.00699093Q1.42312 0 1.5 0Z"/>
	</g>

</svg>