<svg id="Icon" xmlns="http://www.w3.org/2000/svg" width="302" height="302" viewBox="0 0 302 302">
  <defs>
    <style>
      .cls-1 {
        fill: #fff;
        fill-rule: evenodd;
      }
    </style>
  </defs>
  <path id="Shape" class="cls-1" d="M1311,3716.03V3883.1a5.9,5.9,0,0,1-5.9,5.9H1026.7a17.72,17.72,0,0,1-17.7-17.7V3604.69a17.718,17.718,0,0,1,17.7-17.69h158.06a5.9,5.9,0,0,1,4.17,1.73l56.62,56.62a5.9,5.9,0,0,1,1.73,4.17v78.45a5.9,5.9,0,1,1-11.79,0v-72.55h-38.93a17.711,17.711,0,0,1-17.7-17.69V3598.8H1026.7a5.9,5.9,0,0,0-5.9,5.89V3871.3a5.9,5.9,0,0,0,5.9,5.9h50.72v-46.96a5.9,5.9,0,0,1,5.9-5.9h37.75a5.9,5.9,0,0,1,5.9,5.9v46.96h11.8v-80.81a5.894,5.894,0,0,1,5.89-5.89h37.75a5.9,5.9,0,0,1,5.9,5.89v80.81h11.8V3755.11a5.9,5.9,0,0,1,5.9-5.9h37.75a5.9,5.9,0,0,1,5.9,5.9V3877.2h11.79v-87.15a5.9,5.9,0,0,1,11.8,0v87.15h25.95V3721.93h-25.95v23.88a5.9,5.9,0,0,1-11.8,0v-29.78a5.9,5.9,0,0,1,5.9-5.9h37.75A5.9,5.9,0,0,1,1311,3716.03Zm-120.34-78.3a5.9,5.9,0,0,0,5.9,5.9h30.58l-36.48-36.49v30.59Zm-75.49,239.47h-25.95v-41.06h25.95v41.06Zm61.35,0h-25.96v-74.91h25.96v74.91Zm61.34,0h-25.95V3761h25.95v116.2Z" transform="translate(-1009 -3587)"/>
  <path id="Path" class="cls-1" d="M1273,3767a6.009,6.009,0,1,1-1.76-4.24A6.012,6.012,0,0,1,1273,3767Z" transform="translate(-1009 -3587)"/>
  <path id="Shape-2" data-name="Shape" class="cls-1" d="M1165,3689.62a5.915,5.915,0,0,1-5.91,5.91h-10.64a54.386,54.386,0,1,1-59.98-59.98v-10.64a5.915,5.915,0,0,1,5.91-5.91A70.7,70.7,0,0,1,1165,3689.62Zm-28.47,5.91h-42.15a5.917,5.917,0,0,1-5.91-5.92v-42.14A42.557,42.557,0,1,0,1136.53,3695.53Zm16.35-11.83a58.906,58.906,0,0,0-52.58-52.58v52.58h52.58Z" transform="translate(-1009 -3587)"/>
  <path id="Path-2" data-name="Path" class="cls-1" d="M1165,3766a5.942,5.942,0,0,1-5.88,6H1046.88a6,6,0,0,1,0-12h112.24A5.942,5.942,0,0,1,1165,3766Z" transform="translate(-1009 -3587)"/>
  <path id="Path-3" data-name="Path" class="cls-1" d="M1091,3795a5.981,5.981,0,0,1-5.95,6h-38.1a6,6,0,0,1,0-12h38.1A5.981,5.981,0,0,1,1091,3795Z" transform="translate(-1009 -3587)"/>
  <path id="Path-4" data-name="Path" class="cls-1" d="M1120,3795a6.009,6.009,0,1,1-1.76-4.24A6.012,6.012,0,0,1,1120,3795Z" transform="translate(-1009 -3587)"/>
</svg>
