<?xml version="1.0" encoding="utf-8" ?>
<svg xmlns="http://www.w3.org/2000/svg" xmlns:xlink="http://www.w3.org/1999/xlink" width="161" height="161">
	<defs>
		<clipPath id="clip_0">
			<rect width="161" height="161" clip-rule="evenodd"/>
		</clipPath>
	</defs>
	<g clip-path="url(#clip_0)">
		<path fill="rgb(255,205,99)" stroke="none" transform="matrix(-0.707107 0.707107 -0.707107 -0.707107 160.452 80.5483)" d="M101.049 92.9675L107.55 99.4687C109.219 101.137 109.694 103.528 108.791 105.707C107.888 107.887 105.862 109.241 103.502 109.241L5.72477 109.241C2.56811 109.241 0 106.673 0 103.517L0 5.73937C0 3.38003 1.35421 1.35347 3.53401 0.450415C5.71381 -0.452637 8.10457 0.0228842 9.77279 1.69135L20.49 12.4084C22.1344 13.3526 24.5848 13.9333 27.1763 14.5458C33.4171 16.0206 41.1838 17.8557 45.7511 26.0289C49.1176 32.0528 51.7763 36.811 60.3262 42.9082C69.3387 49.336 68.1742 58.5707 67.9576 59.8759L72.8249 64.7432C80.0542 65.5644 85.283 66.7586 90.7059 73.5043C92.3488 75.5477 93.5427 78.5248 94.8066 81.6768C96.3905 85.6272 98.1859 90.1044 101.049 92.9675ZM105.389 108.686C106.695 108.686 107.209 107.679 107.336 107.37C107.462 107.061 107.803 105.982 106.879 105.047L100.262 98.3556L100.262 98.3553L7.35906 4.40074C6.87061 3.90651 6.34173 3.77009 5.90683 3.77009C5.51929 3.77009 5.20613 3.87842 5.06232 3.9386C4.75709 4.06649 3.76133 4.5863 3.76133 5.90778L3.76133 106.554C3.76133 107.73 4.70676 108.686 5.86889 108.686L105.389 108.686ZM27.1092 18.6334C33.1123 20.0519 39.9165 21.6597 43.8105 28.6277C47.3594 34.9786 50.4242 40.4632 59.9125 47.2298C64.7629 50.689 66.0447 55.091 66.3085 57.9895L26.9036 18.5847C26.972 18.601 27.0402 18.6171 27.1092 18.6334ZM94.0978 85.4735C92.9039 82.4965 91.7763 79.6846 90.4365 78.018C87.0164 73.7642 83.8835 72.0636 79.4459 71.127L94.3026 85.9838C94.2342 85.8133 94.1655 85.6423 94.0978 85.4735Z" fill-rule="evenodd"/>
	</g>
	<defs>
		<clipPath id="clip_1">
			<rect width="161" height="161" clip-rule="evenodd"/>
		</clipPath>
	</defs>
	<g clip-path="url(#clip_1)">
		<path fill="rgb(255,205,99)" stroke="none" transform="matrix(-0.707107 0.707107 -0.707107 -0.707107 109.085 46.0698)" d="M32.2616 0.498907C31.6589 -0.166302 30.6818 -0.166302 30.0794 0.498907L0.451973 33.2029C-0.150658 33.8681 -0.150658 34.9467 0.451973 35.6117C0.753185 35.9441 1.14822 36.1106 1.54304 36.1106C1.93787 36.1106 2.3329 35.9444 2.63412 35.6117L32.2616 2.90765C32.8644 2.24267 32.8644 1.16412 32.2616 0.498907Z"/>
	</g>
	<defs>
		<clipPath id="clip_2">
			<rect width="161" height="161" clip-rule="evenodd"/>
		</clipPath>
	</defs>
	<g clip-path="url(#clip_2)">
		<path fill="rgb(255,205,99)" stroke="none" transform="matrix(-0.707107 0.707107 -0.707107 -0.707107 114.715 51.6987)" d="M1.46971 28.1822C1.84577 28.1822 2.22203 28.0197 2.50893 27.6947L24.4574 2.84102C25.0314 2.19106 25.0314 1.13722 24.4574 0.487475C23.8834 -0.162492 22.9527 -0.162492 22.3789 0.487475L0.430493 25.3411C-0.143498 25.9911 -0.143498 27.0449 0.430493 27.6947C0.71739 28.0197 1.09365 28.1822 1.46971 28.1822Z"/>
	</g>
	<defs>
		<clipPath id="clip_3">
			<rect width="161" height="161" clip-rule="evenodd"/>
		</clipPath>
	</defs>
	<g clip-path="url(#clip_3)">
		<path fill="rgb(255,205,99)" stroke="none" transform="matrix(-0.707107 0.707107 -0.707107 -0.707107 92.198 51.6987)" d="M24.4562 0.487475C23.8823 -0.162492 22.9516 -0.162492 22.3779 0.487475L0.430473 25.3411C-0.143491 25.9911 -0.143491 27.0449 0.430473 27.6947C0.717357 28.0195 1.0936 28.1822 1.46964 28.1822C1.84569 28.1822 2.22193 28.0198 2.50881 27.6947L24.4562 2.84103C25.0304 2.19128 25.0304 1.13744 24.4562 0.487475Z"/>
	</g>
	<defs>
		<clipPath id="clip_4">
			<rect width="161" height="161" clip-rule="evenodd"/>
		</clipPath>
	</defs>
	<g clip-path="url(#clip_4)">
		<path fill="rgb(255,205,99)" stroke="none" transform="matrix(-0.707107 0.707107 -0.707107 -0.707107 75.3105 57.3281)" d="M16.7472 0.468831C16.2186 -0.156277 15.3616 -0.156277 14.8333 0.468831L0.396426 17.5424C-0.132142 18.1676 -0.132142 19.1811 0.396426 19.806C0.66062 20.1184 1.0071 20.2749 1.35341 20.2749C1.69971 20.2749 2.04619 20.1186 2.31039 19.806L16.7472 2.73237C17.276 2.10747 17.276 1.09394 16.7472 0.468831Z"/>
	</g>
	<defs>
		<clipPath id="clip_5">
			<rect width="161" height="161" clip-rule="evenodd"/>
		</clipPath>
	</defs>
	<g clip-path="url(#clip_5)">
		<path fill="rgb(255,205,99)" stroke="none" transform="matrix(-0.707107 0.707107 -0.707107 -0.707107 57.7192 63.6606)" d="M7.64826 0.433047L0.334709 9.89533C-0.11157 10.4727 -0.11157 11.4089 0.334709 11.9861C0.557773 12.2747 0.850315 12.4192 1.1427 12.4192C1.43509 12.4192 1.72764 12.2749 1.9507 11.9861L9.26426 2.52382C9.71054 1.94642 9.71054 1.01025 9.26426 0.433047C8.81813 -0.144349 8.09454 -0.144349 7.64826 0.433047Z"/>
	</g>
	<defs>
		<clipPath id="clip_6">
			<rect width="161" height="161" clip-rule="evenodd"/>
		</clipPath>
	</defs>
	<g clip-path="url(#clip_6)">
		<path fill="rgb(255,205,99)" stroke="none" transform="matrix(-0.707107 0.707107 -0.707107 -0.707107 121.047 58.0317)" d="M1.35349 20.2749C1.69982 20.2749 2.04632 20.1186 2.31053 19.806L16.7483 2.73237C17.2769 2.10726 17.2769 1.09373 16.7483 0.468831C16.2197 -0.156277 15.3626 -0.156277 14.8342 0.468831L0.396451 17.5424C-0.13215 18.1676 -0.13215 19.1811 0.396451 19.806C0.660662 20.1184 1.00717 20.2749 1.35349 20.2749Z"/>
	</g>
	<defs>
		<clipPath id="clip_7">
			<rect width="161" height="161" clip-rule="evenodd"/>
		</clipPath>
	</defs>
	<g clip-path="url(#clip_7)">
		<path fill="rgb(255,205,99)" stroke="none" transform="matrix(-0.707107 0.707107 -0.707107 -0.707107 125.973 62.957)" d="M1.1427 12.4192C1.43509 12.4192 1.72764 12.2749 1.9507 11.9861L9.26426 2.52381C9.71054 1.94642 9.71054 1.01025 9.26426 0.433047C8.81798 -0.144349 8.09439 -0.144349 7.64826 0.433047L0.334709 9.89532C-0.11157 10.4727 -0.11157 11.4089 0.334709 11.9861C0.557773 12.2747 0.850315 12.4192 1.1427 12.4192Z"/>
	</g>
	<defs>
		<clipPath id="clip_8">
			<rect width="161" height="161" clip-rule="evenodd"/>
		</clipPath>
	</defs>
	<g clip-path="url(#clip_8)">
		<path fill="rgb(255,205,99)" stroke="none" transform="matrix(-0.707107 0.707107 -0.707107 -0.707107 132.306 69.29)" d="M0.660733 4.75902C0.829799 4.75902 0.998952 4.64664 1.12793 4.42174L2.53754 1.96545C2.79559 1.5158 2.79559 0.786741 2.53754 0.337241C2.2795 -0.112414 1.86111 -0.112414 1.60315 0.337241L0.193535 2.79353C-0.0645117 3.24318 -0.0645117 3.97224 0.193535 4.42174C0.322515 4.64649 0.491668 4.75902 0.660733 4.75902Z"/>
	</g>
	<defs>
		<clipPath id="clip_9">
			<rect width="161" height="161" clip-rule="evenodd"/>
		</clipPath>
	</defs>
	<g clip-path="url(#clip_9)">
		<path fill="rgb(255,205,99)" stroke="none" transform="matrix(-0.707107 0.707107 -0.707107 -0.707107 41.5354 68.5864)" d="M1.60315 0.337241L0.193535 2.79353C-0.0645117 3.24318 -0.0645117 3.97224 0.193535 4.42174C0.322515 4.64649 0.491668 4.75902 0.660733 4.75902C0.829799 4.75902 0.998952 4.64664 1.12793 4.42174L2.53754 1.96545C2.79559 1.5158 2.79559 0.786741 2.53754 0.337241C2.2795 -0.112414 1.86111 -0.112414 1.60315 0.337241Z"/>
	</g>

</svg>