<svg xmlns="http://www.w3.org/2000/svg" width="16.22" height="16.031" viewBox="0 0 16.22 16.031">
  <defs>
    <style>
      .cls-1 {
        fill: #c5c5c5;
        fill-rule: evenodd;
      }
    </style>
  </defs>
  <path id="Like" class="cls-1" d="M1535.26,280.219a0.732,0.732,0,0,0,.5-0.189c1.72-1.62,4.76-4.795,5.37-7.875a5.513,5.513,0,0,0-2.82-5.743c-0.89-.431-3.23-1.116-5.74,1.8l-1.46,1.62a0.731,0.731,0,0,0,.06,1.032,0.739,0.739,0,0,0,1.04-.062l1.46-1.627c1.32-1.554,2.75-2.073,4-1.46a4.086,4.086,0,0,1,2.02,4.146c-0.39,1.985-2.19,4.539-4.93,7.093a0.726,0.726,0,0,0-.18.8,0.734,0.734,0,0,0,.68.462h0Zm-1.59,1.511a0.739,0.739,0,0,1-1.03.146c-2.29-1.7-6.84-5.962-7.57-9.728a5.628,5.628,0,0,1,2.01-5.247,4.014,4.014,0,0,1,4.32-.482,0.73,0.73,0,0,1-.62,1.321,2.531,2.531,0,0,0-2.79.314,4.138,4.138,0,0,0-1.46,3.81c0.62,3.094,4.54,6.984,7.02,8.844a0.724,0.724,0,0,1,.14,1.022h-0.02Z" transform="translate(-1525 -266)"/>
</svg>
