<svg xmlns="http://www.w3.org/2000/svg" width="19" height="12.656" viewBox="0 0 19 12.656">
  <defs>
    <style>
      .cls-1 {
        fill: #c5c5c5;
        fill-rule: evenodd;
      }
    </style>
  </defs>
  <path id="Card" class="cls-1" d="M1542,236.218v-2.375a0.79,0.79,0,1,0-1.58,0v2.375a0.8,0.8,0,0,1-.8.792h-14.25a0.8,0.8,0,0,1-.79-0.792v-4.75h15.84a1.583,1.583,0,0,0,1.58-1.583V228.3a2.374,2.374,0,0,0-2.38-2.375h-14.25A2.372,2.372,0,0,0,1523,228.3a0.79,0.79,0,1,0,1.58,0,0.794,0.794,0,0,1,.79-0.791h14.25a0.8,0.8,0,0,1,.8.791v1.584h-15.84a1.583,1.583,0,0,0-1.58,1.583v4.75a2.372,2.372,0,0,0,2.37,2.375h14.25A2.374,2.374,0,0,0,1542,236.218Zm-3.96-1.583h-3.17a0.792,0.792,0,0,1,0-1.584h3.17A0.792,0.792,0,0,1,1538.04,234.635Z" transform="translate(-1523 -225.938)"/>
</svg>
