<svg id="Icon" xmlns="http://www.w3.org/2000/svg" width="75" height="68" viewBox="0 0 75 68">
  <defs>
    <style>
      .cls-1 {
        fill: #ffcf8f;
        fill-rule: evenodd;
      }
    </style>
  </defs>
  <path id="Shape" class="cls-1" d="M341,2560.62v36.72c0,5.13-2.758,10.62-10.484,10.62h-20v6.77h3.936a1.635,1.635,0,0,1,0,3.27H293.161a1.635,1.635,0,0,1,0-3.27h3.323v-6.77h-20c-5.065,0-10.484-2.79-10.484-10.62v-36.72c0-7.83,5.419-10.62,10.484-10.62h54.032C335.581,2550,341,2552.79,341,2560.62Zm-33.71,54.11h-7.58v-6.77h7.58v6.77ZM337.774,2595H269.226v2.34c0,6.63,5.08,7.35,7.258,7.35h54.032c6.548,0,7.258-5.15,7.258-7.35V2595Zm0-34.31c0-6.64-5.081-7.36-7.258-7.36H276.484c-2.178,0-7.258.72-7.258,7.36v31.06h68.548v-31.06Z" transform="translate(-266 -2550)"/>
  <path id="Path" class="cls-1" d="M329.678,2560.59l-13.261,17.91a1.628,1.628,0,0,1-1.269.65,1.876,1.876,0,0,1-1.286-.63l-5.738-7.51-9.355,10.53a1.426,1.426,0,0,1-.388.32,1.6,1.6,0,0,1-2.2-.58l-6.43-11.14-9.643,15.82a1.617,1.617,0,0,1-.271.46,1.59,1.59,0,0,1-2.264.2,1.625,1.625,0,0,1-.2-2.28l11.091-18.04a1.59,1.59,0,0,1,2.748.02l6.719,11.55,9.161-10.48a1.578,1.578,0,0,1,2.476.08l5.625,7.36,11.99-16.18h-0.078a1.6,1.6,0,0,1,2.25-.33A1.632,1.632,0,0,1,329.678,2560.59Z" transform="translate(-266 -2550)"/>
</svg>
