<svg id="Bar_Chart" data-name="Bar Chart" xmlns="http://www.w3.org/2000/svg" width="50" height="50" viewBox="0 0 50 50">
  <metadata><?xpacket begin="﻿" id="W5M0MpCehiHzreSzNTczkc9d"?>
<x:xmpmeta xmlns:x="adobe:ns:meta/" x:xmptk="Adobe XMP Core 5.6-c142 79.160924, 2017/07/13-01:06:39        ">
   <rdf:RDF xmlns:rdf="http://www.w3.org/1999/02/22-rdf-syntax-ns#">
      <rdf:Description rdf:about=""/>
   </rdf:RDF>
</x:xmpmeta>
                                                                                                    
                                                                                                    
                                                                                                    
                                                                                                    
                                                                                                    
                                                                                                    
                                                                                                    
                                                                                                    
                                                                                                    
                                                                                                    
                                                                                                    
                                                                                                    
                                                                                                    
                                                                                                    
                                                                                                    
                                                                                                    
                                                                                                    
                                                                                                    
                                                                                                    
                                                                                                    
                           
<?xpacket end="w"?></metadata>
<defs>
    <style>
      .cls-1 {
        fill: #b3cffc;
      }

      .cls-1, .cls-2 {
        fill-rule: evenodd;
      }

      .cls-2 {
        fill: #10e3ff;
      }
    </style>
  </defs>
  <path id="Path" class="cls-1" d="M368.333,3183.45h-4.666v-40.91h4.666v27.28a2.334,2.334,0,0,0,4.667,0v-27.28a4.6,4.6,0,0,0-4.667-4.54h-4.666a4.6,4.6,0,0,0-4.667,4.54v40.91a4.611,4.611,0,0,0,4.667,4.55h4.666a4.611,4.611,0,0,0,4.667-4.55v-4.54a2.334,2.334,0,0,0-4.667,0v4.54Z" transform="translate(-323 -3138)"/>
  <path id="Path-2" data-name="Path" class="cls-2" d="M327.667,3169.6v13.8h4.666v-13.8h-4.666Zm-4.667,0v13.8a4.634,4.634,0,0,0,4.667,4.6h4.666a4.634,4.634,0,0,0,4.667-4.6v-13.8a4.634,4.634,0,0,0-4.667-4.6h-4.666A4.634,4.634,0,0,0,323,3169.6Z" transform="translate(-323 -3138)"/>
  <path id="Path-3" data-name="Path" class="cls-1" d="M346.667,3161.43v22.14h4.666v-22.14h-4.666Zm-4.667,0v22.14a4.551,4.551,0,0,0,4.667,4.43h4.666a4.551,4.551,0,0,0,4.667-4.43v-22.14a4.551,4.551,0,0,0-4.667-4.43h-4.666A4.551,4.551,0,0,0,342,3161.43Z" transform="translate(-323 -3138)"/>
</svg>
