<svg id="flaticon1537477497-svg" xmlns="http://www.w3.org/2000/svg" width="40" height="34" viewBox="0 0 40 34">
  <metadata><?xpacket begin="﻿" id="W5M0MpCehiHzreSzNTczkc9d"?>
<x:xmpmeta xmlns:x="adobe:ns:meta/" x:xmptk="Adobe XMP Core 5.6-c142 79.160924, 2017/07/13-01:06:39        ">
   <rdf:RDF xmlns:rdf="http://www.w3.org/1999/02/22-rdf-syntax-ns#">
      <rdf:Description rdf:about=""/>
   </rdf:RDF>
</x:xmpmeta>
                                                                                                    
                                                                                                    
                                                                                                    
                                                                                                    
                                                                                                    
                                                                                                    
                                                                                                    
                                                                                                    
                                                                                                    
                                                                                                    
                                                                                                    
                                                                                                    
                                                                                                    
                                                                                                    
                                                                                                    
                                                                                                    
                                                                                                    
                                                                                                    
                                                                                                    
                                                                                                    
                           
<?xpacket end="w"?></metadata>
<defs>
    <style>
      .cls-1 {
        fill: #fff;
        fill-rule: evenodd;
      }
    </style>
  </defs>
  <path id="Shape" class="cls-1" d="M1354.64,1524.42l-5.36,5.43a3.862,3.862,0,0,1,.1.84,3.58,3.58,0,1,1-3.59-3.63,3.254,3.254,0,0,1,.83.1l5.36-5.44a1.854,1.854,0,0,1,2.66,0A1.938,1.938,0,0,1,1354.64,1524.42Z" transform="translate(-1326 -1508)"/>
  <path id="Shape-2" data-name="Shape" class="cls-1" d="M1362.63,1539a1.832,1.832,0,0,1-1.51.81,1.817,1.817,0,0,1-1.51-2.82,16.221,16.221,0,0,0,2.65-7.21h-1.71a1.81,1.81,0,1,1,0-3.62h1.72a16.314,16.314,0,0,0-3.46-8.39l-1.24,1.23a1.819,1.819,0,0,1-1.28.53,1.842,1.842,0,0,1-1.29-.53,1.8,1.8,0,0,1,0-2.56l1.24-1.24a16.273,16.273,0,0,0-8.34-3.47v1.69a1.82,1.82,0,0,1-3.64,0v-1.71a16.391,16.391,0,0,0-8.51,3.49l1.25,1.24a1.8,1.8,0,0,1,0,2.56,1.842,1.842,0,0,1-1.29.53,1.819,1.819,0,0,1-1.28-.53l-1.24-1.23a16.314,16.314,0,0,0-3.46,8.39h1.72a1.81,1.81,0,1,1,0,3.62h-1.71a16.1,16.1,0,0,0,2.65,7.21,1.8,1.8,0,0,1-.5,2.51,1.819,1.819,0,0,1-2.52-.5A19.977,19.977,0,1,1,1362.63,1539Z" transform="translate(-1326 -1508)"/>
  <path id="Shape-3" data-name="Shape" class="cls-1" d="M1357.35,1540.35a1.764,1.764,0,0,1-1.86,1.65h-16.81a1.659,1.659,0,1,1,0-3.29h16.81A1.763,1.763,0,0,1,1357.35,1540.35Z" transform="translate(-1326 -1508)"/>
</svg>
