<svg id="Diagram_Arrow_Left" data-name="Diagram Arrow Left" xmlns="http://www.w3.org/2000/svg" width="33.937" height="38.19" viewBox="0 0 33.937 38.19">
  <metadata><?xpacket begin="﻿" id="W5M0MpCehiHzreSzNTczkc9d"?>
<x:xmpmeta xmlns:x="adobe:ns:meta/" x:xmptk="Adobe XMP Core 5.6-c142 79.160924, 2017/07/13-01:06:39        ">
   <rdf:RDF xmlns:rdf="http://www.w3.org/1999/02/22-rdf-syntax-ns#">
      <rdf:Description rdf:about=""/>
   </rdf:RDF>
</x:xmpmeta>
                                                                                                    
                                                                                                    
                                                                                                    
                                                                                                    
                                                                                                    
                                                                                                    
                                                                                                    
                                                                                                    
                                                                                                    
                                                                                                    
                                                                                                    
                                                                                                    
                                                                                                    
                                                                                                    
                                                                                                    
                                                                                                    
                                                                                                    
                                                                                                    
                                                                                                    
                                                                                                    
                           
<?xpacket end="w"?></metadata>
<defs>
    <style>
      .cls-1 {
        fill: #fff;
        fill-rule: evenodd;
      }
    </style>
  </defs>
  <path id="Path" class="cls-1" d="M701.8,1529.82v10.82h-3.536v-10.82H701.8Zm3.535,0v10.82a3.567,3.567,0,0,1-3.535,3.6h-3.536a3.567,3.567,0,0,1-3.535-3.6v-10.82a3.576,3.576,0,0,1,3.535-3.61H701.8A3.576,3.576,0,0,1,705.333,1529.82Z" transform="translate(-683.063 -1506.06)"/>
  <path id="Path-2" data-name="Path" class="cls-1" d="M713.465,1525.5h-3.536v14.15h3.536v-1.77a1.768,1.768,0,1,1,3.535,0v1.77a3.532,3.532,0,0,1-3.535,3.53h-3.536a3.532,3.532,0,0,1-3.535-3.53V1525.5a3.532,3.532,0,0,1,3.535-3.53h3.536A3.532,3.532,0,0,1,717,1525.5v5.31a1.768,1.768,0,1,1-3.535,0v-5.31Z" transform="translate(-683.063 -1506.06)"/>
  <path id="Path-3" data-name="Path" class="cls-1" d="M690.131,1522.27v17.43H686.6v-17.43h3.535Zm3.536,0v17.43a3.51,3.51,0,0,1-3.536,3.48H686.6a3.51,3.51,0,0,1-3.536-3.48v-17.43a3.51,3.51,0,0,1,3.536-3.48h3.535A3.51,3.51,0,0,1,693.667,1522.27Z" transform="translate(-683.063 -1506.06)"/>
  <path id="Path-4" data-name="Path" class="cls-1" d="M700.068,1520.14l14.5-6.72a1.7,1.7,0,0,1,2.285.91,1.835,1.835,0,0,1-.877,2.38l-15.584,7.22a1.669,1.669,0,0,1-1.93-.37l-13.832-14.43a1.845,1.845,0,0,1,0-2.54,1.673,1.673,0,0,1,2.448,0Z" transform="translate(-683.063 -1506.06)"/>
  <path id="Path-5" data-name="Path" class="cls-1" d="M687.146,1513.5a1.683,1.683,0,0,1-1.686,1.71,1.717,1.717,0,0,1-1.7-1.73l-0.023-5.18a1.693,1.693,0,0,1,1.7-1.72l5.1,0.06a1.728,1.728,0,0,1,1.689,1.75,1.689,1.689,0,0,1-1.7,1.7l-3.39-.04Z" transform="translate(-683.063 -1506.06)"/>
</svg>
