<?xml version="1.0" encoding="utf-8" ?>
<svg xmlns="http://www.w3.org/2000/svg" xmlns:xlink="http://www.w3.org/1999/xlink" width="124" height="97">
	<defs>
		<clipPath id="clip_0">
			<rect width="124" height="97" clip-rule="evenodd"/>
		</clipPath>
	</defs>
	<g clip-path="url(#clip_0)">
		<path fill="rgb(159,74,255)" stroke="none" transform="translate(8.51904 0)" d="M105.934 42.5954C104.844 42.5954 103.961 41.7188 103.961 40.637C103.961 27.9807 99.1386 18.432 89.6287 12.2555C81.1095 6.72231 69.1066 3.91682 53.9542 3.91682C38.8018 3.91682 26.7989 6.72231 18.2797 12.2552C8.76979 18.432 3.94787 27.9807 3.94787 40.637C3.94787 41.7188 3.06407 42.5954 1.97393 42.5954C0.883796 42.5954 0 41.7188 0 40.637C0 14.4319 19.1614 0 53.9542 0C88.747 0 107.908 14.4319 107.908 40.637C107.908 41.7186 107.025 42.5954 105.934 42.5954Z"/>
	</g>
	<defs>
		<clipPath id="clip_1">
			<rect width="124" height="97" clip-rule="evenodd"/>
		</clipPath>
	</defs>
	<g clip-path="url(#clip_1)">
		<path fill="rgb(159,74,255)" stroke="none" transform="translate(26.5039 21.771)" d="M1.89313 0C0.849384 0 0 0.849384 0 1.89313C0 2.93687 0.849384 3.78626 1.89313 3.78626C2.93688 3.78626 3.78626 2.93687 3.78626 1.89313C3.78626 0.849384 2.93688 0 1.89313 0Z"/>
	</g>
	<defs>
		<clipPath id="clip_2">
			<rect width="124" height="97" clip-rule="evenodd"/>
		</clipPath>
	</defs>
	<g clip-path="url(#clip_2)">
		<path fill="rgb(159,74,255)" stroke="none" transform="translate(92.7634 21.771)" d="M0 1.89313C0 2.93687 0.849385 3.78626 1.89313 3.78626C2.93688 3.78626 3.78626 2.93687 3.78626 1.89313C3.78626 0.849384 2.93688 0 1.89313 0C0.849385 0 0 0.849384 0 1.89313Z"/>
	</g>
	<defs>
		<clipPath id="clip_3">
			<rect width="124" height="97" clip-rule="evenodd"/>
		</clipPath>
	</defs>
	<g clip-path="url(#clip_3)">
		<path fill="rgb(159,74,255)" stroke="none" transform="translate(86.1375 80.458)" d="M1.89313 0C2.93688 0 3.78626 0.849385 3.78626 1.89313C3.78626 2.93688 2.93688 3.78626 1.89313 3.78626C0.849385 3.78626 0 2.93688 0 1.89313C0 0.849385 0.849385 0 1.89313 0Z"/>
	</g>
	<defs>
		<clipPath id="clip_4">
			<rect width="124" height="97" clip-rule="evenodd"/>
		</clipPath>
	</defs>
	<g clip-path="url(#clip_4)">
		<path fill="rgb(159,74,255)" stroke="none" transform="translate(34.0764 26.5039)" d="M1.89313 0C0.849384 0 0 0.849384 0 1.89313C0 2.93688 0.849384 3.78626 1.89313 3.78626C2.93687 3.78626 3.78626 2.93688 3.78626 1.89313C3.78626 0.849384 2.93687 0 1.89313 0Z"/>
	</g>
	<defs>
		<clipPath id="clip_5">
			<rect width="124" height="97" clip-rule="evenodd"/>
		</clipPath>
	</defs>
	<g clip-path="url(#clip_5)">
		<path fill="rgb(159,74,255)" stroke="none" transform="translate(8.51904 76.6719)" d="M90.143 19.8779L17.7654 19.8779C7.96943 19.8779 0 11.8525 0 1.98779C0 0.889733 0.883796 0 1.97393 0C3.06407 0 3.94787 0.889733 3.94787 1.98779C3.94787 9.66011 10.1463 15.9023 17.7654 15.9023L90.143 15.9023C97.7618 15.9023 103.961 9.66011 103.961 1.98779C103.961 0.889733 104.844 0 105.934 0C107.025 0 107.908 0.889733 107.908 1.98779C107.908 11.8525 99.939 19.8779 90.143 19.8779Z"/>
	</g>
	<defs>
		<clipPath id="clip_6">
			<rect width="124" height="97" clip-rule="evenodd"/>
		</clipPath>
	</defs>
	<g clip-path="url(#clip_6)">
		<path fill="rgb(159,74,255)" stroke="none" transform="translate(0 39.7559)" d="M9.89362 24.6107L114.106 24.6107C119.562 24.6107 124 20.0107 124 14.3562L124 10.2545C124 4.60001 119.562 0 114.106 0L9.89362 0C4.43814 0 0 4.60001 0 10.2545L0 14.3562C0 20.0107 4.43814 24.6107 9.89362 24.6107ZM3.95745 10.2545C3.95745 6.86201 6.62028 4.10178 9.89362 4.10178L114.106 4.10178C117.379 4.10178 120.043 6.86201 120.043 10.2545L120.043 14.3562C120.043 17.7487 117.379 20.5089 114.106 20.5089L9.89362 20.5089C6.62028 20.5089 3.95745 17.7487 3.95745 14.3562L3.95745 10.2545Z" fill-rule="evenodd"/>
	</g>
	<defs>
		<clipPath id="clip_7">
			<rect width="124" height="97" clip-rule="evenodd"/>
		</clipPath>
	</defs>
	<g clip-path="url(#clip_7)">
		<path fill="rgb(159,74,255)" stroke="none" transform="translate(0 67.2061)" d="M102.014 9.46564C96.5219 9.46564 93.634 7.90462 91.0865 6.52697C88.635 5.20151 86.5181 4.0567 82.0058 4.0567C77.4938 4.0567 75.3768 5.20124 72.9253 6.52697C70.3778 7.90462 67.4902 9.46564 61.9985 9.46564C56.5072 9.46564 53.6199 7.90462 51.0723 6.52697C48.6208 5.20151 46.5041 4.0567 41.9921 4.0567C37.4801 4.0567 35.3634 5.20124 32.9119 6.52697C30.3644 7.90462 27.477 9.46564 21.9854 9.46564C16.4941 9.46564 13.6065 7.90462 11.0589 6.52697C8.60743 5.20151 6.49073 4.0567 1.97872 4.0567C0.885939 4.0567 0 3.14881 0 2.02835C0 0.907891 0.885939 0 1.97872 0C7.47006 0 10.3577 1.56102 12.9052 2.93868C15.3567 4.26414 17.4734 5.40894 21.9854 5.40894C26.4974 5.40894 28.6141 4.26441 31.0656 2.93868C33.6132 1.56102 36.5005 0 41.9921 0C47.4835 0 50.3711 1.56129 52.9186 2.93868C55.3701 4.26414 57.4868 5.40894 61.9985 5.40894C66.5103 5.40894 68.6273 4.26441 71.0788 2.93868C73.6263 1.56102 76.5139 0 82.0055 0C87.4971 0 90.385 1.56102 92.9325 2.93868C95.384 4.26414 97.501 5.40894 102.013 5.40894C106.526 5.40894 108.643 4.26441 111.094 2.93868C113.642 1.56102 116.53 0 122.021 0C123.114 0 124 0.907891 124 2.02835C124 3.14881 123.114 4.0567 122.021 4.0567C117.509 4.0567 115.392 5.20124 112.941 6.52697C110.393 7.90435 107.505 9.46564 102.014 9.46564Z"/>
	</g>

</svg>