<svg id="Icon_Location" data-name="Icon/Location" xmlns="http://www.w3.org/2000/svg" width="22" height="30.81" viewBox="0 0 22 30.81">
  <defs>
    <style>
      .cls-1 {
        fill: #fff;
        fill-rule: evenodd;
      }
    </style>
  </defs>
  <g id="flaticon1545572044-svg">
    <path id="Shape" class="cls-1" d="M1303,2055.83a10.757,10.757,0,0,1-1.55,5.55l-8.51,13.98a0.923,0.923,0,0,1-.78.44h-0.01a0.927,0.927,0,0,1-.78-0.43l-8.73-13.85a10.7,10.7,0,0,1-1.64-5.69A11,11,0,0,1,1303,2055.83Zm-1.83,0a9.176,9.176,0,0,0-18.35,0,8.936,8.936,0,0,0,1.38,4.74l7.94,12.59,7.73-12.71A8.859,8.859,0,0,0,1301.17,2055.83Z" transform="translate(-1281 -2045)"/>
    <path id="Shape-2" data-name="Shape" class="cls-1" d="M1297.87,2055.63a5.5,5.5,0,1,1-5.5-5.5A5.49,5.49,0,0,1,1297.87,2055.63Zm-1.83,0a3.675,3.675,0,1,0-3.67,3.68A3.687,3.687,0,0,0,1296.04,2055.63Z" transform="translate(-1281 -2045)"/>
  </g>
</svg>
