<svg id="flaticon1537555931-svg" xmlns="http://www.w3.org/2000/svg" width="16" height="24.44" viewBox="0 0 16 24.44">
  <defs>
    <style>
      .cls-1 {
        fill: #fff;
        fill-rule: evenodd;
      }
    </style>
  </defs>
  <path id="Shape" class="cls-1" d="M304,5213.07v-2.04H292v18.92l4.586-4.67-1.293-1.32a1.018,1.018,0,0,1,0-1.43,0.983,0.983,0,0,1,1.414,0l2,2.03,5.293,5.39v-12.81a1,1,0,1,1,2,0v15.26a1.012,1.012,0,0,1-.617.94,1.031,1.031,0,0,1-.383.08,0.969,0.969,0,0,1-.707-0.3l-6.293-6.4-6.293,6.4a0.985,0.985,0,0,1-1.09.22,1.011,1.011,0,0,1-.617-0.94v-22.38a1.012,1.012,0,0,1,1-1.02h14a1.012,1.012,0,0,1,1,1.02v3.05A1,1,0,1,1,304,5213.07Z" transform="translate(-290 -5209)"/>
</svg>
