<?xml version="1.0" encoding="utf-8" ?>
<svg xmlns="http://www.w3.org/2000/svg" xmlns:xlink="http://www.w3.org/1999/xlink" width="117" height="117">
	<defs>
		<clipPath id="clip_0">
			<rect x="-162" y="-326" width="360" height="690" clip-rule="evenodd"/>
		</clipPath>
	</defs>
	<g clip-path="url(#clip_0)">
		<path fill="rgb(0,225,206)" stroke="none" transform="matrix(1.19249e-08 1 -1 1.19249e-08 117 0)" d="M111.076 28.229L109.368 26.5205C113.112 21.2361 112.622 13.8513 107.892 9.12119C105.342 6.57182 101.941 5.1677 98.3144 5.1677C95.466 5.1677 92.7586 6.03713 90.4913 7.64388L88.7837 5.93626C80.8687 -1.97875 67.9897 -1.97875 60.0747 5.93626L55.6892 10.3218C54.7966 11.2144 54.7966 12.6614 55.6892 13.554C56.5809 14.4458 58.0279 14.4458 58.9205 13.554L63.3061 9.16761C69.4394 3.03519 79.4191 3.03519 85.5524 9.16761L87.1207 10.7369L10.7369 87.1216L9.16761 85.5524C3.03519 79.4191 3.03519 69.4394 9.16761 63.307L47.7786 24.6968C48.6704 23.8042 48.6704 22.3572 47.7786 21.4646C46.886 20.5728 45.439 20.5728 44.5473 21.4646L5.93626 60.0756C-1.97875 67.9906 -1.97875 80.8687 5.93626 88.7837L7.64388 90.4922C6.03713 92.7586 5.1677 95.466 5.1677 98.3144C5.1677 101.941 6.57182 105.342 9.12119 107.892C11.7616 110.532 15.2295 111.852 18.6983 111.852C21.4423 111.852 24.1862 111.022 26.5205 109.368L28.229 111.076C32.0486 114.896 37.1464 117 42.5826 117C48.0188 117 53.1166 114.896 56.9371 111.076L111.076 56.9371C114.896 53.1175 117 48.0197 117 42.5835C117 37.1464 114.896 32.0486 111.076 28.229ZM12.3525 104.66C10.6663 102.974 9.738 100.72 9.738 98.3144C9.738 95.9088 10.6655 93.6566 12.3508 91.9704C12.3516 91.9696 12.3525 91.9696 12.3525 91.9687L91.9696 12.3516C93.6549 10.6663 95.9088 9.73711 98.3144 9.73711C100.72 9.73711 102.974 10.6663 104.66 12.3525C108.159 15.8517 108.159 21.5449 104.66 25.0441L25.0423 104.662C21.5431 108.159 15.8508 108.159 12.3525 104.66ZM53.7058 107.844L107.845 53.7058C110.802 50.7493 112.431 46.7994 112.431 42.5835C112.431 38.3676 110.802 34.4168 107.845 31.4603L106.277 29.8911L103.47 32.6975L103.469 32.6984C101.926 34.2409 101.581 36.1038 102.04 37.0732C103.431 40.01 102.496 43.8528 99.7132 46.6361C96.9308 49.4184 93.088 50.3539 90.1512 48.9632C89.1818 48.5035 87.3189 48.848 85.7764 50.3905C84.234 51.9339 83.8894 53.7968 84.3482 54.7662C85.7389 57.7021 84.8044 61.5449 82.0211 64.3281C79.2388 67.1105 75.396 68.046 72.4592 66.6552C71.4898 66.1964 69.6277 66.5401 68.0861 68.0817L68.0817 68.0853C66.541 69.6277 66.1964 71.4898 66.6552 72.4583C68.046 75.3951 67.1114 79.2379 64.329 82.0202C61.5458 84.8035 57.7039 85.7389 54.7662 84.3473C53.7968 83.8885 51.9357 84.2331 50.3932 85.7738L50.3896 85.7782C48.848 87.3198 48.5044 89.1818 48.9632 90.1504C50.3539 93.088 49.4184 96.9308 46.6361 99.7132C43.8537 102.496 40.0109 103.431 37.0741 102.04C36.1038 101.581 34.2418 101.925 32.6984 103.469L29.8911 106.276L31.4603 107.844C34.4176 110.802 38.3676 112.43 42.5835 112.43C46.7994 112.43 50.7493 110.802 53.7058 107.844ZM97.9101 39.0299C98.3689 39.9993 98.0243 41.8613 96.4818 43.4047C94.9394 44.9472 93.0764 45.2926 92.107 44.8329C91.9285 44.7481 91.7464 44.6723 91.5616 44.6053L97.6824 38.4845C97.7503 38.6693 97.8253 38.8514 97.9101 39.0299ZM78.7898 61.0968C80.3322 59.5543 80.6768 57.6914 80.218 56.722C80.1332 56.5434 80.0573 56.3622 79.9904 56.1766L73.8695 62.2974C74.0543 62.3652 74.2364 62.4402 74.4141 62.525C75.3844 62.9847 77.2473 62.6393 78.7898 61.0968ZM62.525 74.4141C62.9838 75.3835 62.6393 77.2473 61.0968 78.7898C59.5543 80.3322 57.6914 80.6777 56.722 80.2171C56.5434 80.1332 56.3622 80.0573 56.1775 79.9904L62.2974 73.8695C62.3652 74.0543 62.4402 74.2364 62.525 74.4141ZM43.4047 96.4818C44.9472 94.9394 45.2918 93.0764 44.8329 92.107C44.7481 91.9285 44.6723 91.7464 44.6053 91.5616L38.4845 97.6824C38.6693 97.7503 38.8514 97.8252 39.0299 97.91C39.9984 98.3698 41.8622 98.0243 43.4047 96.4818Z" fill-rule="evenodd"/>
	</g>
	<defs>
		<clipPath id="clip_1">
			<rect x="-162" y="-326" width="360" height="690" clip-rule="evenodd"/>
		</clipPath>
	</defs>
	<g clip-path="url(#clip_1)">
		<path fill="rgb(0,225,206)" stroke="none" transform="matrix(1.19249e-08 1 -1 1.19249e-08 101 49)" d="M1.9807 4C2.48997 4 2.99847 3.80496 3.38546 3.41642L3.42338 3.3785C4.19503 2.60298 4.19194 1.34837 3.41564 0.576713C2.64012 -0.194939 1.38629 -0.191843 0.613863 0.583679L0.576712 0.621604C-0.194938 1.39713 -0.191842 2.65174 0.583678 3.42339C0.96989 3.80805 1.47607 4 1.9807 4Z"/>
	</g>
	<defs>
		<clipPath id="clip_2">
			<rect x="-162" y="-326" width="360" height="690" clip-rule="evenodd"/>
		</clipPath>
	</defs>
	<g clip-path="url(#clip_2)">
		<path fill="rgb(0,225,206)" stroke="none" transform="matrix(1.19249e-08 1 -1 1.19249e-08 74 43)" d="M1.75133 0.0219481L1.65863 0.035969C0.588373 0.205778 -0.143263 1.22541 0.0237493 2.31359C0.174673 3.29739 1.00897 4 1.95895 4C2.05931 4 2.1612 3.99221 2.26386 3.97585L2.32591 3.96651C3.3977 3.80526 4.13776 2.79108 3.97841 1.70212C3.81983 0.612386 2.82235 -0.140072 1.75133 0.0219481Z"/>
	</g>
	<defs>
		<clipPath id="clip_3">
			<rect x="-162" y="-326" width="360" height="690" clip-rule="evenodd"/>
		</clipPath>
	</defs>
	<g clip-path="url(#clip_3)">
		<path fill="rgb(0,225,206)" stroke="none" transform="matrix(1.19249e-08 1 -1 1.19249e-08 71 29)" d="M2.26352 3.97586L2.32634 3.96573C3.39721 3.80452 4.13717 2.79131 3.97861 1.70178C3.82004 0.61303 2.82194 -0.140063 1.75183 0.0219263L1.65915 0.0367234C0.589037 0.2065 -0.143263 1.22594 0.0237263 2.31391C0.175395 3.29753 1.00957 4 1.95865 4C2.05977 4 2.16164 3.99221 2.26352 3.97586Z"/>
	</g>
	<defs>
		<clipPath id="clip_4">
			<rect x="-162" y="-326" width="360" height="690" clip-rule="evenodd"/>
		</clipPath>
	</defs>
	<g clip-path="url(#clip_4)">
		<path fill="rgb(0,225,206)" stroke="none" transform="matrix(1.19249e-08 1 -1 1.19249e-08 58 27)" d="M1.73759 0.0242859L1.65945 0.0359677C0.589898 0.205743 -0.143309 1.2244 0.0237118 2.31237C0.173878 3.29675 1.00898 4 1.95901 4C2.05938 4 2.16051 3.99221 2.26241 3.97586L2.34055 3.9634C3.4101 3.7944 4.14331 2.77497 3.97629 1.687C3.81003 0.59981 2.80714 -0.146269 1.73759 0.0242859L1.73759 0.0242859Z"/>
	</g>
	<defs>
		<clipPath id="clip_5">
			<rect x="-162" y="-326" width="360" height="690" clip-rule="evenodd"/>
		</clipPath>
	</defs>
	<g clip-path="url(#clip_5)">
		<path fill="rgb(0,225,206)" stroke="none" transform="matrix(1.19249e-08 1 -1 1.19249e-08 55 13)" d="M2.27931 3.97351L2.32377 3.9665L2.32837 3.96572C3.40061 3.80368 4.13716 2.79013 3.97851 1.70102C3.81909 0.611127 2.81889 -0.140657 1.74664 0.0221643L1.64547 0.0377455C0.576288 0.215369 -0.148762 1.2406 0.0259862 2.32738C0.183872 3.30509 1.01622 4 1.96047 4C2.06548 4 2.17201 3.99143 2.27931 3.97351Z"/>
	</g>
	<defs>
		<clipPath id="clip_6">
			<rect x="-162" y="-326" width="360" height="690" clip-rule="evenodd"/>
		</clipPath>
	</defs>
	<g clip-path="url(#clip_6)">
		<path fill="rgb(0,225,206)" stroke="none" transform="matrix(1.19249e-08 1 -1 1.19249e-08 42 12)" d="M1.75136 0.0221014L1.64563 0.0384553C0.576828 0.216012 -0.14873 1.24008 0.0259554 2.32645C0.182253 3.30457 1.01431 4 1.95899 4C2.06319 4 2.16969 3.99143 2.27695 3.97352L2.32598 3.96573C3.39708 3.80453 4.1372 2.79059 3.9786 1.70188C3.82001 0.613179 2.82169 -0.140659 1.75136 0.0221014Z"/>
	</g>
	<defs>
		<clipPath id="clip_7">
			<rect x="-162" y="-326" width="360" height="690" clip-rule="evenodd"/>
		</clipPath>
	</defs>
	<g clip-path="url(#clip_7)">
		<path fill="rgb(0,225,206)" stroke="none" transform="matrix(1.19249e-08 1 -1 1.19249e-08 90 59)" d="M1.75055 0.0221423L1.65862 0.0361626C0.58837 0.205963 -0.143262 1.22555 0.0237492 2.31367C0.174672 3.29743 1.00896 4 1.95894 4C2.0593 4 2.16119 3.99221 2.26385 3.97585L2.32743 3.96651C3.39845 3.8045 4.13775 2.79036 3.97839 1.70068C3.81904 0.611772 2.82234 -0.140648 1.75055 0.0221423L1.75055 0.0221423Z"/>
	</g>
	<defs>
		<clipPath id="clip_8">
			<rect x="-162" y="-326" width="360" height="690" clip-rule="evenodd"/>
		</clipPath>
	</defs>
	<g clip-path="url(#clip_8)">
		<path fill="rgb(0,225,206)" stroke="none" transform="matrix(1.19249e-08 1 -1 1.19249e-08 88 46)" d="M2.26396 3.97586L2.3398 3.9634C3.41011 3.7944 4.14331 2.77497 3.97629 1.68778C3.81004 0.59981 2.80715 -0.14627 1.73762 0.0242852L1.6587 0.0367458C0.588399 0.206522 -0.143269 1.22596 0.0237503 2.31392C0.174681 3.29753 1.00901 4 1.95903 4C2.0594 4 2.16129 3.99221 2.26396 3.97586Z"/>
	</g>
	<defs>
		<clipPath id="clip_9">
			<rect x="-162" y="-326" width="360" height="690" clip-rule="evenodd"/>
		</clipPath>
	</defs>
	<g clip-path="url(#clip_9)">
		<path fill="rgb(0,225,206)" stroke="none" transform="matrix(1.19249e-08 1 -1 1.19249e-08 105 75)" d="M1.96114 4C2.06161 4 2.16362 3.99143 2.26639 3.97507L2.32084 3.96728C2.32084 3.96728 2.33005 3.96572 2.33005 3.96572C3.40227 3.80366 4.13779 2.79002 3.97826 1.70081C3.81873 0.611593 2.81784 -0.139482 1.74408 0.0217961L1.66049 0.0342621C0.589031 0.204111 -0.143423 1.22398 0.0237758 2.31242C0.174868 3.29645 1.01086 4 1.96114 4Z"/>
	</g>
	<defs>
		<clipPath id="clip_10">
			<rect x="-162" y="-326" width="360" height="690" clip-rule="evenodd"/>
		</clipPath>
	</defs>
	<g clip-path="url(#clip_10)">
		<path fill="rgb(0,225,206)" stroke="none" transform="matrix(1.19249e-08 1 -1 1.19249e-08 104 62)" d="M1.95851 4C2.06346 4 2.16994 3.99143 2.27642 3.97352L2.32622 3.96573C3.39717 3.80451 4.13718 2.79126 3.97861 1.70168C3.82003 0.612881 2.82262 -0.139466 1.75167 0.0217516L1.64596 0.0381069C0.577306 0.215679 -0.148151 1.23984 0.0257443 2.32708C0.182786 3.30451 1.01473 4 1.95851 4L1.95851 4Z"/>
	</g>
	<defs>
		<clipPath id="clip_11">
			<rect x="-162" y="-326" width="360" height="690" clip-rule="evenodd"/>
		</clipPath>
	</defs>
	<g clip-path="url(#clip_11)">
		<path fill="rgb(0,225,206)" stroke="none" transform="matrix(1.19249e-08 1 -1 1.19249e-08 35 61)" d="M5.92996 0.698519L0.698519 5.92996C-0.23284 6.86132 -0.23284 8.37105 0.698519 9.30241C1.1642 9.76716 1.77424 10 2.38428 10C2.99432 10 3.60436 9.76716 4.07004 9.30241L9.30148 4.07004C10.2328 3.13961 10.2328 1.62988 9.30148 0.698519C8.37012 -0.23284 6.86132 -0.23284 5.92996 0.698519L5.92996 0.698519Z"/>
	</g>
	<defs>
		<clipPath id="clip_12">
			<rect x="-162" y="-326" width="360" height="690" clip-rule="evenodd"/>
		</clipPath>
	</defs>
	<g clip-path="url(#clip_12)">
		<path fill="rgb(0,225,206)" stroke="none" transform="matrix(1.19249e-08 1 -1 1.19249e-08 25 57)" d="M0.618391 0.579887L0.580467 0.617811C-0.193489 1.39177 -0.193489 2.64558 0.580467 3.41953C0.967445 3.80651 1.47439 4 1.98133 4C2.48827 4 2.99521 3.80651 3.38219 3.41953L3.42011 3.38238C4.1933 2.60843 4.1933 1.35384 3.42011 0.579887C2.64616 -0.193296 1.39157 -0.193296 0.618391 0.579887Z"/>
	</g>

</svg>