<?xml version="1.0" encoding="utf-8" ?>
<svg xmlns="http://www.w3.org/2000/svg" xmlns:xlink="http://www.w3.org/1999/xlink" width="276" height="175">
	<defs>
		<clipPath id="clip_0">
			<rect x="-711.20361" y="-8481.1416" width="1696.9399" height="9662.5762" clip-rule="evenodd"/>
		</clipPath>
	</defs>
	<g clip-path="url(#clip_0)">
		<path fill="none" stroke="rgb(255,255,255)" stroke-width="1" stroke-miterlimit="4" stroke-opacity="0.043137256" transform="matrix(0.9982 0 0 0.9982 3.50781 0.563965)" d="M262 0L8 0Q6.92443 0 5.91037 0.253515Q4.89631 0.50703 4 1L266 1Q265.104 0.50703 264.09 0.253515Q263.076 0 262 0ZM269.043 4.07947L136.099 112.5L1.01988 3.96409Q0.517254 4.86658 0.258627 5.89003Q0 6.91348 0 8L0 167Q0 167.205 0.009326 167.408Q0.018652 167.612 0.037285 167.814Q0.055918 168.015 0.0838199 168.215Q0.111722 168.415 0.148836 168.612Q0.18595 168.808 0.2322 169.002Q0.27845 169.196 0.333743 169.387Q0.389035 169.577 0.453256 169.764Q0.517478 169.951 0.590497 170.133Q0.663517 170.316 0.745186 170.494Q0.826855 170.672 0.917006 170.845Q1.00716 171.018 1.10561 171.186Q1.20406 171.354 1.31061 171.516Q1.41715 171.678 1.53158 171.834Q1.64601 171.991 1.76809 172.141Q1.89016 172.291 2.01963 172.434Q2.14911 172.578 2.28571 172.714Q2.42232 172.851 2.56578 172.98Q2.70925 173.11 2.85927 173.232Q3.0093 173.354 3.16558 173.468Q3.32186 173.583 3.48408 173.689Q3.6463 173.796 3.81412 173.894Q3.98195 173.993 4.15504 174.083Q4.32813 174.173 4.50613 174.255Q4.68413 174.337 4.86668 174.41Q5.04923 174.483 5.23595 174.547Q5.42268 174.611 5.61319 174.666Q5.80371 174.722 5.99764 174.768Q6.19157 174.814 6.3885 174.851Q6.58544 174.888 6.78498 174.916Q6.98453 174.944 7.18627 174.963Q7.38802 174.981 7.59155 174.991Q7.79509 175 8 175L262 175Q262.205 175 262.408 174.991Q262.612 174.981 262.814 174.963Q263.016 174.944 263.215 174.916Q263.415 174.888 263.612 174.851Q263.808 174.814 264.002 174.768Q264.196 174.722 264.387 174.666Q264.577 174.611 264.764 174.547Q264.951 174.483 265.133 174.41Q265.316 174.337 265.494 174.255Q265.672 174.173 265.845 174.083Q266.018 173.993 266.186 173.894Q266.354 173.796 266.516 173.689Q266.678 173.583 266.834 173.468Q266.991 173.354 267.141 173.232Q267.291 173.11 267.434 172.98Q267.578 172.851 267.714 172.714Q267.851 172.578 267.98 172.434Q268.11 172.291 268.232 172.141Q268.354 171.991 268.468 171.834Q268.583 171.678 268.689 171.516Q268.796 171.354 268.894 171.186Q268.993 171.018 269.083 170.845Q269.173 170.672 269.255 170.494Q269.337 170.316 269.41 170.133Q269.483 169.951 269.547 169.764Q269.611 169.577 269.666 169.387Q269.722 169.196 269.768 169.002Q269.814 168.808 269.851 168.612Q269.888 168.415 269.916 168.215Q269.944 168.015 269.963 167.814Q269.981 167.612 269.991 167.408Q270 167.205 270 167L270 8Q270 6.94851 269.758 5.95521Q269.515 4.96191 269.043 4.07947Z" fill-rule="evenodd"/>
	</g>

</svg>