<svg xmlns="http://www.w3.org/2000/svg" width="31" height="20" viewBox="0 0 31 20">
  <defs>
    <style>
      .cls-1 {
        fill: #fff;
        fill-rule: evenodd;
      }
    </style>
  </defs>
  <path id="Options" class="cls-1" d="M934.409,2894.7h3.8a0.724,0.724,0,0,1,.649.45,4.2,4.2,0,0,0,7.58,0,0.725,0.725,0,0,1,.649-0.45h15.457a1.43,1.43,0,0,0,0-2.86h-15.5a0.724,0.724,0,0,1-.648-0.45,4.2,4.2,0,0,0-7.581,0,0.724,0.724,0,0,1-.648.45h-3.762A1.43,1.43,0,0,0,934.409,2894.7Zm28.182,8.6a1.43,1.43,0,0,1,0,2.86h-3.805a0.731,0.731,0,0,0-.648.44,4.193,4.193,0,0,1-7.581,0,0.731,0.731,0,0,0-.648-0.44h-15.5a1.43,1.43,0,0,1,0-2.86h15.542a0.723,0.723,0,0,0,.648-0.45,4.2,4.2,0,0,1,7.581,0,0.724,0.724,0,0,0,.648.45h3.763Z" transform="translate(-933 -2889)"/>
</svg>
