<svg xmlns="http://www.w3.org/2000/svg" xmlns:xlink="http://www.w3.org/1999/xlink" width="80" height="80" viewBox="0 0 80 80">
  <defs>
    <style>
      .cls-1 {
        filter: url(#filter);
      }

      .cls-2 {
        fill: #ff3664;
        fill-rule: evenodd;
      }
    </style>
    <filter id="filter" filterUnits="userSpaceOnUse">
      <feFlood result="flood" flood-color="#ff3a46"/>
      <feComposite result="composite" operator="in" in2="SourceGraphic"/>
      <feBlend result="blend" in2="SourceGraphic"/>
    </filter>
  </defs>
  <g id="flaticon1553622977-svg" class="cls-1">
    <path id="Path" class="cls-2" d="M392.519,3838.07a1.486,1.486,0,0,0-1.482,1.48v1.49h-1.481a1.48,1.48,0,1,0,0,2.96h2.962a1.48,1.48,0,0,0,1.482-1.48v-2.96A1.488,1.488,0,0,0,392.519,3838.07Z" transform="translate(-314 -3764)"/>
    <g id="Group">
      <path id="Path-2" data-name="Path" class="cls-2" d="M368.952,3841.09h-5.074a1.458,1.458,0,0,0,0,2.91h5.074A1.458,1.458,0,0,0,368.952,3841.09Z" transform="translate(-314 -3764)"/>
      <path id="Path-3" data-name="Path" class="cls-2" d="M381.64,3841.09h-5.074a1.458,1.458,0,0,0,0,2.91h5.074A1.458,1.458,0,0,0,381.64,3841.09Z" transform="translate(-314 -3764)"/>
    </g>
    <g id="Group-2" data-name="Group">
      <path id="Path-4" data-name="Path" class="cls-2" d="M330.477,3841.09h-5.1a1.375,1.375,0,0,0,0,2.75h5.1A1.375,1.375,0,0,0,330.477,3841.09Z" transform="translate(-314 -3764)"/>
      <path id="Path-5" data-name="Path" class="cls-2" d="M343.221,3841.09h-5.1a1.375,1.375,0,0,0,0,2.75h5.1A1.375,1.375,0,0,0,343.221,3841.09Z" transform="translate(-314 -3764)"/>
      <path id="Path-6" data-name="Path" class="cls-2" d="M355.963,3841.09h-5.1a1.375,1.375,0,0,0,0,2.75h5.1A1.375,1.375,0,0,0,355.963,3841.09Z" transform="translate(-314 -3764)"/>
    </g>
    <path id="Path-7" data-name="Path" class="cls-2" d="M318.444,3841.04h-1.481v-1.49a1.482,1.482,0,0,0-2.963,0v2.97a1.48,1.48,0,0,0,1.482,1.48h2.962A1.48,1.48,0,1,0,318.444,3841.04Z" transform="translate(-314 -3764)"/>
    <g id="Group-3" data-name="Group">
      <path id="Path-8" data-name="Path" class="cls-2" d="M315.453,3825.2a1.411,1.411,0,0,0-1.453,1.37v5.07a1.456,1.456,0,0,0,2.906,0v-5.07A1.411,1.411,0,0,0,315.453,3825.2Z" transform="translate(-314 -3764)"/>
      <path id="Path-9" data-name="Path" class="cls-2" d="M315.453,3812.51a1.411,1.411,0,0,0-1.453,1.37v5.07a1.456,1.456,0,0,0,2.906,0v-5.07A1.411,1.411,0,0,0,315.453,3812.51Z" transform="translate(-314 -3764)"/>
    </g>
    <g id="Group-4" data-name="Group">
      <path id="Path-10" data-name="Path" class="cls-2" d="M315.453,3799.49a1.42,1.42,0,0,0-1.453,1.38v5.09a1.455,1.455,0,0,0,2.906,0v-5.09A1.42,1.42,0,0,0,315.453,3799.49Z" transform="translate(-314 -3764)"/>
      <path id="Path-11" data-name="Path" class="cls-2" d="M315.453,3774.01a1.411,1.411,0,0,0-1.453,1.37v5.1a1.456,1.456,0,0,0,2.906,0v-5.1A1.411,1.411,0,0,0,315.453,3774.01Z" transform="translate(-314 -3764)"/>
      <path id="Path-12" data-name="Path" class="cls-2" d="M315.453,3786.75a1.411,1.411,0,0,0-1.453,1.37v5.1a1.456,1.456,0,0,0,2.906,0v-5.1A1.411,1.411,0,0,0,315.453,3786.75Z" transform="translate(-314 -3764)"/>
    </g>
    <path id="Path-13" data-name="Path" class="cls-2" d="M318.444,3764h-2.963a1.479,1.479,0,0,0-1.481,1.48v2.96a1.482,1.482,0,1,0,2.963,0v-1.48h1.481A1.48,1.48,0,1,0,318.444,3764Z" transform="translate(-314 -3764)"/>
    <g id="Group-5" data-name="Group">
      <path id="Path-14" data-name="Path" class="cls-2" d="M331.434,3764h-5.075a1.458,1.458,0,0,0,0,2.91h5.076A1.458,1.458,0,0,0,331.434,3764Z" transform="translate(-314 -3764)"/>
      <path id="Path-15" data-name="Path" class="cls-2" d="M344.122,3764h-5.075a1.458,1.458,0,0,0,0,2.91h5.075A1.458,1.458,0,0,0,344.122,3764Z" transform="translate(-314 -3764)"/>
    </g>
    <g id="Group-6" data-name="Group">
      <path id="Path-16" data-name="Path" class="cls-2" d="M357.134,3764h-5.1a1.457,1.457,0,0,0,0,2.91h5.1A1.458,1.458,0,0,0,357.134,3764Z" transform="translate(-314 -3764)"/>
      <path id="Path-17" data-name="Path" class="cls-2" d="M382.62,3764h-5.1a1.458,1.458,0,0,0,0,2.91h5.1A1.458,1.458,0,0,0,382.62,3764Z" transform="translate(-314 -3764)"/>
      <path id="Path-18" data-name="Path" class="cls-2" d="M369.878,3764h-5.1a1.457,1.457,0,0,0,0,2.91h5.1A1.458,1.458,0,0,0,369.878,3764Z" transform="translate(-314 -3764)"/>
    </g>
    <path id="Path-19" data-name="Path" class="cls-2" d="M392.518,3764h-2.962a1.48,1.48,0,1,0,0,2.96h1.481v1.48a1.482,1.482,0,1,0,2.963,0v-2.96A1.48,1.48,0,0,0,392.518,3764Z" transform="translate(-314 -3764)"/>
    <g id="Group-7" data-name="Group">
      <path id="Path-20" data-name="Path" class="cls-2" d="M392.547,3787.68a1.411,1.411,0,0,0-1.453,1.37v5.07a1.456,1.456,0,0,0,2.906,0v-5.07A1.411,1.411,0,0,0,392.547,3787.68Z" transform="translate(-314 -3764)"/>
      <path id="Path-21" data-name="Path" class="cls-2" d="M392.547,3774.99a1.411,1.411,0,0,0-1.453,1.37v5.08a1.456,1.456,0,0,0,2.906-.01v-5.07A1.411,1.411,0,0,0,392.547,3774.99Z" transform="translate(-314 -3764)"/>
    </g>
    <g id="Group-8" data-name="Group">
      <path id="Path-22" data-name="Path" class="cls-2" d="M392.547,3826.15a1.418,1.418,0,0,0-1.453,1.37v5.1a1.456,1.456,0,0,0,2.906,0v-5.1A1.418,1.418,0,0,0,392.547,3826.15Z" transform="translate(-314 -3764)"/>
      <path id="Path-23" data-name="Path" class="cls-2" d="M392.547,3800.66a1.42,1.42,0,0,0-1.453,1.38v5.09a1.455,1.455,0,0,0,2.906,0v-5.09A1.42,1.42,0,0,0,392.547,3800.66Z" transform="translate(-314 -3764)"/>
      <path id="Path-24" data-name="Path" class="cls-2" d="M392.547,3813.41a1.411,1.411,0,0,0-1.453,1.37v5.1a1.456,1.456,0,0,0,2.906,0v-5.1A1.411,1.411,0,0,0,392.547,3813.41Z" transform="translate(-314 -3764)"/>
    </g>
    <path id="Path-25" data-name="Path" class="cls-2" d="M335.234,3770.91a1.445,1.445,0,0,0-1.481,1.4v64.36a1.484,1.484,0,0,0,2.963,0v-64.36A1.445,1.445,0,0,0,335.234,3770.91Z" transform="translate(-314 -3764)"/>
    <path id="Path-26" data-name="Path" class="cls-2" d="M354,3770.91a1.445,1.445,0,0,0-1.482,1.4v64.36a1.484,1.484,0,0,0,2.963,0v-64.36A1.444,1.444,0,0,0,354,3770.91Z" transform="translate(-314 -3764)"/>
    <path id="Path-27" data-name="Path" class="cls-2" d="M373.753,3770.91a1.444,1.444,0,0,0-1.481,1.4v64.36a1.483,1.483,0,0,0,2.962,0v-64.36A1.444,1.444,0,0,0,373.753,3770.91Z" transform="translate(-314 -3764)"/>
    <path id="Path-28" data-name="Path" class="cls-2" d="M386.675,3782.76H322.313a1.488,1.488,0,0,0,0,2.97h64.362A1.488,1.488,0,0,0,386.675,3782.76Z" transform="translate(-314 -3764)"/>
    <path id="Path-29" data-name="Path" class="cls-2" d="M386.675,3802.52H322.313a1.482,1.482,0,0,0,0,2.96h64.362A1.482,1.482,0,0,0,386.675,3802.52Z" transform="translate(-314 -3764)"/>
    <path id="Path-30" data-name="Path" class="cls-2" d="M386.675,3821.28H322.313a1.488,1.488,0,0,0,0,2.97h64.362A1.488,1.488,0,0,0,386.675,3821.28Z" transform="translate(-314 -3764)"/>
  </g>
</svg>
