<svg xmlns="http://www.w3.org/2000/svg" width="50" height="50.03" viewBox="0 0 50 50.03">
  <defs>
    <style>
      .cls-1 {
        fill: #64d1ff;
        fill-rule: evenodd;
      }
    </style>
  </defs>
  <path id="Like" class="cls-1" d="M316.724,3640.86a2.221,2.221,0,0,0,1.547-.59c5.292-5,14.621-14.81,16.5-24.32a17.074,17.074,0,0,0-8.656-17.74c-2.736-1.33-9.934-3.45-17.648,5.57l-4.485,5a2.268,2.268,0,0,0,.19,3.19,2.241,2.241,0,0,0,3.173-.19l4.485-5.03c4.082-4.8,8.455-6.4,12.312-4.5a12.652,12.652,0,0,1,6.211,12.8c-1.211,6.13-6.727,14.02-15.159,21.91a2.262,2.262,0,0,0-.554,2.47,2.238,2.238,0,0,0,2.079,1.43h0Zm-5.07,5.23a2.223,2.223,0,0,1-3.142.45c-7.049-5.3-21.056-18.6-23.3-30.35a17.7,17.7,0,0,1,6.195-16.38,12.2,12.2,0,0,1,13.288-1.5,2.292,2.292,0,0,1,1.04,3.01,2.231,2.231,0,0,1-2.948,1.11,7.729,7.729,0,0,0-8.6.98,13.054,13.054,0,0,0-4.489,11.89c1.908,9.65,13.962,21.79,21.594,27.6a2.3,2.3,0,0,1,.449,3.19h-0.09Z" transform="translate(-285 -3596.97)"/>
</svg>
