<svg id="flaticon1550302567-svg" xmlns="http://www.w3.org/2000/svg" width="198.97" height="178.97" viewBox="0 0 198.97 178.97">
  <defs>
    <style>
      .cls-1 {
        fill: #fe1e48;
        fill-rule: evenodd;
      }
    </style>
  </defs>
  <path id="Shape" class="cls-1" d="M944.282,4431.66c28.788,12.29,72.138-10.92,64.918-43.23-4.05-18.14-21.682-31.27-40.519-34.53-16.3-2.82-31.3,3.9-42.278,14.49,2.27-15.14,8.988-30.31,15.557-42.82,11.008-20.96,26.795-43.24,47.782-56.44,7.843-4.93.488-16.92-7.422-11.95C936.174,4286.2,868.075,4399.12,944.282,4431.66Zm-15.152-43.92c9.275-15.02,24.637-23.86,43.156-18.82,15.824,4.31,27.529,20.66,20.255,35.34-13.8,27.87-53.492,17.89-63.505-6.8-0.2-3.08-.258-6.17-0.276-9.25C928.881,4388.05,929.018,4387.92,929.13,4387.74Z" transform="translate(-811 -4256.03)"/>
  <path id="Shape-2" data-name="Shape" class="cls-1" d="M845.284,4431.66c28.787,12.29,72.133-10.92,64.918-43.23-4.049-18.14-21.685-31.27-40.521-34.53-16.3-2.82-31.3,3.9-42.276,14.49,2.27-15.14,8.984-30.31,15.556-42.82,11.007-20.96,26.793-43.24,47.782-56.44,7.843-4.93.486-16.92-7.423-11.95C837.174,4286.2,769.074,4399.12,845.284,4431.66Zm-15.155-43.92c9.274-15.02,24.637-23.86,43.155-18.82,15.823,4.31,27.529,20.66,20.254,35.34-13.191,26.63-50.013,18.68-61.99-3.63a48.549,48.549,0,0,1-1.6-12.66A2.63,2.63,0,0,0,830.129,4387.74Z" transform="translate(-811 -4256.03)"/>
</svg>
