<svg 
 xmlns="http://www.w3.org/2000/svg"
 xmlns:xlink="http://www.w3.org/1999/xlink"
 width="30px" height="27px">
<path fill-rule="evenodd"  fill="rgb(255, 255, 255)"
 d="M13.174,12.878 C13.865,13.568 14.210,14.407 14.210,15.394 L14.210,22.499 C14.210,23.486 13.865,24.325 13.174,25.016 C12.483,25.706 11.644,26.052 10.658,26.052 L3.552,26.052 C2.566,26.052 1.727,25.706 1.036,25.016 C0.345,24.325 -0.000,23.486 -0.000,22.499 L-0.000,9.473 C-0.000,8.190 0.250,6.966 0.749,5.800 C1.249,4.634 1.924,3.625 2.775,2.775 C3.626,1.924 4.635,1.248 5.800,0.749 C6.966,0.249 8.190,-0.001 9.473,-0.001 L10.657,-0.001 C10.978,-0.001 11.256,0.116 11.490,0.351 C11.724,0.585 11.841,0.863 11.841,1.184 L11.841,3.552 C11.841,3.873 11.724,4.150 11.490,4.385 C11.256,4.619 10.978,4.736 10.657,4.736 L9.473,4.736 C8.166,4.736 7.049,5.198 6.124,6.124 C5.199,7.049 4.736,8.165 4.736,9.473 L4.736,10.065 C4.736,10.558 4.909,10.978 5.254,11.324 C5.600,11.668 6.019,11.841 6.513,11.841 L10.657,11.841 C11.644,11.841 12.483,12.187 13.174,12.878 Z"/>
<path fill-rule="evenodd"  fill="rgb(255, 255, 255)"
 d="M30.000,15.394 L30.000,22.499 C30.000,23.486 29.655,24.325 28.964,25.016 C28.273,25.706 27.434,26.052 26.447,26.052 L19.342,26.052 C18.355,26.052 17.516,25.706 16.825,25.016 C16.135,24.325 15.789,23.486 15.789,22.499 L15.789,9.473 C15.789,8.190 16.039,6.966 16.539,5.800 C17.038,4.634 17.714,3.625 18.565,2.775 C19.416,1.924 20.425,1.248 21.590,0.749 C22.756,0.249 23.980,-0.001 25.264,-0.001 L26.448,-0.001 C26.769,-0.001 27.046,0.116 27.281,0.351 C27.515,0.585 27.632,0.863 27.632,1.184 L27.632,3.552 C27.632,3.873 27.515,4.150 27.281,4.385 C27.046,4.619 26.769,4.736 26.448,4.736 L25.264,4.736 C23.956,4.736 22.839,5.198 21.914,6.124 C20.989,7.049 20.527,8.165 20.527,9.473 L20.527,10.065 C20.527,10.558 20.699,10.978 21.045,11.324 C21.390,11.668 21.810,11.841 22.303,11.841 L26.448,11.841 C27.435,11.841 28.274,12.187 28.964,12.878 C29.655,13.568 30.000,14.406 30.000,15.394 Z"/>
</svg>