<svg xmlns="http://www.w3.org/2000/svg" width="50" height="47" viewBox="0 0 50 47">
  <defs>
    <style>
      .cls-1 {
        fill: #ffba5f;
        fill-rule: evenodd;
        opacity: 0.7;
      }
    </style>
  </defs>
  <path id="Subscribe" class="cls-1" d="M1017.69,2698.22l18.76-36.97a4.919,4.919,0,0,0-.76-5.6,5.156,5.156,0,0,0-5.61-1.32l-39.7,14.75a5.038,5.038,0,0,0-3.377,4.95,4.964,4.964,0,0,0,3.743,4.61l8.442,1.92a2.312,2.312,0,0,0,2.181-.65,2.224,2.224,0,0,0,.52-2.18,2.271,2.271,0,0,0-1.67-1.53l-8.31-1.88a0.446,0.446,0,0,1-.365-0.45,0.6,0.6,0,0,1,.433-0.6l39.7-14.75a0.542,0.542,0,0,1,.59.13,0.516,0.516,0,0,1,.07.58l-18.82,36.96a0.581,0.581,0,0,1-.66.35,0.418,0.418,0,0,1-.41-0.33l-1.97-13.77,6.23-7.2a2.212,2.212,0,0,0-.27-3.16,2.31,2.31,0,0,0-3.22.27l-6.23,7.21a4.574,4.574,0,0,0-1.07,3.65l2.01,13.72a4.946,4.946,0,0,0,4.26,4.07h0.8A5.154,5.154,0,0,0,1017.69,2698.22Z" transform="translate(-987 -2654)"/>
</svg>
