<svg xmlns="http://www.w3.org/2000/svg" xmlns:xlink="http://www.w3.org/1999/xlink" width="70" height="49" viewBox="0 0 70 49">
  <defs>
    <style>
      .cls-1 {
        opacity: 0.2;
      }

      .cls-2 {
        filter: url(#filter);
      }

      .cls-3 {
        fill: #393939;
        fill-rule: evenodd;
      }
    </style>
    <filter id="filter" filterUnits="userSpaceOnUse">
      <feFlood result="flood"/>
      <feComposite result="composite" operator="in" in2="SourceGraphic"/>
      <feBlend result="blend" in2="SourceGraphic"/>
    </filter>
  </defs>
  <g id="Icon" class="cls-1">
    <g id="Group" class="cls-2">
      <path id="Path" class="cls-3" d="M873.823,550.64a1.159,1.159,0,0,0-.05-1.614L860.9,536.688a1.1,1.1,0,0,0-1.582.05,1.159,1.159,0,0,0,.049,1.614L872.24,550.69A1.1,1.1,0,0,0,873.823,550.64Z" transform="translate(-816 -512.125)"/>
      <path id="Path-2" data-name="Path" class="cls-3" d="M830.784,550.69l12.883-12.338a1.16,1.16,0,0,0,.049-1.614,1.1,1.1,0,0,0-1.582-.05l-12.883,12.338a1.159,1.159,0,0,0-.049,1.614,1.108,1.108,0,0,0,.817.361A1.1,1.1,0,0,0,830.784,550.69Z" transform="translate(-816 -512.125)"/>
    </g>
    <path id="Shape" class="cls-3" d="M886,555.565V517.677a5.606,5.606,0,0,0-5.643-5.556H821.643A5.606,5.606,0,0,0,816,517.677v37.888a5.606,5.606,0,0,0,5.643,5.556h58.714A5.607,5.607,0,0,0,886,555.565Zm-5.643-41.222a3.364,3.364,0,0,1,3.386,3.334v37.888a3.364,3.364,0,0,1-3.386,3.333H821.643a3.364,3.364,0,0,1-3.386-3.333V517.677a3.364,3.364,0,0,1,3.386-3.334h58.714Z" transform="translate(-816 -512.125)"/>
    <path id="Path-3" data-name="Path" class="cls-3" d="M855.226,539.664l29.382-24.578a1.069,1.069,0,0,0,.11-1.551,1.181,1.181,0,0,0-1.618-.106l-29.382,24.577a4.427,4.427,0,0,1-5.4,0L818.9,513.39a1.186,1.186,0,0,0-1.617.105,1.07,1.07,0,0,0,.112,1.552l29.419,24.619A6.806,6.806,0,0,0,855.226,539.664Z" transform="translate(-816 -512.125)"/>
  </g>
</svg>
