<svg id="Icon" xmlns="http://www.w3.org/2000/svg" width="72" height="79.88" viewBox="0 0 72 79.88">
  <metadata><?xpacket begin="﻿" id="W5M0MpCehiHzreSzNTczkc9d"?>
<x:xmpmeta xmlns:x="adobe:ns:meta/" x:xmptk="Adobe XMP Core 5.6-c142 79.160924, 2017/07/13-01:06:39        ">
   <rdf:RDF xmlns:rdf="http://www.w3.org/1999/02/22-rdf-syntax-ns#">
      <rdf:Description rdf:about=""/>
   </rdf:RDF>
</x:xmpmeta>
                                                                                                    
                                                                                                    
                                                                                                    
                                                                                                    
                                                                                                    
                                                                                                    
                                                                                                    
                                                                                                    
                                                                                                    
                                                                                                    
                                                                                                    
                                                                                                    
                                                                                                    
                                                                                                    
                                                                                                    
                                                                                                    
                                                                                                    
                                                                                                    
                                                                                                    
                                                                                                    
                           
<?xpacket end="w"?></metadata>
<defs>
    <style>
      .cls-1, .cls-3, .cls-4, .cls-5, .cls-6 {
        fill: none;
        stroke-width: 2px;
      }

      .cls-1, .cls-3 {
        stroke: #153b99;
      }

      .cls-1, .cls-2, .cls-3, .cls-4, .cls-5, .cls-6 {
        fill-rule: evenodd;
      }

      .cls-2 {
        fill: #fff;
      }

      .cls-3, .cls-5 {
        stroke-linejoin: round;
        stroke-miterlimit: 10;
      }

      .cls-4 {
        stroke: #22406d;
      }

      .cls-5 {
        stroke: #ff3b46;
      }

      .cls-6 {
        stroke: #6081a2;
      }
    </style>
  </defs>
  <path id="Path" class="cls-1" d="M778,1456.14V1487H716v-30.86a5.152,5.152,0,0,1,5.167-5.14h51.666A5.153,5.153,0,0,1,778,1456.14Z" transform="translate(-715 -1438.5)"/>
  <path id="Fill_15" data-name="Fill 15" class="cls-2" d="M727,1460h40v-21H727v21Z" transform="translate(-715 -1438.5)"/>
  <path id="Stroke_16" data-name="Stroke 16" class="cls-1" d="M726,1450.35V1484m41,0v-44h-2.563m-24.343,34.23h-5.125m21,0h-13m13.377-8.35h-5.69m-3.567,0h-12.12" transform="translate(-715 -1438.5)"/>
  <path id="Path-2" data-name="Path" class="cls-3" d="M736,1450H726l10-10v10Z" transform="translate(-715 -1438.5)"/>
  <path id="Stroke_18" data-name="Stroke 18" class="cls-4" d="M751,1498H741l-5,5h20Zm-20,5h0Z" transform="translate(-715 -1438.5)"/>
  <path id="Fill_19" data-name="Fill 19" class="cls-2" d="M731,1499h30v-5H731v5Z" transform="translate(-715 -1438.5)"/>
  <path id="Fill_20" data-name="Fill 20" class="cls-2" d="M778,1486v5a5.086,5.086,0,0,1-5.167,5H721.167a5.086,5.086,0,0,1-5.167-5v-5h62Z" transform="translate(-715 -1438.5)"/>
  <path id="Stroke_21" data-name="Stroke 21" class="cls-1" d="M778,1486v5a5.086,5.086,0,0,1-5.167,5H721.167a5.086,5.086,0,0,1-5.167-5v-5h62Z" transform="translate(-715 -1438.5)"/>
  <path id="Stroke_22" data-name="Stroke 22" class="cls-4" d="M742,1491h10" transform="translate(-715 -1438.5)"/>
  <path id="Fill_23" data-name="Fill 23" class="cls-2" d="M764,1458a6,6,0,1,0-6,6,6,6,0,0,0,6-6" transform="translate(-715 -1438.5)"/>
  <path id="Fill_24" data-name="Fill 24" class="cls-2" d="M752,1450.5a4.5,4.5,0,1,0-4.5,4.5,4.5,4.5,0,0,0,4.5-4.5" transform="translate(-715 -1438.5)"/>
  <path id="Stroke_25" data-name="Stroke 25" class="cls-5" d="M746.273,1449a2.666,2.666,0,1,0,2.727,2.67A2.7,2.7,0,0,0,746.273,1449Zm10.936-9a1.625,1.625,0,1,0,1.664,1.63A1.648,1.648,0,0,0,757.209,1440Z" transform="translate(-715 -1438.5)"/>
  <path id="Fill_26" data-name="Fill 26" class="cls-2" d="M757.251,1479a1.2,1.2,0,0,0,.413-0.07l8.305-2.86L786,1455.37l-7.131-7.37-20.032,20.7-2.768,8.58a1.311,1.311,0,0,0,.166,1.17,1.267,1.267,0,0,0,1.016.55" transform="translate(-715 -1438.5)"/>
  <path id="Stroke_28" data-name="Stroke 28" class="cls-5" d="M767.537,1472.15L786,1453.69l-3.693-3.69-18.461,18.46L762,1474Z" transform="translate(-715 -1438.5)"/>
  <path id="Path_10" data-name="Path 10" class="cls-6" d="M736,1439.5h9" transform="translate(-715 -1438.5)"/>
</svg>
