<svg id="Icon" xmlns="http://www.w3.org/2000/svg" width="32" height="32" viewBox="0 0 32 32">
  <defs>
    <style>
      .cls-1, .cls-2 {
        fill: #fff;
      }

      .cls-2 {
        fill-rule: evenodd;
      }
    </style>
  </defs>
  <circle id="Oval" class="cls-1" cx="16.5" cy="23.5" r="1.5"/>
  <path id="Shape" class="cls-2" d="M869,7330a16,16,0,1,1-16-16A15.994,15.994,0,0,1,869,7330Zm-2.5,0a13.5,13.5,0,1,0-13.5,13.5A13.494,13.494,0,0,0,866.5,7330Z" transform="translate(-837 -7314)"/>
  <path id="Path" class="cls-2" d="M858,7326.95a4.977,4.977,0,0,1-3.75,4.8v2.01a1.25,1.25,0,0,1-2.5,0v-3.09a1.242,1.242,0,0,1,1.25-1.24,2.475,2.475,0,1,0-2.5-2.48,1.25,1.25,0,0,1-2.5,0A5,5,0,0,1,858,7326.95Z" transform="translate(-837 -7314)"/>
</svg>
