<svg id="Icon" xmlns="http://www.w3.org/2000/svg" width="52.997" height="52.997" viewBox="0 0 70 70">
  <defs>
    <style>
      .cls-1, .cls-2 {
        fill: #e1a34c;
      }

      .cls-1 {
        fill-rule: evenodd;
      }
    </style>
  </defs>
  <path id="Shape" class="cls-1" d="M944.251,4742.18H942v-50.56a5.63,5.63,0,0,1,5.628-5.62H976.9a5.63,5.63,0,0,1,5.628,5.62v5.62h-2.251v-2.25H944.251v47.19Zm0-49.44h36.024v-1.12a3.377,3.377,0,0,0-3.377-3.37h-29.27a3.377,3.377,0,0,0-3.377,3.37v1.12Z" transform="translate(-942 -4686)"/>
  <path id="Shape-2" data-name="Shape" class="cls-1" d="M942,4744.95h40.526v5.52A5.586,5.586,0,0,1,976.9,4756h-29.27a5.586,5.586,0,0,1-5.628-5.53v-5.52Zm2.251,5.52a3.354,3.354,0,0,0,3.377,3.32H976.9a3.354,3.354,0,0,0,3.377-3.32v-3.31H944.251v3.31Z" transform="translate(-942 -4686)"/>
  <path id="Shape-3" data-name="Shape" class="cls-1" d="M1000.03,4727.91a6.91,6.91,0,1,1-6.912-6.91A6.911,6.911,0,0,1,1000.03,4727.91Zm-2.306,0a4.606,4.606,0,1,0-4.606,4.6A4.614,4.614,0,0,0,997.724,4727.91Z" transform="translate(-942 -4686)"/>
  <path id="Shape-4" data-name="Shape" class="cls-1" d="M966.868,4711.79a5.526,5.526,0,1,1-5.526-5.53A5.534,5.534,0,0,1,966.868,4711.79Zm-2.21,0a3.316,3.316,0,1,0-3.316,3.31A3.322,3.322,0,0,0,964.658,4711.79Z" transform="translate(-942 -4686)"/>
  <path id="Shape-5" data-name="Shape" class="cls-1" d="M964.561,4727.45H958.18l-0.826-4.2c-0.209-.08-0.416-0.17-0.622-0.26l-3.507,2.37-3.857-3.91,1.6-1.63,2.544,2.59,3.064-2.08,0.594,0.32a8.729,8.729,0,0,0,1.5.64l0.64,0.2,0.721,3.66h2.672l0.721-3.66,0.64-.2a8.729,8.729,0,0,0,1.5-.64l0.594-.32,3.064,2.08,1.888-1.92-2.043-3.11,0.312-.6a8.976,8.976,0,0,0,.628-1.53l0.2-.65,3.6-.73v-2.71l-3.6-.73-0.2-.65a9.141,9.141,0,0,0-.628-1.53l2-1.07a12.873,12.873,0,0,1,.562,1.26l4.13,0.84v6.47l-4.13.84q-0.12.315-.261,0.63l2.339,3.56-4.512,4.59-3.508-2.38c-0.206.1-.413,0.18-0.621,0.27Z" transform="translate(-942 -4686)"/>
  <path id="Shape-6" data-name="Shape" class="cls-1" d="M950.735,4707.91c0.079-.21.167-0.42,0.261-0.63l-2.339-3.56,4.511-4.58,3.509,2.37c0.207-.1.413-0.18,0.621-0.27l0.826-4.19h6.381l0.825,4.19c0.208,0.09.414,0.17,0.621,0.27l3.509-2.37,3.856,3.91-1.6,1.62-2.545-2.58-3.066,2.08-0.594-.32a8.6,8.6,0,0,0-1.5-.64l-0.641-.2-0.72-3.66h-2.672l-0.721,3.66-0.64.2a8.678,8.678,0,0,0-1.5.64l-0.594.32-3.065-2.08-1.889,1.92,2.043,3.11-0.312.6a8.976,8.976,0,0,0-.628,1.53l-0.2.65-3.6.73v2.71l3.6,0.73,0.2,0.65a9.226,9.226,0,0,0,.628,1.53l-2,1.07a13.1,13.1,0,0,1-.561-1.26l-4.13-.84v-6.48Z" transform="translate(-942 -4686)"/>
  <path id="Rectangle-path" class="cls-1" d="M960.421,4729.29h1.842v1.84h-1.842v-1.84Z" transform="translate(-942 -4686)"/>
  <rect id="Rectangle-path-2" data-name="Rectangle-path" class="cls-2" x="18.406" y="46.97" width="1.844" height="1.84"/>
  <path id="Rectangle-path-3" data-name="Rectangle-path" class="cls-1" d="M960.421,4737.58h1.842v1.84h-1.842v-1.84Z" transform="translate(-942 -4686)"/>
  <path id="Rectangle-path-4" data-name="Rectangle-path" class="cls-1" d="M991.737,4704.42h1.842v1.84h-1.842v-1.84Z" transform="translate(-942 -4686)"/>
  <rect id="Rectangle-path-5" data-name="Rectangle-path" class="cls-2" x="49.75" y="13.81" width="1.844" height="1.85"/>
  <path id="Rectangle-path-6" data-name="Rectangle-path" class="cls-1" d="M991.737,4695.21h1.842v1.84h-1.842v-1.84Z" transform="translate(-942 -4686)"/>
  <path id="Shape-7" data-name="Shape" class="cls-1" d="M1006.46,4732.91c-0.05.13-.1,0.25-0.16,0.38l3.14,4.76-6.07,6.15-4.7-3.18c-0.123.05-.246,0.11-0.37,0.16l-1.107,5.61H988.6l-1.109-5.61c-0.124-.05-0.247-0.11-0.37-0.16l-4.7,3.18-5.42-5.49,1.589-1.61,4.116,4.17,4.231-2.86,0.578,0.29a13.835,13.835,0,0,0,1.326.56l0.608,0.21,1,5.04h4.9l0.994-5.04,0.608-.21a13.728,13.728,0,0,0,1.326-.56l0.579-.29,4.228,2.86,3.47-3.51-2.82-4.28,0.28-.59a11.8,11.8,0,0,0,.55-1.34l0.21-.62,4.98-1.01v-4.96l-4.98-1.01-0.21-.61a11.8,11.8,0,0,0-.55-1.34l2.02-1c0.16,0.32.3,0.65,0.43,0.97l5.54,1.12v8.7Z" transform="translate(-942 -4686)"/>
  <path id="Shape-8" data-name="Shape" class="cls-1" d="M981.947,4711.62l4.7,3.17,0.369-.15,1.108-5.61h8.585l1.109,5.61,0.369,0.15,4.709-3.17,5.42,5.49-1.59,1.61-4.12-4.17-4.229,2.85-0.58-.28a10.023,10.023,0,0,0-1.328-.56l-0.606-.22-1-5.04h-4.9l-0.994,5.04-0.605.22a9.925,9.925,0,0,0-1.329.56l-0.58.28-4.229-2.85-3.465,3.5,2.82,4.29-0.282.58a12.75,12.75,0,0,0-.551,1.35l-0.211.61-4.981,1.01v4.96l4.981,1.01,0.211,0.62a12.191,12.191,0,0,0,.551,1.34l-2.022.99c-0.154-.32-0.3-0.64-0.426-0.97l-5.542-1.12v-8.7l5.541-1.12c0.05-.12.1-0.25,0.154-0.37l-3.136-4.76Z" transform="translate(-942 -4686)"/>
</svg>
