<svg id="Icon" xmlns="http://www.w3.org/2000/svg" width="335" height="334" viewBox="0 0 335 334">
  <defs>
    <style>
      .cls-1 {
        fill: #fff;
        fill-rule: evenodd;
      }
    </style>
  </defs>
  <path id="Shape" class="cls-1" d="M664.867,2958.39A140.111,140.111,0,0,1,700,3051.26a6.715,6.715,0,0,1-6.741,6.74H559.741a6.715,6.715,0,0,1-6.741-6.74V2917.74a6.715,6.715,0,0,1,6.741-6.74A140.469,140.469,0,0,1,664.867,2958.39Zm21.516,86.13a126.845,126.845,0,0,0-119.9-119.83v119.83h119.9Z" transform="translate(-365 -2911)"/>
  <path id="Shape-2" data-name="Shape" class="cls-1" d="M516.034,3245C432.724,3245,365,3177,365,3093.5c0-83.57,67.724-151.5,151.034-151.5a6.718,6.718,0,0,1,6.738,6.76v137.98h137.49A6.718,6.718,0,0,1,667,3093.5C667,3177,599.344,3245,516.034,3245Zm137.353-144.81H516.034a6.718,6.718,0,0,1-6.738-6.76V2955.65c-72.761,3.55-130.819,64.05-130.819,137.85,0,76.06,61.734,137.98,137.557,137.98C589.611,3231.48,649.848,3173.18,653.387,3100.19Z" transform="translate(-365 -2911)"/>
</svg>
