<svg xmlns="http://www.w3.org/2000/svg" width="14" height="18.656" viewBox="0 0 14 18.656">
  <defs>
    <style>
      .cls-1 {
        fill: #c5c5c5;
        fill-rule: evenodd;
      }
    </style>
  </defs>
  <path id="Account" class="cls-1" d="M1539,154.333v-3.227a2.785,2.785,0,0,0-1.66-2.466,14.264,14.264,0,0,0-10.68,0,2.785,2.785,0,0,0-1.66,2.466v4.783a0.78,0.78,0,0,0,1.56,0v-4.783a1.248,1.248,0,0,1,.69-1.019,12.681,12.681,0,0,1,9.5,0,1.248,1.248,0,0,1,.69,1.019v3.227a0.771,0.771,0,0,1-.77.778h-7.78a0.778,0.778,0,1,0,0,1.556h7.78A2.33,2.33,0,0,0,1539,154.333Zm-3.11-12.444A3.89,3.89,0,1,1,1532,138a3.888,3.888,0,0,1,3.89,3.889h0Zm-3.89-2.334a2.334,2.334,0,1,0,2.33,2.334A2.33,2.33,0,0,0,1532,139.555Z" transform="translate(-1525 -138)"/>
</svg>
