<svg xmlns="http://www.w3.org/2000/svg" width="16.72" height="20.031" viewBox="0 0 16.72 20.031">
  <defs>
    <style>
      .cls-1 {
        stroke: #333;
        stroke-width: 0.5px;
        fill-rule: evenodd;
      }
    </style>
  </defs>
  <path id="Shape" class="cls-1" d="M1575.23,82.923a2.856,2.856,0,0,1-3.05,2.6h-10.14a2.846,2.846,0,0,1-3.04-2.6V82.875l1.16-12.587a0.556,0.556,0,0,1,.56-0.491h2.39a4.011,4.011,0,0,1,8.01,0h2.39a0.546,0.546,0,0,1,.55.491l1.16,12.587A0.083,0.083,0,0,1,1575.23,82.923Zm-11-13.126H1570A2.89,2.89,0,0,0,1564.23,69.8Zm9.88,13.15-1.12-12.068h-1.87v1.637a0.56,0.56,0,0,1-1.12,0V70.878h-5.78v1.637a0.542,0.542,0,0,1-.56.539,0.548,0.548,0,0,1-.56-0.539V70.878h-1.87l-1.11,12.068a1.769,1.769,0,0,0,1.92,1.5h10.14A1.779,1.779,0,0,0,1574.11,82.947Z" transform="translate(-1558.75 -65.75)"/>
</svg>
