<svg id="Icon" xmlns="http://www.w3.org/2000/svg" width="74" height="75" viewBox="0 0 74 75">
  <metadata><?xpacket begin="﻿" id="W5M0MpCehiHzreSzNTczkc9d"?>
<x:xmpmeta xmlns:x="adobe:ns:meta/" x:xmptk="Adobe XMP Core 5.6-c142 79.160924, 2017/07/13-01:06:39        ">
   <rdf:RDF xmlns:rdf="http://www.w3.org/1999/02/22-rdf-syntax-ns#">
      <rdf:Description rdf:about=""/>
   </rdf:RDF>
</x:xmpmeta>
                                                                                                    
                                                                                                    
                                                                                                    
                                                                                                    
                                                                                                    
                                                                                                    
                                                                                                    
                                                                                                    
                                                                                                    
                                                                                                    
                                                                                                    
                                                                                                    
                                                                                                    
                                                                                                    
                                                                                                    
                                                                                                    
                                                                                                    
                                                                                                    
                                                                                                    
                                                                                                    
                           
<?xpacket end="w"?></metadata>
<defs>
    <style>
      .cls-1 {
        fill: #fff;
      }

      .cls-1, .cls-2, .cls-3, .cls-4, .cls-5, .cls-6, .cls-7 {
        fill-rule: evenodd;
      }

      .cls-2, .cls-5 {
        fill: none;
        stroke-width: 2px;
      }

      .cls-2 {
        stroke: #153b99;
      }

      .cls-3 {
        fill: #f2f7fa;
      }

      .cls-4 {
        fill: #f6fafd;
      }

      .cls-5 {
        stroke: #ff3844;
      }

      .cls-6 {
        fill: #ff5c00;
      }

      .cls-7 {
        fill: #ff3844;
      }
    </style>
  </defs>
  <path id="Fill_48" data-name="Fill 48" class="cls-1" d="M302.865,1512h52.942v-75H302.865v75Z" transform="translate(-289 -1437)"/>
  <path id="Stroke_49" data-name="Stroke 49" class="cls-2" d="M307.277,1508.22h44.748v-66.81H307.277v66.81Zm9.789-55.67h0Zm19.577,0h0Zm-19.577,11.13h0Zm19.577,0h0Zm-19.577,11.13h0Zm19.577,0h0Zm-19.577,11.14h0Zm19.577,0h0Zm-13.984,5.57h0Z" transform="translate(-289 -1437)"/>
  <path id="Fill_50" data-name="Fill 50" class="cls-3" d="M291.521,1501.92h31.513V1470.4H291.521v31.52Z" transform="translate(-289 -1437)"/>
  <path id="Fill_51" data-name="Fill 51" class="cls-4" d="M295.933,1481.12a6.935,6.935,0,1,0-6.933-6.94,6.943,6.943,0,0,0,6.933,6.94" transform="translate(-289 -1437)"/>
  <path id="Fill_52" data-name="Fill 52" class="cls-4" d="M317.992,1481.12a6.935,6.935,0,1,0-6.933-6.94,6.943,6.943,0,0,0,6.933,6.94" transform="translate(-289 -1437)"/>
  <path id="Fill_53" data-name="Fill 53" class="cls-4" d="M295.933,1503.81a6.935,6.935,0,1,0-6.933-6.94,6.943,6.943,0,0,0,6.933,6.94" transform="translate(-289 -1437)"/>
  <path id="Fill_54" data-name="Fill 54" class="cls-4" d="M317.992,1503.81a6.935,6.935,0,1,0-6.933-6.94,6.943,6.943,0,0,0,6.933,6.94" transform="translate(-289 -1437)"/>
  <path id="Stroke_55" data-name="Stroke 55" class="cls-5" d="M296.185,1471.66a2.775,2.775,0,1,0,2.773,2.78A2.78,2.78,0,0,0,296.185,1471.66Zm22.185,0a2.775,2.775,0,1,0,2.773,2.78A2.78,2.78,0,0,0,318.37,1471.66Zm-22.185,22.19a2.77,2.77,0,1,0,2.773,2.77A2.771,2.771,0,0,0,296.185,1493.85Zm22.185,0a2.77,2.77,0,1,0,2.773,2.77A2.771,2.771,0,0,0,318.37,1493.85Z" transform="translate(-289 -1437)"/>
  <path id="Fill_56" data-name="Fill 56" class="cls-6" d="M310.338,1497.5h1.351v-1.26h-1.351v1.26Zm-4.051,0h1.35v-1.26h-1.35v1.26Zm-4.052,0h1.351v-1.26h-1.351v1.26Z" transform="translate(-289 -1437)"/>
  <path id="Fill_57" data-name="Fill 57" class="cls-7" d="M310.338,1474.81h1.351v-1.26h-1.351v1.26Zm-4.051,0h1.35v-1.26h-1.35v1.26Zm-4.052,0h1.351v-1.26h-1.351v1.26Z" transform="translate(-289 -1437)"/>
  <path id="Stroke_58" data-name="Stroke 58" class="cls-5" d="M295.933,1479.86v11.34m22.059-11.34v11.34" transform="translate(-289 -1437)"/>
  <path id="Fill_59" data-name="Fill 59" class="cls-6" d="M313.2,1492.46l-1.009-1.01,1.009-1.01,1.008,1.01Zm-3.026-3.02-1.008-1.01,1.008-1.01,1.009,1.01-1.009,1.01h0Z" transform="translate(-289 -1437)"/>
  <path id="Stroke_60" data-name="Stroke 60" class="cls-5" d="M300.344,1492.46l13.866-13.86" transform="translate(-289 -1437)"/>
  <path id="Fill_61" data-name="Fill 61" class="cls-6" d="M303.748,1483.64l-1.009-1.01,1.009-1.01,1.008,1.01Zm-3.025-3.03-1.009-1.01,1.009-1,1.008,1-1.008,1.01h0Z" transform="translate(-289 -1437)"/>
  <path id="Stroke_62" data-name="Stroke 62" class="cls-2" d="M359.269,1497.37H362V1453h-2.731" transform="translate(-289 -1437)"/>
</svg>
