<svg id="Icon_Send" data-name="Icon/Send" xmlns="http://www.w3.org/2000/svg" width="76" height="71" viewBox="0 0 76 71">
  <defs>
    <style>
      .cls-1 {
        fill: #ffba5f;
        fill-rule: evenodd;
        opacity: 0.7;
      }
    </style>
  </defs>
  <g id="Icon">
    <path id="Subscribe" class="cls-1" d="M313.654,1328.81l28.509-55.86a7.386,7.386,0,0,0-1.157-8.46,7.868,7.868,0,0,0-8.519-1.99l-60.347,22.28a7.622,7.622,0,0,0-5.133,7.48,7.51,7.51,0,0,0,5.688,6.96l12.832,2.91a3.543,3.543,0,0,0,3.319-.99,3.323,3.323,0,0,0,.78-3.3,3.433,3.433,0,0,0-2.538-2.3l-12.624-2.84a0.684,0.684,0,0,1-.555-0.68,0.905,0.905,0,0,1,.659-0.91l60.346-22.28a0.8,0.8,0,0,1,.891.19,0.774,0.774,0,0,1,.115.89l-28.613,55.82a0.9,0.9,0,0,1-1,.54,0.658,0.658,0,0,1-.625-0.51l-2.982-20.79,9.468-10.89a3.317,3.317,0,0,0-.416-4.76,3.525,3.525,0,0,0-4.89.4l-9.469,10.89a6.869,6.869,0,0,0-1.63,5.51l3.052,20.72A7.523,7.523,0,0,0,305.3,1333h1.214A7.844,7.844,0,0,0,313.654,1328.81Z" transform="translate(-267 -1262)"/>
  </g>
</svg>
