<svg xmlns="http://www.w3.org/2000/svg" width="43" height="35" viewBox="0 0 43 35">
  <defs>
    <style>
      .cls-1 {
        fill: #ff3a46;
        fill-rule: evenodd;
      }
    </style>
  </defs>
  <path class="cls-1" d="M9.854,15.256a9.828,9.828,0,0,0-8.062,4.218V10.132A8.216,8.216,0,0,1,9.854,1.795,0.9,0.9,0,0,0,9.854,0,10,10,0,0,0,0,10.132v15A9.854,9.854,0,1,0,9.854,15.256Zm0,17.949a8.077,8.077,0,1,1,8.062-8.077A8.07,8.07,0,0,1,9.854,33.205ZM33.146,15.256a9.828,9.828,0,0,0-8.062,4.218V10.132a8.216,8.216,0,0,1,8.062-8.337,0.9,0.9,0,0,0,0-1.795,10.008,10.008,0,0,0-9.854,10.132v15A9.854,9.854,0,1,0,33.146,15.256Zm0,17.949a8.077,8.077,0,1,1,8.063-8.077A8.07,8.07,0,0,1,33.146,33.205Z"/>
</svg>
