<svg id="Icon" xmlns="http://www.w3.org/2000/svg" width="382" height="312" viewBox="0 0 382 312">
  <defs>
    <style>
      .cls-1, .cls-2 {
        fill: #fff;
      }

      .cls-2 {
        fill-rule: evenodd;
      }
    </style>
  </defs>
  <circle id="Oval" class="cls-1" cx="207.5" cy="225.5" r="8.5"/>
  <circle id="Oval-2" data-name="Oval" class="cls-1" cx="60.5" cy="277.5" r="8.5"/>
  <path id="Shape" class="cls-2" d="M725,1682v208a25.587,25.587,0,0,1-26.1,26H594.5v26c0,5.2,3.48,8.67,8.7,8.67h8.7c5.219,0,8.7,3.46,8.7,8.66s-3.48,8.67-8.7,8.67H490.1c-5.219,0-8.7-3.47-8.7-8.67s3.48-8.66,8.7-8.66h8.7c5.219,0,8.7-3.47,8.7-8.67v-26H490.1c-5.219,0-8.7-3.47-8.7-8.67s3.479-8.66,8.7-8.66H698.9c5.219,0,8.7-3.47,8.7-8.67V1682c0-5.2-3.479-8.67-8.7-8.67H403.1c-5.219,0-8.7,3.47-8.7,8.67v86.67c0,5.2-3.48,8.66-8.7,8.66s-8.7-3.46-8.7-8.66V1682a25.587,25.587,0,0,1,26.1-26H698.9A25.589,25.589,0,0,1,725,1682ZM578.838,1950.67A25.583,25.583,0,0,1,577.1,1942v-26H524.9v26a25.558,25.558,0,0,1-1.74,8.67h55.679Z" transform="translate(-343 -1656)"/>
  <path id="Path" class="cls-2" d="M691,1856.5c0,5.1-3.466,8.5-8.666,8.5H491.666c-5.2,0-8.666-3.4-8.666-8.5s3.466-8.5,8.666-8.5H682.334C687.534,1848,691,1851.4,691,1856.5Z" transform="translate(-343 -1656)"/>
  <path id="Shape-2" data-name="Shape" class="cls-2" d="M465,1820.95v121.1c0,14.71-11.328,25.95-26.143,25.95H369.143c-14.815,0-26.143-11.24-26.143-25.95v-121.1c0-14.7,11.328-25.95,26.143-25.95h69.714C453.672,1795,465,1806.25,465,1820.95Zm-17.429,0c0-5.19-3.485-8.65-8.714-8.65H369.143c-5.228,0-8.714,3.46-8.714,8.65v121.1c0,5.19,3.485,8.65,8.714,8.65h69.714c5.228,0,8.714-3.46,8.714-8.65v-121.1Z" transform="translate(-343 -1656)"/>
</svg>
