<svg xmlns="http://www.w3.org/2000/svg" width="16.72" height="20.03" viewBox="0 0 16.72 20.03">
  <defs>
    <style>
      .cls-1 {
        fill: #fff;
        stroke: #fff;
        stroke-width: 0.5px;
        fill-rule: evenodd;
      }
    </style>
  </defs>
  <path id="Shape" class="cls-1" d="M1583.22,1793.87l-1.16-12.58a0.545,0.545,0,0,0-.55-0.49h-2.39a4.011,4.011,0,0,0-8.01,0h-2.39a0.555,0.555,0,0,0-.56.49l-1.16,12.58v0.05a2.843,2.843,0,0,0,3.04,2.6h10.14a2.852,2.852,0,0,0,3.05-2.6A0.109,0.109,0,0,0,1583.22,1793.87Zm-8.11-15.79a2.84,2.84,0,0,1,2.89,2.72h-5.77A2.831,2.831,0,0,1,1575.11,1778.08Zm5.07,17.36h-10.14a1.769,1.769,0,0,1-1.92-1.49l1.11-12.07h1.87v1.64a0.547,0.547,0,0,0,.56.53,0.541,0.541,0,0,0,.56-0.53v-1.64H1578v1.64a0.561,0.561,0,0,0,1.12,0v-1.64h1.87l1.12,12.07A1.779,1.779,0,0,1,1580.18,1795.44Z" transform="translate(-1566.75 -1776.75)"/>
</svg>
