<svg id="Icon" xmlns="http://www.w3.org/2000/svg" width="295" height="295" viewBox="0 0 295 295">
  <defs>
    <style>
      .cls-1 {
        fill: #fff;
        fill-rule: evenodd;
      }
    </style>
  </defs>
  <path id="Shape" class="cls-1" d="M1135,2452.43a6.568,6.568,0,0,1-6.57,6.57H1009.57a6.568,6.568,0,0,1-6.57-6.57V2333.57a6.568,6.568,0,0,1,6.57-6.57h118.86a6.568,6.568,0,0,1,6.57,6.57v118.86Zm-13.13-6.56H1016.13V2340.13h105.74v105.74Z" transform="translate(-1003 -2327)"/>
  <path id="Shape-2" data-name="Shape" class="cls-1" d="M1298,2452.43a6.568,6.568,0,0,1-6.57,6.57H1172.57a6.568,6.568,0,0,1-6.57-6.57V2333.57a6.568,6.568,0,0,1,6.57-6.57h118.86a6.568,6.568,0,0,1,6.57,6.57v118.86Zm-13.13-6.56H1179.13V2340.13h105.74v105.74Z" transform="translate(-1003 -2327)"/>
  <path id="Shape-3" data-name="Shape" class="cls-1" d="M1135,2615.43a6.568,6.568,0,0,1-6.57,6.57H1009.57a6.568,6.568,0,0,1-6.57-6.57V2496.57a6.568,6.568,0,0,1,6.57-6.57h118.86a6.568,6.568,0,0,1,6.57,6.57v118.86Zm-13.13-7.22H1016.13V2503.13h105.74v105.08Z" transform="translate(-1003 -2327)"/>
  <path id="Shape-4" data-name="Shape" class="cls-1" d="M1298,2615.43a6.568,6.568,0,0,1-6.57,6.57H1172.57a6.568,6.568,0,0,1-6.57-6.57V2496.57a6.568,6.568,0,0,1,6.57-6.57h118.86a6.568,6.568,0,0,1,6.57,6.57v118.86Zm-13.13-7.22H1179.13V2503.13h105.74v105.08Z" transform="translate(-1003 -2327)"/>
</svg>
