<svg xmlns="http://www.w3.org/2000/svg" xmlns:xlink="http://www.w3.org/1999/xlink" width="78.945" height="79.998" viewBox="0 0 75 76">
  <defs>
    <style>
      .cls-1 {
        filter: url(#filter);
      }

      .cls-2 {
        fill: #ff3664;
        fill-rule: evenodd;
      }
    </style>
    <filter id="filter" filterUnits="userSpaceOnUse">
      <feFlood result="flood" flood-color="#ff3a46"/>
      <feComposite result="composite" operator="in" in2="SourceGraphic"/>
      <feBlend result="blend" in2="SourceGraphic"/>
    </filter>
  </defs>
  <g id="flaticon1553623190-svg" class="cls-1">
    <path id="Shape" class="cls-2" d="M812.717,3816.97l-3.653-3.7h0l-5.706-5.79h0l-10.515-10.65,16-16.22a5.525,5.525,0,0,0,0-7.74l-5.568-5.64a5.337,5.337,0,0,0-7.64,0l-16,16.21-10.522-10.66-5.709-5.79h0l-3.645-3.69a4.345,4.345,0,0,0-6.194,0l-13.278,13.45a4.484,4.484,0,0,0,0,6.28l19.876,20.14-7.712,7.82a1.434,1.434,0,0,0-.3.43l-9.439,20.85a1.5,1.5,0,0,0,.295,1.67,1.427,1.427,0,0,0,1.647.3l20.576-9.57a1.316,1.316,0,0,0,.425-0.3l7.713-7.81,6.3,6.38a1.438,1.438,0,0,0,2.071,0,1.5,1.5,0,0,0,0-2.1l-6.3-6.38,15.328-15.53,3.772,3.82-1.4,1.42a1.5,1.5,0,0,0,0,2.1,1.463,1.463,0,0,0,2.072,0l1.4-1.42,3.636,3.68-4.184,4.24a1.5,1.5,0,0,0,0,2.1,1.438,1.438,0,0,0,2.071,0l4.185-4.24,3.636,3.69-1.4,1.42a1.487,1.487,0,0,0,0,2.09,1.44,1.44,0,0,0,2.072,0l1.4-1.41,2.618,2.65a1.463,1.463,0,0,1,.425,1.04,1.48,1.48,0,0,1-.425,1.04l-13.278,13.45a1.426,1.426,0,0,1-2.051,0l-5.28-5.35a1.451,1.451,0,0,0-2.072,0,1.5,1.5,0,0,0,0,2.1l5.281,5.35a4.339,4.339,0,0,0,6.194,0l13.278-13.45A4.484,4.484,0,0,0,812.717,3816.97ZM797.7,3769.33a2.436,2.436,0,0,1,3.5,0l5.568,5.64a2.526,2.526,0,0,1,0,3.54l-4.276,4.34-9.065-9.19Zm-55.348,11.6a1.487,1.487,0,0,1,0-2.08l13.278-13.45a1.426,1.426,0,0,1,2.051,0l2.61,2.64-1.4,1.42a1.5,1.5,0,0,0,0,2.1,1.463,1.463,0,0,0,2.072,0l1.4-1.42,3.638,3.69-4.184,4.24a1.5,1.5,0,0,0,0,2.1,1.462,1.462,0,0,0,2.071,0l4.185-4.24,3.636,3.68-1.4,1.42a1.5,1.5,0,0,0,0,2.1,1.463,1.463,0,0,0,2.072,0l1.4-1.42,3.779,3.83-15.329,15.53Zm4.667,48.94,2.006-4.43,2.366,2.4Zm7.213-3.35-3.9-3.96,3.606-7.96,8.158,8.27Zm10.385-5.29-9.065-9.19,35.8-36.28,4.869,4.93-12.073,12.24a1.5,1.5,0,0,0,0,2.1,1.463,1.463,0,0,0,2.072,0l12.073-12.24,2.124,2.16Z" transform="translate(-739 -3762)"/>
    <path id="Path" class="cls-2" d="M786.56,3825.44a1.5,1.5,0,1,0,.44,1.06A1.507,1.507,0,0,0,786.56,3825.44Z" transform="translate(-739 -3762)"/>
    <path id="Path-2" data-name="Path" class="cls-2" d="M782.56,3796.44a1.5,1.5,0,1,0,.44,1.06A1.507,1.507,0,0,0,782.56,3796.44Z" transform="translate(-739 -3762)"/>
  </g>
</svg>
