<svg xmlns="http://www.w3.org/2000/svg" width="39" height="36.94" viewBox="0 0 39 36.94">
  <defs>
    <style>
      .cls-1 {
        fill: #fff;
        fill-rule: evenodd;
      }
    </style>
  </defs>
  <path id="Support" class="cls-1" d="M278.259,2770.52a4.884,4.884,0,0,0,6.561-4.59v-3.63a1.628,1.628,0,0,0-3.256,0v3.63a1.628,1.628,0,0,1-3.256,0v-5.25a1.361,1.361,0,0,1,.814-1.23,1.627,1.627,0,0,0,1.628-1.62v-1.62a13.955,13.955,0,0,1,20.5-12.21,13.7,13.7,0,0,1,6.512,7.8,1.639,1.639,0,0,0,1.252,1.04,1.627,1.627,0,0,0,1.809-2.16,17.1,17.1,0,0,0-33.327,5.43v0.44a4.725,4.725,0,0,0-2.491,4.12v5.08a4.868,4.868,0,0,0,3.256,4.77h0Zm32.342,0.33a6.5,6.5,0,0,1-6.353,5.1h-8.124a1.627,1.627,0,0,1-1.624-1.63v-2.76a1.625,1.625,0,0,1,3.249,0v1.16h6.5a3.252,3.252,0,0,0,3.249-3.15,1.626,1.626,0,0,1,1.625-1.72,1.627,1.627,0,0,0,1.625-1.63v-4.87a1.625,1.625,0,0,0-3.25,0v3.25a1.625,1.625,0,0,1-3.249,0v-3.25a4.876,4.876,0,1,1,9.749.15v4.71a4.876,4.876,0,0,1-3.445,4.64H310.6Z" transform="translate(-275 -2739)"/>
</svg>
