<svg id="flaticon1537555960-svg" xmlns="http://www.w3.org/2000/svg" width="28" height="28" viewBox="0 0 28 28">
  <defs>
    <style>
      .cls-1 {
        fill: #fff;
        fill-rule: evenodd;
      }
    </style>
  </defs>
  <path id="Shape" class="cls-1" d="M894,5832a14,14,0,1,1-14-14A14.016,14.016,0,0,1,894,5832Zm-2.979,0A11.022,11.022,0,1,0,880,5843.02,11.031,11.031,0,0,0,891.021,5832Z" transform="translate(-866 -5818)"/>
  <path id="Shape-2" data-name="Shape" class="cls-1" d="M887.466,5831.86a1.088,1.088,0,0,1-1.1,1.07h-7.126a1.088,1.088,0,0,1-1.1-1.07v-8.12a1.1,1.1,0,0,1,2.207,0v7.05h6.023A1.088,1.088,0,0,1,887.466,5831.86Z" transform="translate(-866 -5818)"/>
</svg>
