<svg id="flaticon1537556120-svg" xmlns="http://www.w3.org/2000/svg" width="18" height="24" viewBox="0 0 18 24">
  <defs>
    <style>
      .cls-1, .cls-2 {
        fill: #fff;
        fill-rule: evenodd;
      }

      .cls-1 {
        stroke: #fff;
        stroke-width: 1px;
      }
    </style>
  </defs>
  <path id="Shape" class="cls-1" d="M876,4483.66v17.21a1.128,1.128,0,0,1-1.118,1.13H860.117a1.127,1.127,0,0,1-1.117-1.13v-20.74a1.127,1.127,0,0,1,1.117-1.13h11.289a0.515,0.515,0,0,1,.374.16h0l4.063,4.12a0.545,0.545,0,0,1,.155.37A0.016,0.016,0,0,0,876,4483.66Zm-4.064-.6a0.055,0.055,0,0,0,.056.06h2.2l-2.251-2.28v2.22Zm3,17.81V4484.2h-2.946a1.129,1.129,0,0,1-1.117-1.14v-2.98H860.117a0.051,0.051,0,0,0-.055.05v20.74a0.051,0.051,0,0,0,.055.05h14.765a0.052,0.052,0,0,0,.056-0.05h0Z" transform="translate(-858.5 -4478.5)"/>
  <path id="Shape-2" data-name="Shape" class="cls-2" d="M872,4486.5a0.5,0.5,0,0,1-.508.5h-8.985a0.5,0.5,0,1,1,0-1h8.985A0.5,0.5,0,0,1,872,4486.5Z" transform="translate(-858.5 -4478.5)"/>
  <path id="Shape-3" data-name="Shape" class="cls-2" d="M872,4490.5a0.5,0.5,0,0,1-.508.5h-8.985a0.5,0.5,0,1,1,0-1h8.985A0.5,0.5,0,0,1,872,4490.5Z" transform="translate(-858.5 -4478.5)"/>
  <path id="Shape-4" data-name="Shape" class="cls-2" d="M872,4493.5a0.508,0.508,0,0,1-.508.5h-8.985a0.508,0.508,0,0,1-.507-0.5,0.5,0.5,0,0,1,.507-0.5h8.985A0.5,0.5,0,0,1,872,4493.5Z" transform="translate(-858.5 -4478.5)"/>
  <path id="Shape-5" data-name="Shape" class="cls-2" d="M868,4496.5a0.526,0.526,0,0,1-.553.5h-4.894a0.5,0.5,0,1,1,0-1h4.894A0.526,0.526,0,0,1,868,4496.5Z" transform="translate(-858.5 -4478.5)"/>
</svg>
