<svg xmlns="http://www.w3.org/2000/svg" width="51" height="55" viewBox="0 0 51 55">
  <metadata><?xpacket begin="﻿" id="W5M0MpCehiHzreSzNTczkc9d"?>
<x:xmpmeta xmlns:x="adobe:ns:meta/" x:xmptk="Adobe XMP Core 5.6-c142 79.160924, 2017/07/13-01:06:39        ">
   <rdf:RDF xmlns:rdf="http://www.w3.org/1999/02/22-rdf-syntax-ns#">
      <rdf:Description rdf:about=""/>
   </rdf:RDF>
</x:xmpmeta>
                                                                                                    
                                                                                                    
                                                                                                    
                                                                                                    
                                                                                                    
                                                                                                    
                                                                                                    
                                                                                                    
                                                                                                    
                                                                                                    
                                                                                                    
                                                                                                    
                                                                                                    
                                                                                                    
                                                                                                    
                                                                                                    
                                                                                                    
                                                                                                    
                                                                                                    
                                                                                                    
                           
<?xpacket end="w"?></metadata>
<defs>
    <style>
      .cls-1 {
        fill: #fff;
        fill-rule: evenodd;
      }
    </style>
  </defs>
  <path id="Shape" class="cls-1" d="M389.635,1506.99a1.846,1.846,0,0,0,.6.14,1.192,1.192,0,0,0,1.062-.6l1.459-2.47a1.219,1.219,0,0,0-.466-1.67,1.2,1.2,0,0,0-1.656.47l-1.46,2.47A1.2,1.2,0,0,0,389.635,1506.99Zm-23.386-2.93a1.219,1.219,0,0,1,.466-1.67,1.2,1.2,0,0,1,1.656.47l1.46,2.47a1.22,1.22,0,0,1-.467,1.67,1.834,1.834,0,0,1-.595.14,1.191,1.191,0,0,1-1.061-.6Zm12.058-.99v-2.87a1.19,1.19,0,1,1,2.38,0v2.87a1.187,1.187,0,0,1-1.19,1.2A1.115,1.115,0,0,1,378.307,1503.07Zm-19.081,21.55a1.187,1.187,0,0,1-1.19,1.2H355.19a1.2,1.2,0,0,1,0-2.4h2.846A1.194,1.194,0,0,1,359.226,1524.62Zm45.774,0a1.187,1.187,0,0,1-1.19,1.2h-2.846a1.2,1.2,0,0,1,0-2.4h2.846A1.194,1.194,0,0,1,405,1524.62Zm-3.846-11.15-2.453,1.47a1.84,1.84,0,0,1-.6.14,1.189,1.189,0,0,1-1.061-.6,1.22,1.22,0,0,1,.466-1.67l2.453-1.47A1.22,1.22,0,0,1,401.154,1513.47Zm-21.786-4.8a15.848,15.848,0,0,0-13.641,23.77c0.062,0.13.129,0.2,0.2,0.33a13.134,13.134,0,0,0,1.987,2.67c2.183,3.2,3.379,5.94,3.312,7.68v6.34a4.527,4.527,0,0,0,4.5,4.54h7.348a4.525,4.525,0,0,0,4.5-4.54v-5.74c0-.2-0.068-0.4-0.068-0.53v-0.07c-0.061-1.8,1.129-4.61,3.447-7.88a14.045,14.045,0,0,0,1.724-2.26l0.135-.2a1.186,1.186,0,0,0,.263-0.47,16.216,16.216,0,0,0,2.055-7.82A15.772,15.772,0,0,0,379.368,1508.67Zm5.759,35.72H373.67v2.27h11.457v-2.27h0Zm-2.048,7.08h-7.354a2.084,2.084,0,0,1-2.055-1.87v-0.47h11.457v0.47A2.077,2.077,0,0,1,383.079,1551.47Zm7.814-20.23c0,0.07-.068.07-0.068,0.13s-0.067.07-.067,0.14a9,9,0,0,1-1.521,2.07,0.259,0.259,0,0,0-.135.14c-1.656,2.33-3.508,5.47-3.907,8.21H373.6c-0.331-2.2-1.594-4.88-3.778-8.02a1.8,1.8,0,0,1-.135-0.13,16.27,16.27,0,0,1-1.791-2.41v-0.06h0a13.684,13.684,0,0,1-1.852-6.82,13.316,13.316,0,1,1,26.632,0A13.179,13.179,0,0,1,390.893,1531.24Zm-28.944-16.76a1.185,1.185,0,0,1-1.061.61,0.938,0.938,0,0,1-.595-0.14l-2.454-1.47a1.217,1.217,0,0,1-.466-1.67,1.187,1.187,0,0,1,1.656-.47l2.454,1.47A1.225,1.225,0,0,1,361.949,1514.48Z" transform="translate(-354 -1499)"/>
</svg>
