<svg id="Icon" xmlns="http://www.w3.org/2000/svg" width="68" height="64" viewBox="0 0 68 64">
  <defs>
    <style>
      .cls-1 {
        fill: #7dbbf6;
        fill-rule: evenodd;
      }
    </style>
  </defs>
  <path id="Shape" class="cls-1" d="M973,2558.14v47.72a8.064,8.064,0,0,1-7.969,8.14H912.969a8.063,8.063,0,0,1-7.969-8.14v-47.72a8.063,8.063,0,0,1,7.969-8.14h52.062A8.064,8.064,0,0,1,973,2558.14Zm-62.688,0v8.13h57.375v-8.13a2.691,2.691,0,0,0-2.656-2.72H912.969A2.692,2.692,0,0,0,910.312,2558.14Zm57.375,47.72v-34.17H910.312v34.17a2.692,2.692,0,0,0,2.657,2.72h52.062A2.691,2.691,0,0,0,967.687,2605.86Zm-50.734-42.3a2.711,2.711,0,1,0-2.656-2.71A2.681,2.681,0,0,0,916.953,2563.56Zm9.3,0a2.711,2.711,0,1,0-2.656-2.71A2.681,2.681,0,0,0,926.25,2563.56Zm13.547,18.58H915.89v-5.43H939.8v5.43Zm-13.29,5.28h23.906v5.43H926.507v-5.43Zm-10.625,10.85h23.906v5.42H915.882v-5.42Z" transform="translate(-905 -2550)"/>
</svg>
